<?xml version="1.0" encoding="UTF-8" standalone="no"?><svg xmlns="http://www.w3.org/2000/svg" xmlns:xlink="http://www.w3.org/1999/xlink" clip-rule="evenodd" stroke-miterlimit="4.00" viewBox="0 0 948 149"><desc>SVG generated by Keynote</desc><defs></defs><g transform="matrix(1.00, 0.00, -0.00, -1.00, 0.0, 149.0)"><text xml:space="preserve" font-family="Novecentosanswide-Medium" font-size="50.0" fill="#FEFFFF" transform="matrix(1.00, 0.00, -0.00, -1.00, 0.5, 97.7)">•</text><text xml:space="preserve" font-family="Cantarell-Regular" font-size="50.0" fill="#D8D8D8" transform="matrix(1.00, 0.00, -0.00, -1.00, 59.0, 99.0)">D</text><text xml:space="preserve" font-family="Cantarell-Regular" font-size="50.0" fill="#D8D8D8" transform="matrix(1.00, 0.00, -0.00, -1.00, 98.2, 99.0)">e</text><text xml:space="preserve" font-family="Cantarell-Regular" font-size="50.0" fill="#D8D8D8" transform="matrix(1.00, 0.00, -0.00, -1.00, 125.1, 99.0)">f</text><text xml:space="preserve" font-family="Cantarell-Regular" font-size="50.0" fill="#D8D8D8" transform="matrix(1.00, 0.00, -0.00, -1.00, 145.2, 99.0)">a</text><text xml:space="preserve" font-family="Cantarell-Regular" font-size="50.0" fill="#D8D8D8" transform="matrix(1.00, 0.00, -0.00, -1.00, 171.3, 99.0)">u</text><text xml:space="preserve" font-family="Cantarell-Regular" font-size="50.0" fill="#D8D8D8" transform="matrix(1.00, 0.00, -0.00, -1.00, 200.0, 99.0)">l</text><text xml:space="preserve" font-family="Cantarell-Regular" font-size="50.0" fill="#D8D8D8" transform="matrix(1.00, 0.00, -0.00, -1.00, 213.8, 99.0)">t</text><text xml:space="preserve" font-family="Cantarell-Regular" font-size="50.0" fill="#D8D8D8" transform="matrix(1.00, 0.00, -0.00, -1.00, 232.7, 99.0)">s</text><text xml:space="preserve" font-family="Cantarell-Regular" font-size="50.0" fill="#D8D8D8" transform="matrix(1.00, 0.00, -0.00, -1.00, 257.5, 99.0)"> </text><text xml:space="preserve" font-family="Cantarell-Regular" font-size="50.0" fill="#D8D8D8" transform="matrix(1.00, 0.00, -0.00, -1.00, 271.2, 99.0)">t</text><text xml:space="preserve" font-family="Cantarell-Regular" font-size="50.0" fill="#D8D8D8" transform="matrix(1.00, 0.00, -0.00, -1.00, 290.2, 99.0)">o</text><text xml:space="preserve" font-family="Cantarell-Regular" font-size="50.0" fill="#D8D8D8" transform="matrix(1.00, 0.00, -0.00, -1.00, 319.7, 99.0)"> </text><text xml:space="preserve" font-family="Cantarell-Regular" font-size="50.0" fill="#D8D8D8" transform="matrix(1.00, 0.00, -0.00, -1.00, 333.4, 99.0)">p</text><text xml:space="preserve" font-family="Cantarell-Regular" font-size="50.0" fill="#D8D8D8" transform="matrix(1.00, 0.00, -0.00, -1.00, 362.2, 99.0)">o</text><text xml:space="preserve" font-family="Cantarell-Regular" font-size="50.0" fill="#D8D8D8" transform="matrix(1.00, 0.00, -0.00, -1.00, 391.7, 99.0)">s</text><text xml:space="preserve" font-family="Cantarell-Regular" font-size="50.0" fill="#D8D8D8" transform="matrix(1.00, 0.00, -0.00, -1.00, 416.5, 99.0)">t</text><text xml:space="preserve" font-family="Cantarell-Regular" font-size="50.0" fill="#D8D8D8" transform="matrix(1.00, 0.00, -0.00, -1.00, 435.5, 99.0)">g</text><text xml:space="preserve" font-family="Cantarell-Regular" font-size="50.0" fill="#D8D8D8" transform="matrix(1.00, 0.00, -0.00, -1.00, 464.2, 99.0)">r</text><text xml:space="preserve" font-family="Cantarell-Regular" font-size="50.0" fill="#D8D8D8" transform="matrix(1.00, 0.00, -0.00, -1.00, 483.8, 99.0)">e</text><text xml:space="preserve" font-family="Cantarell-Regular" font-size="50.0" fill="#D8D8D8" transform="matrix(1.00, 0.00, -0.00, -1.00, 510.7, 99.0)">s</text><text xml:space="preserve" font-family="Cantarell-Regular" font-size="50.0" fill="#D8D8D8" transform="matrix(1.00, 0.00, -0.00, -1.00, 535.5, 99.0)">,</text><text xml:space="preserve" font-family="Cantarell-Regular" font-size="50.0" fill="#D8D8D8" transform="matrix(1.00, 0.00, -0.00, -1.00, 549.4, 99.0)"> </text><text xml:space="preserve" font-family="Cantarell-Regular" font-size="50.0" fill="#D8D8D8" transform="matrix(1.00, 0.00, -0.00, -1.00, 563.1, 99.0)">b</text><text xml:space="preserve" font-family="Cantarell-Regular" font-size="50.0" fill="#D8D8D8" transform="matrix(1.00, 0.00, -0.00, -1.00, 592.0, 99.0)">u</text><text xml:space="preserve" font-family="Cantarell-Regular" font-size="50.0" fill="#D8D8D8" transform="matrix(1.00, 0.00, -0.00, -1.00, 620.7, 99.0)">t</text><text xml:space="preserve" font-family="Cantarell-Regular" font-size="50.0" fill="#D8D8D8" transform="matrix(1.00, 0.00, -0.00, -1.00, 639.6, 99.0)"> </text><text xml:space="preserve" font-family="Cantarell-Regular" font-size="50.0" fill="#D8D8D8" transform="matrix(1.00, 0.00, -0.00, -1.00, 653.3, 99.0)">c</text><text xml:space="preserve" font-family="Cantarell-Regular" font-size="50.0" fill="#D8D8D8" transform="matrix(1.00, 0.00, -0.00, -1.00, 677.8, 99.0)">a</text><text xml:space="preserve" font-family="Cantarell-Regular" font-size="50.0" fill="#D8D8D8" transform="matrix(1.00, 0.00, -0.00, -1.00, 703.8, 99.0)">n</text><text xml:space="preserve" font-family="Cantarell-Regular" font-size="50.0" fill="#D8D8D8" transform="matrix(1.00, 0.00, -0.00, -1.00, 732.6, 99.0)"> </text><text xml:space="preserve" font-family="Cantarell-Regular" font-size="50.0" fill="#D8D8D8" transform="matrix(1.00, 0.00, -0.00, -1.00, 746.3, 99.0)">e</text><text xml:space="preserve" font-family="Cantarell-Regular" font-size="50.0" fill="#D8D8D8" transform="matrix(1.00, 0.00, -0.00, -1.00, 773.2, 99.0)">a</text><text xml:space="preserve" font-family="Cantarell-Regular" font-size="50.0" fill="#D8D8D8" transform="matrix(1.00, 0.00, -0.00, -1.00, 799.3, 99.0)">s</text><text xml:space="preserve" font-family="Cantarell-Regular" font-size="50.0" fill="#D8D8D8" transform="matrix(1.00, 0.00, -0.00, -1.00, 824.1, 99.0)">i</text><text xml:space="preserve" font-family="Cantarell-Regular" font-size="50.0" fill="#D8D8D8" transform="matrix(1.00, 0.00, -0.00, -1.00, 836.9, 99.0)">l</text><text xml:space="preserve" font-family="Cantarell-Regular" font-size="50.0" fill="#D8D8D8" transform="matrix(1.00, 0.00, -0.00, -1.00, 850.7, 99.0)">y</text><text xml:space="preserve" font-family="Cantarell-Regular" font-size="50.0" fill="#D8D8D8" transform="matrix(1.00, 0.00, -0.00, -1.00, 876.5, 99.0)"> </text><text xml:space="preserve" font-family="Cantarell-Regular" font-size="50.0" fill="#D8D8D8" transform="matrix(1.00, 0.00, -0.00, -1.00, 890.2, 99.0)">b</text><text xml:space="preserve" font-family="Cantarell-Regular" font-size="50.0" fill="#D8D8D8" transform="matrix(1.00, 0.00, -0.00, -1.00, 919.1, 99.0)">e</text><text xml:space="preserve" font-family="Cantarell-Regular" font-size="50.0" fill="#D8D8D8" transform="matrix(1.00, 0.00, -0.00, -1.00, 946.0, 99.0)"> </text><text xml:space="preserve" font-family="Cantarell-Regular" font-size="50.0" fill="#D8D8D8" transform="matrix(1.00, 0.00, -0.00, -1.00, 59.0, 15.0)">s</text><text xml:space="preserve" font-family="Cantarell-Regular" font-size="50.0" fill="#D8D8D8" transform="matrix(1.00, 0.00, -0.00, -1.00, 83.8, 15.0)">w</text><text xml:space="preserve" font-family="Cantarell-Regular" font-size="50.0" fill="#D8D8D8" transform="matrix(1.00, 0.00, -0.00, -1.00, 125.0, 15.0)">i</text><text xml:space="preserve" font-family="Cantarell-Regular" font-size="50.0" fill="#D8D8D8" transform="matrix(1.00, 0.00, -0.00, -1.00, 137.8, 15.0)">t</text><text xml:space="preserve" font-family="Cantarell-Regular" font-size="50.0" fill="#D8D8D8" transform="matrix(1.00, 0.00, -0.00, -1.00, 156.7, 15.0)">c</text><text xml:space="preserve" font-family="Cantarell-Regular" font-size="50.0" fill="#D8D8D8" transform="matrix(1.00, 0.00, -0.00, -1.00, 181.1, 15.0)">h</text><text xml:space="preserve" font-family="Cantarell-Regular" font-size="50.0" fill="#D8D8D8" transform="matrix(1.00, 0.00, -0.00, -1.00, 210.2, 15.0)">e</text><text xml:space="preserve" font-family="Cantarell-Regular" font-size="50.0" fill="#D8D8D8" transform="matrix(1.00, 0.00, -0.00, -1.00, 237.1, 15.0)">d</text><text xml:space="preserve" font-family="Cantarell-Regular" font-size="50.0" fill="#D8D8D8" transform="matrix(1.00, 0.00, -0.00, -1.00, 266.1, 15.0)"> </text><text xml:space="preserve" font-family="Cantarell-Regular" font-size="50.0" fill="#D8D8D8" transform="matrix(1.00, 0.00, -0.00, -1.00, 279.7, 15.0)">t</text><text xml:space="preserve" font-family="Cantarell-Regular" font-size="50.0" fill="#D8D8D8" transform="matrix(1.00, 0.00, -0.00, -1.00, 298.7, 15.0)">o</text><text xml:space="preserve" font-family="Cantarell-Regular" font-size="50.0" fill="#D8D8D8" transform="matrix(1.00, 0.00, -0.00, -1.00, 328.2, 15.0)"> </text><text xml:space="preserve" font-family="Cantarell-Regular" font-size="50.0" fill="#D8D8D8" transform="matrix(1.00, 0.00, -0.00, -1.00, 341.9, 15.0)">m</text><text xml:space="preserve" font-family="Cantarell-Regular" font-size="50.0" fill="#D8D8D8" transform="matrix(1.00, 0.00, -0.00, -1.00, 384.3, 15.0)">y</text><text xml:space="preserve" font-family="Cantarell-Regular" font-size="50.0" fill="#D8D8D8" transform="matrix(1.00, 0.00, -0.00, -1.00, 410.1, 15.0)">s</text><text xml:space="preserve" font-family="Cantarell-Regular" font-size="50.0" fill="#D8D8D8" transform="matrix(1.00, 0.00, -0.00, -1.00, 434.9, 15.0)">q</text><text xml:space="preserve" font-family="Cantarell-Regular" font-size="50.0" fill="#D8D8D8" transform="matrix(1.00, 0.00, -0.00, -1.00, 463.6, 15.0)">l</text></g></svg>