<?xml version="1.0" encoding="UTF-8" standalone="no"?><svg xmlns="http://www.w3.org/2000/svg" xmlns:xlink="http://www.w3.org/1999/xlink" clip-rule="evenodd" stroke-miterlimit="4.00" viewBox="0 0 948 149"><desc>SVG generated by Keynote</desc><defs></defs><g transform="matrix(1.00, 0.00, -0.00, -1.00, 0.0, 149.0)"><text xml:space="preserve" font-family="Novecentosanswide-Medium" font-size="50.0" fill="#FEFFFF" transform="matrix(1.00, 0.00, -0.00, -1.00, 0.5, 97.4)">•</text><text xml:space="preserve" font-family="Cantarell-Regular" font-size="50.0" fill="#D8D8D8" transform="matrix(1.00, 0.00, -0.00, -1.00, 59.0, 99.0)">C</text><text xml:space="preserve" font-family="Cantarell-Regular" font-size="50.0" fill="#D8D8D8" transform="matrix(1.00, 0.00, -0.00, -1.00, 94.4, 99.0)">u</text><text xml:space="preserve" font-family="Cantarell-Regular" font-size="50.0" fill="#D8D8D8" transform="matrix(1.00, 0.00, -0.00, -1.00, 123.2, 99.0)">r</text><text xml:space="preserve" font-family="Cantarell-Regular" font-size="50.0" fill="#D8D8D8" transform="matrix(1.00, 0.00, -0.00, -1.00, 142.7, 99.0)">r</text><text xml:space="preserve" font-family="Cantarell-Regular" font-size="50.0" fill="#D8D8D8" transform="matrix(1.00, 0.00, -0.00, -1.00, 162.3, 99.0)">e</text><text xml:space="preserve" font-family="Cantarell-Regular" font-size="50.0" fill="#D8D8D8" transform="matrix(1.00, 0.00, -0.00, -1.00, 189.2, 99.0)">n</text><text xml:space="preserve" font-family="Cantarell-Regular" font-size="50.0" fill="#D8D8D8" transform="matrix(1.00, 0.00, -0.00, -1.00, 217.9, 99.0)">t</text><text xml:space="preserve" font-family="Cantarell-Regular" font-size="50.0" fill="#D8D8D8" transform="matrix(1.00, 0.00, -0.00, -1.00, 236.9, 99.0)">l</text><text xml:space="preserve" font-family="Cantarell-Regular" font-size="50.0" fill="#D8D8D8" transform="matrix(1.00, 0.00, -0.00, -1.00, 250.7, 99.0)">y</text><text xml:space="preserve" font-family="Cantarell-Regular" font-size="50.0" fill="#D8D8D8" transform="matrix(1.00, 0.00, -0.00, -1.00, 276.5, 99.0)"> </text><text xml:space="preserve" font-family="Cantarell-Regular" font-size="50.0" fill="#D8D8D8" transform="matrix(1.00, 0.00, -0.00, -1.00, 290.2, 99.0)">u</text><text xml:space="preserve" font-family="Cantarell-Regular" font-size="50.0" fill="#D8D8D8" transform="matrix(1.00, 0.00, -0.00, -1.00, 318.9, 99.0)">s</text><text xml:space="preserve" font-family="Cantarell-Regular" font-size="50.0" fill="#D8D8D8" transform="matrix(1.00, 0.00, -0.00, -1.00, 343.7, 99.0)">i</text><text xml:space="preserve" font-family="Cantarell-Regular" font-size="50.0" fill="#D8D8D8" transform="matrix(1.00, 0.00, -0.00, -1.00, 356.5, 99.0)">n</text><text xml:space="preserve" font-family="Cantarell-Regular" font-size="50.0" fill="#D8D8D8" transform="matrix(1.00, 0.00, -0.00, -1.00, 385.2, 99.0)">g</text><text xml:space="preserve" font-family="Cantarell-Regular" font-size="50.0" fill="#D8D8D8" transform="matrix(1.00, 0.00, -0.00, -1.00, 414.0, 99.0)"> </text><text xml:space="preserve" font-family="Cantarell-Regular" font-size="50.0" fill="#D8D8D8" transform="matrix(1.00, 0.00, -0.00, -1.00, 427.7, 99.0)">d</text><text xml:space="preserve" font-family="Cantarell-Regular" font-size="50.0" fill="#D8D8D8" transform="matrix(1.00, 0.00, -0.00, -1.00, 456.7, 99.0)">e</text><text xml:space="preserve" font-family="Cantarell-Regular" font-size="50.0" fill="#D8D8D8" transform="matrix(1.00, 0.00, -0.00, -1.00, 483.6, 99.0)">b</text><text xml:space="preserve" font-family="Cantarell-Regular" font-size="50.0" fill="#D8D8D8" transform="matrix(1.00, 0.00, -0.00, -1.00, 512.4, 99.0)">i</text><text xml:space="preserve" font-family="Cantarell-Regular" font-size="50.0" fill="#D8D8D8" transform="matrix(1.00, 0.00, -0.00, -1.00, 525.2, 99.0)">a</text><text xml:space="preserve" font-family="Cantarell-Regular" font-size="50.0" fill="#D8D8D8" transform="matrix(1.00, 0.00, -0.00, -1.00, 551.3, 99.0)">n</text><text xml:space="preserve" font-family="Cantarell-Regular" font-size="50.0" fill="#D8D8D8" transform="matrix(1.00, 0.00, -0.00, -1.00, 580.0, 99.0)"> </text><text xml:space="preserve" font-family="Cantarell-Regular" font-size="50.0" fill="#D8D8D8" transform="matrix(1.00, 0.00, -0.00, -1.00, 593.7, 99.0)">j</text><text xml:space="preserve" font-family="Cantarell-Regular" font-size="50.0" fill="#D8D8D8" transform="matrix(1.00, 0.00, -0.00, -1.00, 606.5, 99.0)">e</text><text xml:space="preserve" font-family="Cantarell-Regular" font-size="50.0" fill="#D8D8D8" transform="matrix(1.00, 0.00, -0.00, -1.00, 633.4, 99.0)">s</text><text xml:space="preserve" font-family="Cantarell-Regular" font-size="50.0" fill="#D8D8D8" transform="matrix(1.00, 0.00, -0.00, -1.00, 658.2, 99.0)">s</text><text xml:space="preserve" font-family="Cantarell-Regular" font-size="50.0" fill="#D8D8D8" transform="matrix(1.00, 0.00, -0.00, -1.00, 683.1, 99.0)">e</text><text xml:space="preserve" font-family="Cantarell-Regular" font-size="50.0" fill="#D8D8D8" transform="matrix(1.00, 0.00, -0.00, -1.00, 710.0, 99.0)">,</text><text xml:space="preserve" font-family="Cantarell-Regular" font-size="50.0" fill="#D8D8D8" transform="matrix(1.00, 0.00, -0.00, -1.00, 723.9, 99.0)"> </text><text xml:space="preserve" font-family="Cantarell-Regular" font-size="50.0" fill="#D8D8D8" transform="matrix(1.00, 0.00, -0.00, -1.00, 737.6, 99.0)">w</text><text xml:space="preserve" font-family="Cantarell-Regular" font-size="50.0" fill="#D8D8D8" transform="matrix(1.00, 0.00, -0.00, -1.00, 778.7, 99.0)">i</text><text xml:space="preserve" font-family="Cantarell-Regular" font-size="50.0" fill="#D8D8D8" transform="matrix(1.00, 0.00, -0.00, -1.00, 791.5, 99.0)">l</text><text xml:space="preserve" font-family="Cantarell-Regular" font-size="50.0" fill="#D8D8D8" transform="matrix(1.00, 0.00, -0.00, -1.00, 805.3, 99.0)">l</text><text xml:space="preserve" font-family="Cantarell-Regular" font-size="50.0" fill="#D8D8D8" transform="matrix(1.00, 0.00, -0.00, -1.00, 819.1, 99.0)"> </text><text xml:space="preserve" font-family="Cantarell-Regular" font-size="50.0" fill="#D8D8D8" transform="matrix(1.00, 0.00, -0.00, -1.00, 832.8, 99.0)">s</text><text xml:space="preserve" font-family="Cantarell-Regular" font-size="50.0" fill="#D8D8D8" transform="matrix(1.00, 0.00, -0.00, -1.00, 857.6, 99.0)">o</text><text xml:space="preserve" font-family="Cantarell-Regular" font-size="50.0" fill="#D8D8D8" transform="matrix(1.00, 0.00, -0.00, -1.00, 887.2, 99.0)">o</text><text xml:space="preserve" font-family="Cantarell-Regular" font-size="50.0" fill="#D8D8D8" transform="matrix(1.00, 0.00, -0.00, -1.00, 916.7, 99.0)">n</text><text xml:space="preserve" font-family="Cantarell-Regular" font-size="50.0" fill="#D8D8D8" transform="matrix(1.00, 0.00, -0.00, -1.00, 945.5, 99.0)"> </text><text xml:space="preserve" font-family="Cantarell-Regular" font-size="50.0" fill="#D8D8D8" transform="matrix(1.00, 0.00, -0.00, -1.00, 59.0, 15.0)">s</text><text xml:space="preserve" font-family="Cantarell-Regular" font-size="50.0" fill="#D8D8D8" transform="matrix(1.00, 0.00, -0.00, -1.00, 83.8, 15.0)">w</text><text xml:space="preserve" font-family="Cantarell-Regular" font-size="50.0" fill="#D8D8D8" transform="matrix(1.00, 0.00, -0.00, -1.00, 124.9, 15.0)">i</text><text xml:space="preserve" font-family="Cantarell-Regular" font-size="50.0" fill="#D8D8D8" transform="matrix(1.00, 0.00, -0.00, -1.00, 137.7, 15.0)">t</text><text xml:space="preserve" font-family="Cantarell-Regular" font-size="50.0" fill="#D8D8D8" transform="matrix(1.00, 0.00, -0.00, -1.00, 156.7, 15.0)">c</text><text xml:space="preserve" font-family="Cantarell-Regular" font-size="50.0" fill="#D8D8D8" transform="matrix(1.00, 0.00, -0.00, -1.00, 181.1, 15.0)">h</text><text xml:space="preserve" font-family="Cantarell-Regular" font-size="50.0" fill="#D8D8D8" transform="matrix(1.00, 0.00, -0.00, -1.00, 210.1, 15.0)"> </text><text xml:space="preserve" font-family="Cantarell-Regular" font-size="50.0" fill="#D8D8D8" transform="matrix(1.00, 0.00, -0.00, -1.00, 223.8, 15.0)">t</text><text xml:space="preserve" font-family="Cantarell-Regular" font-size="50.0" fill="#D8D8D8" transform="matrix(1.00, 0.00, -0.00, -1.00, 242.8, 15.0)">o</text><text xml:space="preserve" font-family="Cantarell-Regular" font-size="50.0" fill="#D8D8D8" transform="matrix(1.00, 0.00, -0.00, -1.00, 272.4, 15.0)"> </text><text xml:space="preserve" font-family="Cantarell-Regular" font-size="50.0" fill="#D8D8D8" transform="matrix(1.00, 0.00, -0.00, -1.00, 286.1, 15.0)">a</text><text xml:space="preserve" font-family="Cantarell-Regular" font-size="50.0" fill="#D8D8D8" transform="matrix(1.00, 0.00, -0.00, -1.00, 312.2, 15.0)">l</text><text xml:space="preserve" font-family="Cantarell-Regular" font-size="50.0" fill="#D8D8D8" transform="matrix(1.00, 0.00, -0.00, -1.00, 325.9, 15.0)">p</text><text xml:space="preserve" font-family="Cantarell-Regular" font-size="50.0" fill="#D8D8D8" transform="matrix(1.00, 0.00, -0.00, -1.00, 354.7, 15.0)">i</text><text xml:space="preserve" font-family="Cantarell-Regular" font-size="50.0" fill="#D8D8D8" transform="matrix(1.00, 0.00, -0.00, -1.00, 367.4, 15.0)">n</text><text xml:space="preserve" font-family="Cantarell-Regular" font-size="50.0" fill="#D8D8D8" transform="matrix(1.00, 0.00, -0.00, -1.00, 396.2, 15.0)">e</text></g></svg>