<?xml version="1.0" encoding="UTF-8" standalone="no"?><svg xmlns="http://www.w3.org/2000/svg" xmlns:xlink="http://www.w3.org/1999/xlink" clip-rule="evenodd" stroke-miterlimit="4.00" viewBox="0 0 903 99"><desc>SVG generated by Keynote</desc><defs></defs><g transform="matrix(1.00, 0.00, -0.00, -1.00, 0.0, 99.0)"><text xml:space="preserve" font-family="Novecentosanswide-Medium" font-size="40.0" fill="#FEFFFF" transform="matrix(1.00, 0.00, -0.00, -1.00, 0.8, 58.1)">•</text><text xml:space="preserve" font-family="Cantarell-Regular" font-size="40.0" fill="#D8D8D8" transform="matrix(1.00, 0.00, -0.00, -1.00, 60.0, 59.0)">C</text><text xml:space="preserve" font-family="Cantarell-Regular" font-size="40.0" fill="#D8D8D8" transform="matrix(1.00, 0.00, -0.00, -1.00, 88.4, 59.0)">r</text><text xml:space="preserve" font-family="Cantarell-Regular" font-size="40.0" fill="#D8D8D8" transform="matrix(1.00, 0.00, -0.00, -1.00, 104.0, 59.0)">e</text><text xml:space="preserve" font-family="Cantarell-Regular" font-size="40.0" fill="#D8D8D8" transform="matrix(1.00, 0.00, -0.00, -1.00, 125.5, 59.0)">a</text><text xml:space="preserve" font-family="Cantarell-Regular" font-size="40.0" fill="#D8D8D8" transform="matrix(1.00, 0.00, -0.00, -1.00, 146.4, 59.0)">t</text><text xml:space="preserve" font-family="Cantarell-Regular" font-size="40.0" fill="#D8D8D8" transform="matrix(1.00, 0.00, -0.00, -1.00, 161.6, 59.0)">o</text><text xml:space="preserve" font-family="Cantarell-Regular" font-size="40.0" fill="#D8D8D8" transform="matrix(1.00, 0.00, -0.00, -1.00, 185.2, 59.0)">r</text><text xml:space="preserve" font-family="Cantarell-Regular" font-size="40.0" fill="#D8D8D8" transform="matrix(1.00, 0.00, -0.00, -1.00, 200.9, 59.0)"> </text><text xml:space="preserve" font-family="Cantarell-Regular" font-size="40.0" fill="#D8D8D8" transform="matrix(1.00, 0.00, -0.00, -1.00, 211.8, 59.0)">o</text><text xml:space="preserve" font-family="Cantarell-Regular" font-size="40.0" fill="#D8D8D8" transform="matrix(1.00, 0.00, -0.00, -1.00, 235.5, 59.0)">f</text><text xml:space="preserve" font-family="Cantarell-Regular" font-size="40.0" fill="#D8D8D8" transform="matrix(1.00, 0.00, -0.00, -1.00, 251.5, 59.0)"> </text><text xml:space="preserve" font-family="Cantarell-Regular" font-size="40.0" fill="#D8D8D8" transform="matrix(1.00, 0.00, -0.00, -1.00, 262.5, 59.0)">t</text><text xml:space="preserve" font-family="Cantarell-Regular" font-size="40.0" fill="#D8D8D8" transform="matrix(1.00, 0.00, -0.00, -1.00, 277.6, 59.0)">h</text><text xml:space="preserve" font-family="Cantarell-Regular" font-size="40.0" fill="#D8D8D8" transform="matrix(1.00, 0.00, -0.00, -1.00, 300.9, 59.0)">e</text><text xml:space="preserve" font-family="Cantarell-Regular" font-size="40.0" fill="#D8D8D8" transform="matrix(1.00, 0.00, -0.00, -1.00, 322.4, 59.0)"> </text><text xml:space="preserve" font-family="Cantarell-Regular" font-size="40.0" fill="#D8D8D8" transform="matrix(1.00, 0.00, -0.00, -1.00, 333.4, 59.0)">i</text><text xml:space="preserve" font-family="Cantarell-Regular" font-size="40.0" fill="#D8D8D8" transform="matrix(1.00, 0.00, -0.00, -1.00, 343.6, 59.0)">n</text><text xml:space="preserve" font-family="Cantarell-Regular" font-size="40.0" fill="#D8D8D8" transform="matrix(1.00, 0.00, -0.00, -1.00, 366.6, 59.0)">d</text><text xml:space="preserve" font-family="Cantarell-Regular" font-size="40.0" fill="#D8D8D8" transform="matrix(1.00, 0.00, -0.00, -1.00, 389.8, 59.0)">a</text><text xml:space="preserve" font-family="Cantarell-Regular" font-size="40.0" fill="#D8D8D8" transform="matrix(1.00, 0.00, -0.00, -1.00, 410.7, 59.0)">t</text><text xml:space="preserve" font-family="Cantarell-Regular" font-size="40.0" fill="#D8D8D8" transform="matrix(1.00, 0.00, -0.00, -1.00, 425.8, 59.0)">u</text><text xml:space="preserve" font-family="Cantarell-Regular" font-size="40.0" fill="#D8D8D8" transform="matrix(1.00, 0.00, -0.00, -1.00, 448.8, 59.0)">s</text><text xml:space="preserve" font-family="Cantarell-Regular" font-size="40.0" fill="#D8D8D8" transform="matrix(1.00, 0.00, -0.00, -1.00, 468.6, 59.0)">/</text><text xml:space="preserve" font-family="Cantarell-Regular" font-size="40.0" fill="#D8D8D8" transform="matrix(1.00, 0.00, -0.00, -1.00, 482.8, 59.0)">d</text><text xml:space="preserve" font-family="Cantarell-Regular" font-size="40.0" fill="#D8D8D8" transform="matrix(1.00, 0.00, -0.00, -1.00, 506.0, 59.0)">i</text><text xml:space="preserve" font-family="Cantarell-Regular" font-size="40.0" fill="#D8D8D8" transform="matrix(1.00, 0.00, -0.00, -1.00, 516.3, 59.0)">s</text><text xml:space="preserve" font-family="Cantarell-Regular" font-size="40.0" fill="#D8D8D8" transform="matrix(1.00, 0.00, -0.00, -1.00, 536.1, 59.0)">p</text><text xml:space="preserve" font-family="Cantarell-Regular" font-size="40.0" fill="#D8D8D8" transform="matrix(1.00, 0.00, -0.00, -1.00, 559.1, 59.0)">a</text><text xml:space="preserve" font-family="Cantarell-Regular" font-size="40.0" fill="#D8D8D8" transform="matrix(1.00, 0.00, -0.00, -1.00, 580.0, 59.0)">t</text><text xml:space="preserve" font-family="Cantarell-Regular" font-size="40.0" fill="#D8D8D8" transform="matrix(1.00, 0.00, -0.00, -1.00, 595.1, 59.0)">c</text><text xml:space="preserve" font-family="Cantarell-Regular" font-size="40.0" fill="#D8D8D8" transform="matrix(1.00, 0.00, -0.00, -1.00, 614.7, 59.0)">h</text><text xml:space="preserve" font-family="Cantarell-Regular" font-size="40.0" fill="#D8D8D8" transform="matrix(1.00, 0.00, -0.00, -1.00, 637.9, 59.0)">e</text><text xml:space="preserve" font-family="Cantarell-Regular" font-size="40.0" fill="#D8D8D8" transform="matrix(1.00, 0.00, -0.00, -1.00, 659.4, 59.0)">r</text><text xml:space="preserve" font-family="Cantarell-Regular" font-size="40.0" fill="#D8D8D8" transform="matrix(1.00, 0.00, -0.00, -1.00, 675.1, 59.0)"> </text><text xml:space="preserve" font-family="Cantarell-Regular" font-size="40.0" fill="#D8D8D8" transform="matrix(1.00, 0.00, -0.00, -1.00, 686.0, 59.0)">p</text><text xml:space="preserve" font-family="Cantarell-Regular" font-size="40.0" fill="#D8D8D8" transform="matrix(1.00, 0.00, -0.00, -1.00, 709.0, 59.0)">a</text><text xml:space="preserve" font-family="Cantarell-Regular" font-size="40.0" fill="#D8D8D8" transform="matrix(1.00, 0.00, -0.00, -1.00, 729.9, 59.0)">c</text><text xml:space="preserve" font-family="Cantarell-Regular" font-size="40.0" fill="#D8D8D8" transform="matrix(1.00, 0.00, -0.00, -1.00, 749.4, 59.0)">k</text><text xml:space="preserve" font-family="Cantarell-Regular" font-size="40.0" fill="#D8D8D8" transform="matrix(1.00, 0.00, -0.00, -1.00, 770.4, 59.0)">a</text><text xml:space="preserve" font-family="Cantarell-Regular" font-size="40.0" fill="#D8D8D8" transform="matrix(1.00, 0.00, -0.00, -1.00, 791.3, 59.0)">g</text><text xml:space="preserve" font-family="Cantarell-Regular" font-size="40.0" fill="#D8D8D8" transform="matrix(1.00, 0.00, -0.00, -1.00, 814.2, 59.0)">e</text><text xml:space="preserve" font-family="Cantarell-Regular" font-size="40.0" fill="#D8D8D8" transform="matrix(1.00, 0.00, -0.00, -1.00, 835.8, 59.0)"> </text><text xml:space="preserve" font-family="Cantarell-Regular" font-size="40.0" fill="#D8D8D8" transform="matrix(1.00, 0.00, -0.00, -1.00, 846.7, 59.0)">f</text><text xml:space="preserve" font-family="Cantarell-Regular" font-size="40.0" fill="#D8D8D8" transform="matrix(1.00, 0.00, -0.00, -1.00, 862.8, 59.0)">o</text><text xml:space="preserve" font-family="Cantarell-Regular" font-size="40.0" fill="#D8D8D8" transform="matrix(1.00, 0.00, -0.00, -1.00, 886.4, 59.0)">r</text><text xml:space="preserve" font-family="Cantarell-Regular" font-size="40.0" fill="#D8D8D8" transform="matrix(1.00, 0.00, -0.00, -1.00, 902.1, 59.0)"> </text><text xml:space="preserve" font-family="Cantarell-Regular" font-size="40.0" fill="#D8D8D8" transform="matrix(1.00, 0.00, -0.00, -1.00, 60.0, 2.0)">s</text><text xml:space="preserve" font-family="Cantarell-Regular" font-size="40.0" fill="#D8D8D8" transform="matrix(1.00, 0.00, -0.00, -1.00, 79.8, 2.0)">c</text><text xml:space="preserve" font-family="Cantarell-Regular" font-size="40.0" fill="#D8D8D8" transform="matrix(1.00, 0.00, -0.00, -1.00, 99.4, 2.0)">h</text><text xml:space="preserve" font-family="Cantarell-Regular" font-size="40.0" fill="#D8D8D8" transform="matrix(1.00, 0.00, -0.00, -1.00, 122.6, 2.0)">e</text><text xml:space="preserve" font-family="Cantarell-Regular" font-size="40.0" fill="#D8D8D8" transform="matrix(1.00, 0.00, -0.00, -1.00, 144.2, 2.0)">d</text><text xml:space="preserve" font-family="Cantarell-Regular" font-size="40.0" fill="#D8D8D8" transform="matrix(1.00, 0.00, -0.00, -1.00, 167.4, 2.0)">u</text><text xml:space="preserve" font-family="Cantarell-Regular" font-size="40.0" fill="#D8D8D8" transform="matrix(1.00, 0.00, -0.00, -1.00, 190.3, 2.0)">l</text><text xml:space="preserve" font-family="Cantarell-Regular" font-size="40.0" fill="#D8D8D8" transform="matrix(1.00, 0.00, -0.00, -1.00, 201.4, 2.0)">e</text><text xml:space="preserve" font-family="Cantarell-Regular" font-size="40.0" fill="#D8D8D8" transform="matrix(1.00, 0.00, -0.00, -1.00, 222.9, 2.0)"> </text><text xml:space="preserve" font-family="Cantarell-Regular" font-size="40.0" fill="#D8D8D8" transform="matrix(1.00, 0.00, -0.00, -1.00, 233.9, 2.0)">a</text><text xml:space="preserve" font-family="Cantarell-Regular" font-size="40.0" fill="#D8D8D8" transform="matrix(1.00, 0.00, -0.00, -1.00, 254.7, 2.0)">r</text><text xml:space="preserve" font-family="Cantarell-Regular" font-size="40.0" fill="#D8D8D8" transform="matrix(1.00, 0.00, -0.00, -1.00, 270.4, 2.0)">t</text><text xml:space="preserve" font-family="Cantarell-Regular" font-size="40.0" fill="#D8D8D8" transform="matrix(1.00, 0.00, -0.00, -1.00, 285.5, 2.0)">i</text><text xml:space="preserve" font-family="Cantarell-Regular" font-size="40.0" fill="#D8D8D8" transform="matrix(1.00, 0.00, -0.00, -1.00, 295.8, 2.0)">s</text><text xml:space="preserve" font-family="Cantarell-Regular" font-size="40.0" fill="#D8D8D8" transform="matrix(1.00, 0.00, -0.00, -1.00, 315.6, 2.0)">a</text><text xml:space="preserve" font-family="Cantarell-Regular" font-size="40.0" fill="#D8D8D8" transform="matrix(1.00, 0.00, -0.00, -1.00, 336.5, 2.0)">n</text><text xml:space="preserve" font-family="Cantarell-Regular" font-size="40.0" fill="#D8D8D8" transform="matrix(1.00, 0.00, -0.00, -1.00, 359.5, 2.0)"> </text><text xml:space="preserve" font-family="Cantarell-Regular" font-size="40.0" fill="#D8D8D8" transform="matrix(1.00, 0.00, -0.00, -1.00, 370.4, 2.0)">c</text><text xml:space="preserve" font-family="Cantarell-Regular" font-size="40.0" fill="#D8D8D8" transform="matrix(1.00, 0.00, -0.00, -1.00, 390.0, 2.0)">o</text><text xml:space="preserve" font-family="Cantarell-Regular" font-size="40.0" fill="#D8D8D8" transform="matrix(1.00, 0.00, -0.00, -1.00, 413.6, 2.0)">m</text><text xml:space="preserve" font-family="Cantarell-Regular" font-size="40.0" fill="#D8D8D8" transform="matrix(1.00, 0.00, -0.00, -1.00, 447.5, 2.0)">m</text><text xml:space="preserve" font-family="Cantarell-Regular" font-size="40.0" fill="#D8D8D8" transform="matrix(1.00, 0.00, -0.00, -1.00, 481.3, 2.0)">a</text><text xml:space="preserve" font-family="Cantarell-Regular" font-size="40.0" fill="#D8D8D8" transform="matrix(1.00, 0.00, -0.00, -1.00, 502.2, 2.0)">n</text><text xml:space="preserve" font-family="Cantarell-Regular" font-size="40.0" fill="#D8D8D8" transform="matrix(1.00, 0.00, -0.00, -1.00, 525.2, 2.0)">d</text><text xml:space="preserve" font-family="Cantarell-Regular" font-size="40.0" fill="#D8D8D8" transform="matrix(1.00, 0.00, -0.00, -1.00, 548.4, 2.0)">s</text></g></svg>