<?xml version="1.0" encoding="UTF-8" standalone="no"?><svg xmlns="http://www.w3.org/2000/svg" xmlns:xlink="http://www.w3.org/1999/xlink" clip-rule="evenodd" stroke-miterlimit="4.00" viewBox="0 0 850 850"><desc>SVG generated by Keynote</desc><defs></defs><g transform="matrix(1.00, 0.00, -0.00, -1.00, 0.0, 850.0)"><g><clipPath id="clip-32"><path d="M 723.0 723.0 C 887.5 558.6 887.5 292.0 723.0 127.6 C 558.6 -36.8 292.1 -36.8 127.7 127.6 C -36.7 292.0 -36.7 558.6 127.7 723.0 C 292.1 887.4 558.6 887.4 723.0 723.0 "></path></clipPath><g clip-path="url(#clip-32)"><image xlink:href="BDC7D95EE526A6E0D7677EFBFB68B43C.jpeg" width="1153.00" height="768.00" transform="matrix(1.10, 0.00, -0.00, -1.10, -206.0, 846.0)"></image></g></g><path d="M 421.0 0.0 C 313.3 0.0 205.5 41.1 123.3 123.3 C -41.1 287.7 -41.1 554.3 123.3 718.7 C 205.5 800.9 313.3 842.0 421.0 842.0 C 528.7 842.0 636.5 800.9 718.7 718.7 C 883.1 554.3 883.1 287.7 718.7 123.3 C 636.5 41.1 528.7 0.0 421.0 0.0 Z M 421.0 0.0 " fill="none" stroke="#01A1D6" stroke-width="5.00" stroke-linejoin="round" transform="matrix(1.00, 0.00, 0.00, -1.00, 4.4, 846.3)"></path></g></svg>