<?xml version="1.0" encoding="UTF-8" standalone="no"?><svg xmlns="http://www.w3.org/2000/svg" xmlns:xlink="http://www.w3.org/1999/xlink" clip-rule="evenodd" stroke-miterlimit="4.00" viewBox="0 0 272 67"><desc>SVG generated by Keynote</desc><defs></defs><g transform="matrix(1.00, 0.00, -0.00, -1.00, 0.0, 67.0)"><text xml:space="preserve" font-family="Cantarell-Regular" font-size="50.0" fill="#D8D8D8" transform="matrix(1.00, 0.00, -0.00, -1.00, 0.0, 14.0)">•</text><text xml:space="preserve" font-family="Cantarell-Regular" font-size="50.0" fill="#D8D8D8" transform="matrix(1.00, 0.00, -0.00, -1.00, 18.0, 14.0)"> </text><text xml:space="preserve" font-family="Cantarell-Regular" font-size="50.0" fill="#D8D8D8" transform="matrix(1.00, 0.00, -0.00, -1.00, 31.7, 14.0)">F</text><text xml:space="preserve" font-family="Cantarell-Regular" font-size="50.0" fill="#D8D8D8" transform="matrix(1.00, 0.00, -0.00, -1.00, 62.2, 14.0)">u</text><text xml:space="preserve" font-family="Cantarell-Regular" font-size="50.0" fill="#D8D8D8" transform="matrix(1.00, 0.00, -0.00, -1.00, 90.9, 14.0)">n</text><text xml:space="preserve" font-family="Cantarell-Regular" font-size="50.0" fill="#D8D8D8" transform="matrix(1.00, 0.00, -0.00, -1.00, 119.6, 14.0)">c</text><text xml:space="preserve" font-family="Cantarell-Regular" font-size="50.0" fill="#D8D8D8" transform="matrix(1.00, 0.00, -0.00, -1.00, 144.1, 14.0)">t</text><text xml:space="preserve" font-family="Cantarell-Regular" font-size="50.0" fill="#D8D8D8" transform="matrix(1.00, 0.00, -0.00, -1.00, 163.0, 14.0)">i</text><text xml:space="preserve" font-family="Cantarell-Regular" font-size="50.0" fill="#D8D8D8" transform="matrix(1.00, 0.00, -0.00, -1.00, 175.8, 14.0)">o</text><text xml:space="preserve" font-family="Cantarell-Regular" font-size="50.0" fill="#D8D8D8" transform="matrix(1.00, 0.00, -0.00, -1.00, 205.4, 14.0)">n</text><text xml:space="preserve" font-family="Cantarell-Regular" font-size="50.0" fill="#D8D8D8" transform="matrix(1.00, 0.00, -0.00, -1.00, 234.1, 14.0)">a</text><text xml:space="preserve" font-family="Cantarell-Regular" font-size="50.0" fill="#D8D8D8" transform="matrix(1.00, 0.00, -0.00, -1.00, 260.2, 14.0)">l</text></g></svg>