<?xml version="1.0" encoding="UTF-8" standalone="no"?><svg xmlns="http://www.w3.org/2000/svg" xmlns:xlink="http://www.w3.org/1999/xlink" clip-rule="evenodd" stroke-miterlimit="4.00" viewBox="0 0 2048 1536"><desc>SVG generated by Keynote</desc><defs></defs><g transform="matrix(1.00, 0.00, -0.00, -1.00, 0.0, 1536.0)"><g><clipPath id="clip-192"><path d="M 0.0 1536.0 L 2048.0 1536.0 L 2048.0 0.0 L 0.0 0.0 Z M 0.0 1536.0 "></path></clipPath><g clip-path="url(#clip-192)"><image xlink:href="../../D86CBF58-7E78-4651-B102-65535B1DA1EE/assets/EA215432A0DB698A213B0261797CC710.jpeg" width="1024.00" height="768.00" transform="matrix(2.00, 0.00, -0.00, -2.00, 0.0, 1536.0)"></image></g></g><text xml:space="preserve" font-family="Novecentosanswide-Medium" font-size="112.0" fill="#FEFFFF" transform="matrix(1.00, 0.00, -0.00, -1.00, 490.0, 1350.0)">D</text><text xml:space="preserve" font-family="Novecentosanswide-Medium" font-size="112.0" fill="#FEFFFF" transform="matrix(1.00, 0.00, -0.00, -1.00, 568.2, 1350.0)">E</text><text xml:space="preserve" font-family="Novecentosanswide-Medium" font-size="112.0" fill="#FEFFFF" transform="matrix(1.00, 0.00, -0.00, -1.00, 631.7, 1350.0)">P</text><text xml:space="preserve" font-family="Novecentosanswide-Medium" font-size="112.0" fill="#FEFFFF" transform="matrix(1.00, 0.00, -0.00, -1.00, 693.4, 1350.0)">L</text><text xml:space="preserve" font-family="Novecentosanswide-Medium" font-size="112.0" fill="#FEFFFF" transform="matrix(1.00, 0.00, -0.00, -1.00, 747.6, 1350.0)">O</text><text xml:space="preserve" font-family="Novecentosanswide-Medium" font-size="112.0" fill="#FEFFFF" transform="matrix(1.00, 0.00, -0.00, -1.00, 827.3, 1350.0)">Y</text><text xml:space="preserve" font-family="Novecentosanswide-Medium" font-size="112.0" fill="#FEFFFF" transform="matrix(1.00, 0.00, -0.00, -1.00, 898.8, 1350.0)">I</text><text xml:space="preserve" font-family="Novecentosanswide-Medium" font-size="112.0" fill="#FEFFFF" transform="matrix(1.00, 0.00, -0.00, -1.00, 922.6, 1350.0)">N</text><text xml:space="preserve" font-family="Novecentosanswide-Medium" font-size="112.0" fill="#FEFFFF" transform="matrix(1.00, 0.00, -0.00, -1.00, 1000.7, 1350.0)">G</text><text xml:space="preserve" font-family="Novecentosanswide-Medium" font-size="112.0" fill="#FEFFFF" transform="matrix(1.00, 0.00, -0.00, -1.00, 1084.7, 1350.0)"> </text><text xml:space="preserve" font-family="Novecentosanswide-DemiBold" font-weight="bold" font-size="112.0" fill="#01A1D6" transform="matrix(1.00, 0.00, -0.00, -1.00, 1108.5, 1350.0)">D</text><text xml:space="preserve" font-family="Novecentosanswide-DemiBold" font-weight="bold" font-size="112.0" fill="#01A1D6" transform="matrix(1.00, 0.00, -0.00, -1.00, 1188.2, 1350.0)">O</text><text xml:space="preserve" font-family="Novecentosanswide-DemiBold" font-weight="bold" font-size="112.0" fill="#01A1D6" transform="matrix(1.00, 0.00, -0.00, -1.00, 1273.8, 1350.0)">C</text><text xml:space="preserve" font-family="Novecentosanswide-DemiBold" font-weight="bold" font-size="112.0" fill="#01A1D6" transform="matrix(1.00, 0.00, -0.00, -1.00, 1354.2, 1350.0)">K</text><text xml:space="preserve" font-family="Novecentosanswide-DemiBold" font-weight="bold" font-size="112.0" fill="#01A1D6" transform="matrix(1.00, 0.00, -0.00, -1.00, 1426.9, 1350.0)">E</text><text xml:space="preserve" font-family="Novecentosanswide-DemiBold" font-weight="bold" font-size="112.0" fill="#01A1D6" transform="matrix(1.00, 0.00, -0.00, -1.00, 1490.9, 1350.0)">R</text><image xlink:href="../../D86CBF58-7E78-4651-B102-65535B1DA1EE/assets/7AEFD6CB8CCF5ECCEC00E2DFD088389D.png" width="360.00" height="90.00" transform="matrix(1.00, 0.00, -0.00, -1.00, 48.0, 156.0)"></image><text xml:space="preserve" font-family="Novecentosanswide-Medium" font-size="28.0" fill="#84929B" transform="matrix(1.00, 0.00, -0.00, -1.00, 878.0, 105.0)">g</text><text xml:space="preserve" font-family="Novecentosanswide-Medium" font-size="28.0" fill="#84929B" transform="matrix(1.00, 0.00, -0.00, -1.00, 896.8, 105.0)">i</text><text xml:space="preserve" font-family="Novecentosanswide-Medium" font-size="28.0" fill="#84929B" transform="matrix(1.00, 0.00, -0.00, -1.00, 903.6, 105.0)">t</text><text xml:space="preserve" font-family="Novecentosanswide-Medium" font-size="28.0" fill="#84929B" transform="matrix(1.00, 0.00, -0.00, -1.00, 919.1, 105.0)">h</text><text xml:space="preserve" font-family="Novecentosanswide-Medium" font-size="28.0" fill="#84929B" transform="matrix(1.00, 0.00, -0.00, -1.00, 936.4, 105.0)">u</text><text xml:space="preserve" font-family="Novecentosanswide-Medium" font-size="28.0" fill="#84929B" transform="matrix(1.00, 0.00, -0.00, -1.00, 953.8, 105.0)">b</text><text xml:space="preserve" font-family="Novecentosanswide-Medium" font-size="28.0" fill="#84929B" transform="matrix(1.00, 0.00, -0.00, -1.00, 969.1, 105.0)">.</text><text xml:space="preserve" font-family="Novecentosanswide-Medium" font-size="28.0" fill="#84929B" transform="matrix(1.00, 0.00, -0.00, -1.00, 975.2, 105.0)">c</text><text xml:space="preserve" font-family="Novecentosanswide-Medium" font-size="28.0" fill="#84929B" transform="matrix(1.00, 0.00, -0.00, -1.00, 993.1, 105.0)">o</text><text xml:space="preserve" font-family="Novecentosanswide-Medium" font-size="28.0" fill="#84929B" transform="matrix(1.00, 0.00, -0.00, -1.00, 1011.7, 105.0)">m</text><text xml:space="preserve" font-family="Novecentosanswide-Medium" font-size="28.0" fill="#84929B" transform="matrix(1.00, 0.00, -0.00, -1.00, 1031.5, 105.0)">/</text><text xml:space="preserve" font-family="Novecentosanswide-Medium" font-size="28.0" fill="#84929B" transform="matrix(1.00, 0.00, -0.00, -1.00, 1045.7, 105.0)">r</text><text xml:space="preserve" font-family="Novecentosanswide-Medium" font-size="28.0" fill="#84929B" transform="matrix(1.00, 0.00, -0.00, -1.00, 1061.1, 105.0)">e</text><text xml:space="preserve" font-family="Novecentosanswide-Medium" font-size="28.0" fill="#84929B" transform="matrix(1.00, 0.00, -0.00, -1.00, 1075.9, 105.0)">a</text><text xml:space="preserve" font-family="Novecentosanswide-Medium" font-size="28.0" fill="#84929B" transform="matrix(1.00, 0.00, -0.00, -1.00, 1092.9, 105.0)">l</text><text xml:space="preserve" font-family="Novecentosanswide-Medium" font-size="28.0" fill="#84929B" transform="matrix(1.00, 0.00, -0.00, -1.00, 1106.5, 105.0)">p</text><text xml:space="preserve" font-family="Novecentosanswide-Medium" font-size="28.0" fill="#84929B" transform="matrix(1.00, 0.00, -0.00, -1.00, 1119.4, 105.0)">a</text><text xml:space="preserve" font-family="Novecentosanswide-Medium" font-size="28.0" fill="#84929B" transform="matrix(1.00, 0.00, -0.00, -1.00, 1135.7, 105.0)">g</text><text xml:space="preserve" font-family="Novecentosanswide-Medium" font-size="28.0" fill="#84929B" transform="matrix(1.00, 0.00, -0.00, -1.00, 1154.5, 105.0)">e</text><text xml:space="preserve" font-family="Cantarell-Regular" font-size="28.0" fill="#84929B" transform="matrix(1.00, 0.00, -0.00, -1.00, 1169.4, 105.0)"> </text><image xlink:href="../../24215366-D5D1-4DC3-A79C-8430350BB237/assets/555F5C0903E461716EE5E717A5870FC5.png" width="2089.00" height="1013.00" transform="matrix(1.00, 0.00, -0.00, -1.00, -20.3, 994.3)" opacity="0.70"></image><image xlink:href="../../24215366-D5D1-4DC3-A79C-8430350BB237/assets/021A6166966984B3CF740049C0178CC5.png" width="960.00" height="455.00" transform="matrix(2.13, 0.00, -0.00, -2.14, 0.0, 984.0)"></image><g><clipPath id="clip-193"><path d="M 127.9 1012.3 L 683.2 1012.3 L 683.2 1174.3 L 127.9 1174.3 Z M 127.9 1012.3 "></path></clipPath><g clip-path="url(#clip-193)"><text xml:space="preserve" font-family="Novecentosanswide-DemiBold" font-weight="bold" font-size="90.0" fill="#FEFFFF" transform="matrix(1.00, 0.00, -0.00, -1.00, 226.0, 1055.0)">R</text><text xml:space="preserve" font-family="Novecentosanswide-DemiBold" font-weight="bold" font-size="90.0" fill="#FEFFFF" transform="matrix(1.00, 0.00, -0.00, -1.00, 280.0, 1055.0)">a</text><text xml:space="preserve" font-family="Novecentosanswide-DemiBold" font-weight="bold" font-size="90.0" fill="#FEFFFF" transform="matrix(1.00, 0.00, -0.00, -1.00, 331.9, 1055.0)">n</text><text xml:space="preserve" font-family="Novecentosanswide-DemiBold" font-weight="bold" font-size="90.0" fill="#FEFFFF" transform="matrix(1.00, 0.00, -0.00, -1.00, 386.9, 1055.0)">c</text><text xml:space="preserve" font-family="Novecentosanswide-DemiBold" font-weight="bold" font-size="90.0" fill="#FEFFFF" transform="matrix(1.00, 0.00, -0.00, -1.00, 439.9, 1055.0)">h</text><text xml:space="preserve" font-family="Novecentosanswide-DemiBold" font-weight="bold" font-size="90.0" fill="#FEFFFF" transform="matrix(1.00, 0.00, -0.00, -1.00, 492.4, 1055.0)">e</text><text xml:space="preserve" font-family="Novecentosanswide-DemiBold" font-weight="bold" font-size="90.0" fill="#FEFFFF" transform="matrix(1.00, 0.00, -0.00, -1.00, 537.3, 1055.0)">r</text></g></g><g><clipPath id="clip-194"><path d="M 294.3 1110.6 L 1022.6 1110.6 L 1022.6 1260.1 L 294.3 1260.1 Z M 294.3 1110.6 "></path></clipPath><g clip-path="url(#clip-194)"><image xlink:href="../../24215366-D5D1-4DC3-A79C-8430350BB237/assets/A9D659D5B913032B1F2DD32D0CB54091.png" width="729.00" height="149.00" transform="matrix(1.00, 0.00, -0.00, -1.00, 294.0, 1260.0)"></image></g></g><text xml:space="preserve" font-family="Novecentosanswide-Medium" font-size="40.0" fill="#FEFFFF" transform="matrix(1.00, 0.00, -0.00, -1.00, 692.3, 1210.9)">•</text><text xml:space="preserve" font-family="Cantarell-Regular" font-size="40.0" fill="#D8D8D8" transform="matrix(1.00, 0.00, -0.00, -1.00, 751.0, 1212.0)">o</text><text xml:space="preserve" font-family="Cantarell-Regular" font-size="40.0" fill="#D8D8D8" transform="matrix(1.00, 0.00, -0.00, -1.00, 774.7, 1212.0)">p</text><text xml:space="preserve" font-family="Cantarell-Regular" font-size="40.0" fill="#D8D8D8" transform="matrix(1.00, 0.00, -0.00, -1.00, 797.6, 1212.0)">e</text><text xml:space="preserve" font-family="Cantarell-Regular" font-size="40.0" fill="#D8D8D8" transform="matrix(1.00, 0.00, -0.00, -1.00, 819.2, 1212.0)">n</text><text xml:space="preserve" font-family="Cantarell-Regular" font-size="40.0" fill="#D8D8D8" transform="matrix(1.00, 0.00, -0.00, -1.00, 842.1, 1212.0)"> </text><text xml:space="preserve" font-family="Cantarell-Regular" font-size="40.0" fill="#D8D8D8" transform="matrix(1.00, 0.00, -0.00, -1.00, 853.1, 1212.0)">s</text><text xml:space="preserve" font-family="Cantarell-Regular" font-size="40.0" fill="#D8D8D8" transform="matrix(1.00, 0.00, -0.00, -1.00, 872.9, 1212.0)">o</text><text xml:space="preserve" font-family="Cantarell-Regular" font-size="40.0" fill="#D8D8D8" transform="matrix(1.00, 0.00, -0.00, -1.00, 896.6, 1212.0)">u</text><text xml:space="preserve" font-family="Cantarell-Regular" font-size="40.0" fill="#D8D8D8" transform="matrix(1.00, 0.00, -0.00, -1.00, 919.6, 1212.0)">r</text><text xml:space="preserve" font-family="Cantarell-Regular" font-size="40.0" fill="#D8D8D8" transform="matrix(1.00, 0.00, -0.00, -1.00, 935.2, 1212.0)">c</text><text xml:space="preserve" font-family="Cantarell-Regular" font-size="40.0" fill="#D8D8D8" transform="matrix(1.00, 0.00, -0.00, -1.00, 954.8, 1212.0)">e</text><text xml:space="preserve" font-family="Cantarell-Regular" font-size="40.0" fill="#D8D8D8" transform="matrix(1.00, 0.00, -0.00, -1.00, 976.3, 1212.0)">,</text><text xml:space="preserve" font-family="Cantarell-Regular" font-size="40.0" fill="#D8D8D8" transform="matrix(1.00, 0.00, -0.00, -1.00, 987.5, 1212.0)"> </text><text xml:space="preserve" font-family="Cantarell-Regular" font-size="40.0" fill="#D8D8D8" transform="matrix(1.00, 0.00, -0.00, -1.00, 998.4, 1212.0)">e</text><text xml:space="preserve" font-family="Cantarell-Regular" font-size="40.0" fill="#D8D8D8" transform="matrix(1.00, 0.00, -0.00, -1.00, 1019.9, 1212.0)">a</text><text xml:space="preserve" font-family="Cantarell-Regular" font-size="40.0" fill="#D8D8D8" transform="matrix(1.00, 0.00, -0.00, -1.00, 1040.8, 1212.0)">s</text><text xml:space="preserve" font-family="Cantarell-Regular" font-size="40.0" fill="#D8D8D8" transform="matrix(1.00, 0.00, -0.00, -1.00, 1060.7, 1212.0)">y</text><text xml:space="preserve" font-family="Cantarell-Regular" font-size="40.0" fill="#D8D8D8" transform="matrix(1.00, 0.00, -0.00, -1.00, 1081.3, 1212.0)"> </text><text xml:space="preserve" font-family="Cantarell-Regular" font-size="40.0" fill="#D8D8D8" transform="matrix(1.00, 0.00, -0.00, -1.00, 1092.3, 1212.0)">t</text><text xml:space="preserve" font-family="Cantarell-Regular" font-size="40.0" fill="#D8D8D8" transform="matrix(1.00, 0.00, -0.00, -1.00, 1107.5, 1212.0)">o</text><text xml:space="preserve" font-family="Cantarell-Regular" font-size="40.0" fill="#D8D8D8" transform="matrix(1.00, 0.00, -0.00, -1.00, 1131.1, 1212.0)"> </text><text xml:space="preserve" font-family="Cantarell-Regular" font-size="40.0" fill="#D8D8D8" transform="matrix(1.00, 0.00, -0.00, -1.00, 1142.1, 1212.0)">u</text><text xml:space="preserve" font-family="Cantarell-Regular" font-size="40.0" fill="#D8D8D8" transform="matrix(1.00, 0.00, -0.00, -1.00, 1165.0, 1212.0)">s</text><text xml:space="preserve" font-family="Cantarell-Regular" font-size="40.0" fill="#D8D8D8" transform="matrix(1.00, 0.00, -0.00, -1.00, 1184.9, 1212.0)">e</text><text xml:space="preserve" font-family="Cantarell-Regular" font-size="40.0" fill="#D8D8D8" transform="matrix(1.00, 0.00, -0.00, -1.00, 1206.4, 1212.0)"> </text><text xml:space="preserve" font-family="Cantarell-Regular" font-size="40.0" fill="#D8D8D8" transform="matrix(1.00, 0.00, -0.00, -1.00, 1217.4, 1212.0)">u</text><text xml:space="preserve" font-family="Cantarell-Regular" font-size="40.0" fill="#D8D8D8" transform="matrix(1.00, 0.00, -0.00, -1.00, 1240.4, 1212.0)">s</text><text xml:space="preserve" font-family="Cantarell-Regular" font-size="40.0" fill="#D8D8D8" transform="matrix(1.00, 0.00, -0.00, -1.00, 1260.2, 1212.0)">e</text><text xml:space="preserve" font-family="Cantarell-Regular" font-size="40.0" fill="#D8D8D8" transform="matrix(1.00, 0.00, -0.00, -1.00, 1281.7, 1212.0)">r</text><text xml:space="preserve" font-family="Cantarell-Regular" font-size="40.0" fill="#D8D8D8" transform="matrix(1.00, 0.00, -0.00, -1.00, 1297.4, 1212.0)"> </text><text xml:space="preserve" font-family="Cantarell-Regular" font-size="40.0" fill="#D8D8D8" transform="matrix(1.00, 0.00, -0.00, -1.00, 1308.3, 1212.0)">i</text><text xml:space="preserve" font-family="Cantarell-Regular" font-size="40.0" fill="#D8D8D8" transform="matrix(1.00, 0.00, -0.00, -1.00, 1318.6, 1212.0)">n</text><text xml:space="preserve" font-family="Cantarell-Regular" font-size="40.0" fill="#D8D8D8" transform="matrix(1.00, 0.00, -0.00, -1.00, 1341.5, 1212.0)">t</text><text xml:space="preserve" font-family="Cantarell-Regular" font-size="40.0" fill="#D8D8D8" transform="matrix(1.00, 0.00, -0.00, -1.00, 1356.7, 1212.0)">e</text><text xml:space="preserve" font-family="Cantarell-Regular" font-size="40.0" fill="#D8D8D8" transform="matrix(1.00, 0.00, -0.00, -1.00, 1378.2, 1212.0)">r</text><text xml:space="preserve" font-family="Cantarell-Regular" font-size="40.0" fill="#D8D8D8" transform="matrix(1.00, 0.00, -0.00, -1.00, 1393.9, 1212.0)">f</text><text xml:space="preserve" font-family="Cantarell-Regular" font-size="40.0" fill="#D8D8D8" transform="matrix(1.00, 0.00, -0.00, -1.00, 1409.9, 1212.0)">a</text><text xml:space="preserve" font-family="Cantarell-Regular" font-size="40.0" fill="#D8D8D8" transform="matrix(1.00, 0.00, -0.00, -1.00, 1430.8, 1212.0)">c</text><text xml:space="preserve" font-family="Cantarell-Regular" font-size="40.0" fill="#D8D8D8" transform="matrix(1.00, 0.00, -0.00, -1.00, 1450.3, 1212.0)">e</text><text xml:space="preserve" font-family="Cantarell-Regular" font-size="40.0" fill="#D8D8D8" transform="matrix(1.00, 0.00, -0.00, -1.00, 1471.8, 1212.0)"> </text><text xml:space="preserve" font-family="Cantarell-Regular" font-size="40.0" fill="#D8D8D8" transform="matrix(1.00, 0.00, -0.00, -1.00, 1482.8, 1212.0)">f</text><text xml:space="preserve" font-family="Cantarell-Regular" font-size="40.0" fill="#D8D8D8" transform="matrix(1.00, 0.00, -0.00, -1.00, 1498.8, 1212.0)">o</text><text xml:space="preserve" font-family="Cantarell-Regular" font-size="40.0" fill="#D8D8D8" transform="matrix(1.00, 0.00, -0.00, -1.00, 1522.5, 1212.0)">r</text><text xml:space="preserve" font-family="Cantarell-Regular" font-size="40.0" fill="#D8D8D8" transform="matrix(1.00, 0.00, -0.00, -1.00, 1538.1, 1212.0)"> </text><text xml:space="preserve" font-family="Cantarell-Regular" font-size="40.0" fill="#D8D8D8" transform="matrix(1.00, 0.00, -0.00, -1.00, 1549.1, 1212.0)">m</text><text xml:space="preserve" font-family="Cantarell-Regular" font-size="40.0" fill="#D8D8D8" transform="matrix(1.00, 0.00, -0.00, -1.00, 1583.0, 1212.0)">a</text><text xml:space="preserve" font-family="Cantarell-Regular" font-size="40.0" fill="#D8D8D8" transform="matrix(1.00, 0.00, -0.00, -1.00, 1603.8, 1212.0)">n</text><text xml:space="preserve" font-family="Cantarell-Regular" font-size="40.0" fill="#D8D8D8" transform="matrix(1.00, 0.00, -0.00, -1.00, 1626.8, 1212.0)">a</text><text xml:space="preserve" font-family="Cantarell-Regular" font-size="40.0" fill="#D8D8D8" transform="matrix(1.00, 0.00, -0.00, -1.00, 1647.7, 1212.0)">g</text><text xml:space="preserve" font-family="Cantarell-Regular" font-size="40.0" fill="#D8D8D8" transform="matrix(1.00, 0.00, -0.00, -1.00, 1670.7, 1212.0)">i</text><text xml:space="preserve" font-family="Cantarell-Regular" font-size="40.0" fill="#D8D8D8" transform="matrix(1.00, 0.00, -0.00, -1.00, 1680.9, 1212.0)">n</text><text xml:space="preserve" font-family="Cantarell-Regular" font-size="40.0" fill="#D8D8D8" transform="matrix(1.00, 0.00, -0.00, -1.00, 1703.9, 1212.0)">g</text><text xml:space="preserve" font-family="Cantarell-Regular" font-size="40.0" fill="#D8D8D8" transform="matrix(1.00, 0.00, -0.00, -1.00, 1726.8, 1212.0)"> </text><text xml:space="preserve" font-family="Cantarell-Regular" font-size="40.0" fill="#D8D8D8" transform="matrix(1.00, 0.00, -0.00, -1.00, 1737.8, 1212.0)">D</text><text xml:space="preserve" font-family="Cantarell-Regular" font-size="40.0" fill="#D8D8D8" transform="matrix(1.00, 0.00, -0.00, -1.00, 1769.2, 1212.0)">o</text><text xml:space="preserve" font-family="Cantarell-Regular" font-size="40.0" fill="#D8D8D8" transform="matrix(1.00, 0.00, -0.00, -1.00, 1792.8, 1212.0)">c</text><text xml:space="preserve" font-family="Cantarell-Regular" font-size="40.0" fill="#D8D8D8" transform="matrix(1.00, 0.00, -0.00, -1.00, 1812.4, 1212.0)">k</text><text xml:space="preserve" font-family="Cantarell-Regular" font-size="40.0" fill="#D8D8D8" transform="matrix(1.00, 0.00, -0.00, -1.00, 1833.3, 1212.0)">e</text><text xml:space="preserve" font-family="Cantarell-Regular" font-size="40.0" fill="#D8D8D8" transform="matrix(1.00, 0.00, -0.00, -1.00, 1854.9, 1212.0)">r</text><text xml:space="preserve" font-family="Novecentosanswide-Medium" font-size="40.0" fill="#FEFFFF" transform="matrix(1.00, 0.00, -0.00, -1.00, 692.3, 1137.9)">•</text><text xml:space="preserve" font-family="Cantarell-Regular" font-size="40.0" fill="#D8D8D8" transform="matrix(1.00, 0.00, -0.00, -1.00, 751.0, 1139.0)">s</text><text xml:space="preserve" font-family="Cantarell-Regular" font-size="40.0" fill="#D8D8D8" transform="matrix(1.00, 0.00, -0.00, -1.00, 770.8, 1139.0)">i</text><text xml:space="preserve" font-family="Cantarell-Regular" font-size="40.0" fill="#D8D8D8" transform="matrix(1.00, 0.00, -0.00, -1.00, 781.1, 1139.0)">n</text><text xml:space="preserve" font-family="Cantarell-Regular" font-size="40.0" fill="#D8D8D8" transform="matrix(1.00, 0.00, -0.00, -1.00, 804.1, 1139.0)">g</text><text xml:space="preserve" font-family="Cantarell-Regular" font-size="40.0" fill="#D8D8D8" transform="matrix(1.00, 0.00, -0.00, -1.00, 827.0, 1139.0)">l</text><text xml:space="preserve" font-family="Cantarell-Regular" font-size="40.0" fill="#D8D8D8" transform="matrix(1.00, 0.00, -0.00, -1.00, 838.1, 1139.0)">e</text><text xml:space="preserve" font-family="Cantarell-Regular" font-size="40.0" fill="#D8D8D8" transform="matrix(1.00, 0.00, -0.00, -1.00, 859.6, 1139.0)"> </text><text xml:space="preserve" font-family="Cantarell-Regular" font-size="40.0" fill="#D8D8D8" transform="matrix(1.00, 0.00, -0.00, -1.00, 870.5, 1139.0)">p</text><text xml:space="preserve" font-family="Cantarell-Regular" font-size="40.0" fill="#D8D8D8" transform="matrix(1.00, 0.00, -0.00, -1.00, 893.5, 1139.0)">r</text><text xml:space="preserve" font-family="Cantarell-Regular" font-size="40.0" fill="#D8D8D8" transform="matrix(1.00, 0.00, -0.00, -1.00, 909.2, 1139.0)">o</text><text xml:space="preserve" font-family="Cantarell-Regular" font-size="40.0" fill="#D8D8D8" transform="matrix(1.00, 0.00, -0.00, -1.00, 932.8, 1139.0)">c</text><text xml:space="preserve" font-family="Cantarell-Regular" font-size="40.0" fill="#D8D8D8" transform="matrix(1.00, 0.00, -0.00, -1.00, 952.4, 1139.0)">e</text><text xml:space="preserve" font-family="Cantarell-Regular" font-size="40.0" fill="#D8D8D8" transform="matrix(1.00, 0.00, -0.00, -1.00, 973.9, 1139.0)">s</text><text xml:space="preserve" font-family="Cantarell-Regular" font-size="40.0" fill="#D8D8D8" transform="matrix(1.00, 0.00, -0.00, -1.00, 993.8, 1139.0)">s</text><text xml:space="preserve" font-family="Cantarell-Regular" font-size="40.0" fill="#D8D8D8" transform="matrix(1.00, 0.00, -0.00, -1.00, 1013.6, 1139.0)"> </text><text xml:space="preserve" font-family="Cantarell-Regular" font-size="40.0" fill="#D8D8D8" transform="matrix(1.00, 0.00, -0.00, -1.00, 1024.6, 1139.0)">c</text><text xml:space="preserve" font-family="Cantarell-Regular" font-size="40.0" fill="#D8D8D8" transform="matrix(1.00, 0.00, -0.00, -1.00, 1044.1, 1139.0)">o</text><text xml:space="preserve" font-family="Cantarell-Regular" font-size="40.0" fill="#D8D8D8" transform="matrix(1.00, 0.00, -0.00, -1.00, 1067.8, 1139.0)">n</text><text xml:space="preserve" font-family="Cantarell-Regular" font-size="40.0" fill="#D8D8D8" transform="matrix(1.00, 0.00, -0.00, -1.00, 1090.7, 1139.0)">t</text><text xml:space="preserve" font-family="Cantarell-Regular" font-size="40.0" fill="#D8D8D8" transform="matrix(1.00, 0.00, -0.00, -1.00, 1105.9, 1139.0)">a</text><text xml:space="preserve" font-family="Cantarell-Regular" font-size="40.0" fill="#D8D8D8" transform="matrix(1.00, 0.00, -0.00, -1.00, 1126.8, 1139.0)">i</text><text xml:space="preserve" font-family="Cantarell-Regular" font-size="40.0" fill="#D8D8D8" transform="matrix(1.00, 0.00, -0.00, -1.00, 1137.0, 1139.0)">n</text><text xml:space="preserve" font-family="Cantarell-Regular" font-size="40.0" fill="#D8D8D8" transform="matrix(1.00, 0.00, -0.00, -1.00, 1160.0, 1139.0)">e</text><text xml:space="preserve" font-family="Cantarell-Regular" font-size="40.0" fill="#D8D8D8" transform="matrix(1.00, 0.00, -0.00, -1.00, 1181.5, 1139.0)">r</text><text xml:space="preserve" font-family="Cantarell-Regular" font-size="40.0" fill="#D8D8D8" transform="matrix(1.00, 0.00, -0.00, -1.00, 1197.2, 1139.0)">s</text><text xml:space="preserve" font-family="Cantarell-Regular" font-size="40.0" fill="#D8D8D8" transform="matrix(1.00, 0.00, -0.00, -1.00, 1217.0, 1139.0)"> </text><text xml:space="preserve" font-family="Cantarell-Regular" font-size="40.0" fill="#D8D8D8" transform="matrix(1.00, 0.00, -0.00, -1.00, 1228.0, 1139.0)">f</text><text xml:space="preserve" font-family="Cantarell-Regular" font-size="40.0" fill="#D8D8D8" transform="matrix(1.00, 0.00, -0.00, -1.00, 1244.0, 1139.0)">o</text><text xml:space="preserve" font-family="Cantarell-Regular" font-size="40.0" fill="#D8D8D8" transform="matrix(1.00, 0.00, -0.00, -1.00, 1267.6, 1139.0)">r</text><text xml:space="preserve" font-family="Cantarell-Regular" font-size="40.0" fill="#D8D8D8" transform="matrix(1.00, 0.00, -0.00, -1.00, 1283.3, 1139.0)"> </text><text xml:space="preserve" font-family="Cantarell-Regular" font-size="40.0" fill="#D8D8D8" transform="matrix(1.00, 0.00, -0.00, -1.00, 1294.3, 1139.0)">e</text><text xml:space="preserve" font-family="Cantarell-Regular" font-size="40.0" fill="#D8D8D8" transform="matrix(1.00, 0.00, -0.00, -1.00, 1315.8, 1139.0)">a</text><text xml:space="preserve" font-family="Cantarell-Regular" font-size="40.0" fill="#D8D8D8" transform="matrix(1.00, 0.00, -0.00, -1.00, 1336.7, 1139.0)">s</text><text xml:space="preserve" font-family="Cantarell-Regular" font-size="40.0" fill="#D8D8D8" transform="matrix(1.00, 0.00, -0.00, -1.00, 1356.5, 1139.0)">y</text><text xml:space="preserve" font-family="Cantarell-Regular" font-size="40.0" fill="#D8D8D8" transform="matrix(1.00, 0.00, -0.00, -1.00, 1377.2, 1139.0)"> </text><text xml:space="preserve" font-family="Cantarell-Regular" font-size="40.0" fill="#D8D8D8" transform="matrix(1.00, 0.00, -0.00, -1.00, 1388.1, 1139.0)">h</text><text xml:space="preserve" font-family="Cantarell-Regular" font-size="40.0" fill="#D8D8D8" transform="matrix(1.00, 0.00, -0.00, -1.00, 1411.4, 1139.0)">o</text><text xml:space="preserve" font-family="Cantarell-Regular" font-size="40.0" fill="#D8D8D8" transform="matrix(1.00, 0.00, -0.00, -1.00, 1435.1, 1139.0)">r</text><text xml:space="preserve" font-family="Cantarell-Regular" font-size="40.0" fill="#D8D8D8" transform="matrix(1.00, 0.00, -0.00, -1.00, 1450.7, 1139.0)">i</text><text xml:space="preserve" font-family="Cantarell-Regular" font-size="40.0" fill="#D8D8D8" transform="matrix(1.00, 0.00, -0.00, -1.00, 1460.9, 1139.0)">z</text><text xml:space="preserve" font-family="Cantarell-Regular" font-size="40.0" fill="#D8D8D8" transform="matrix(1.00, 0.00, -0.00, -1.00, 1482.0, 1139.0)">o</text><text xml:space="preserve" font-family="Cantarell-Regular" font-size="40.0" fill="#D8D8D8" transform="matrix(1.00, 0.00, -0.00, -1.00, 1505.7, 1139.0)">n</text><text xml:space="preserve" font-family="Cantarell-Regular" font-size="40.0" fill="#D8D8D8" transform="matrix(1.00, 0.00, -0.00, -1.00, 1528.6, 1139.0)">t</text><text xml:space="preserve" font-family="Cantarell-Regular" font-size="40.0" fill="#D8D8D8" transform="matrix(1.00, 0.00, -0.00, -1.00, 1543.8, 1139.0)">a</text><text xml:space="preserve" font-family="Cantarell-Regular" font-size="40.0" fill="#D8D8D8" transform="matrix(1.00, 0.00, -0.00, -1.00, 1564.7, 1139.0)">l</text><text xml:space="preserve" font-family="Cantarell-Regular" font-size="40.0" fill="#D8D8D8" transform="matrix(1.00, 0.00, -0.00, -1.00, 1575.7, 1139.0)"> </text><text xml:space="preserve" font-family="Cantarell-Regular" font-size="40.0" fill="#D8D8D8" transform="matrix(1.00, 0.00, -0.00, -1.00, 1586.7, 1139.0)">s</text><text xml:space="preserve" font-family="Cantarell-Regular" font-size="40.0" fill="#D8D8D8" transform="matrix(1.00, 0.00, -0.00, -1.00, 1606.5, 1139.0)">c</text><text xml:space="preserve" font-family="Cantarell-Regular" font-size="40.0" fill="#D8D8D8" transform="matrix(1.00, 0.00, -0.00, -1.00, 1626.0, 1139.0)">a</text><text xml:space="preserve" font-family="Cantarell-Regular" font-size="40.0" fill="#D8D8D8" transform="matrix(1.00, 0.00, -0.00, -1.00, 1646.9, 1139.0)">l</text><text xml:space="preserve" font-family="Cantarell-Regular" font-size="40.0" fill="#D8D8D8" transform="matrix(1.00, 0.00, -0.00, -1.00, 1658.0, 1139.0)">i</text><text xml:space="preserve" font-family="Cantarell-Regular" font-size="40.0" fill="#D8D8D8" transform="matrix(1.00, 0.00, -0.00, -1.00, 1668.2, 1139.0)">n</text><text xml:space="preserve" font-family="Cantarell-Regular" font-size="40.0" fill="#D8D8D8" transform="matrix(1.00, 0.00, -0.00, -1.00, 1691.2, 1139.0)">g</text><text xml:space="preserve" font-family="Novecentosanswide-Medium" font-size="40.0" fill="#FEFFFF" transform="matrix(1.00, 0.00, -0.00, -1.00, 692.3, 1064.9)">•</text><text xml:space="preserve" font-family="Cantarell-Regular" font-size="40.0" fill="#D8D8D8" transform="matrix(1.00, 0.00, -0.00, -1.00, 751.0, 1066.0)">e</text><text xml:space="preserve" font-family="Cantarell-Regular" font-size="40.0" fill="#D8D8D8" transform="matrix(1.00, 0.00, -0.00, -1.00, 772.5, 1066.0)">x</text><text xml:space="preserve" font-family="Cantarell-Regular" font-size="40.0" fill="#D8D8D8" transform="matrix(1.00, 0.00, -0.00, -1.00, 793.0, 1066.0)">a</text><text xml:space="preserve" font-family="Cantarell-Regular" font-size="40.0" fill="#D8D8D8" transform="matrix(1.00, 0.00, -0.00, -1.00, 813.9, 1066.0)">m</text><text xml:space="preserve" font-family="Cantarell-Regular" font-size="40.0" fill="#D8D8D8" transform="matrix(1.00, 0.00, -0.00, -1.00, 847.7, 1066.0)">p</text><text xml:space="preserve" font-family="Cantarell-Regular" font-size="40.0" fill="#D8D8D8" transform="matrix(1.00, 0.00, -0.00, -1.00, 870.7, 1066.0)">l</text><text xml:space="preserve" font-family="Cantarell-Regular" font-size="40.0" fill="#D8D8D8" transform="matrix(1.00, 0.00, -0.00, -1.00, 881.7, 1066.0)">e</text><text xml:space="preserve" font-family="Cantarell-Regular" font-size="40.0" fill="#D8D8D8" transform="matrix(1.00, 0.00, -0.00, -1.00, 903.3, 1066.0)"> </text><text xml:space="preserve" font-family="Cantarell-Regular" font-size="40.0" fill="#D8D8D8" transform="matrix(1.00, 0.00, -0.00, -1.00, 914.2, 1066.0)">c</text><text xml:space="preserve" font-family="Cantarell-Regular" font-size="40.0" fill="#D8D8D8" transform="matrix(1.00, 0.00, -0.00, -1.00, 933.7, 1066.0)">o</text><text xml:space="preserve" font-family="Cantarell-Regular" font-size="40.0" fill="#D8D8D8" transform="matrix(1.00, 0.00, -0.00, -1.00, 957.4, 1066.0)">n</text><text xml:space="preserve" font-family="Cantarell-Regular" font-size="40.0" fill="#D8D8D8" transform="matrix(1.00, 0.00, -0.00, -1.00, 980.4, 1066.0)">f</text><text xml:space="preserve" font-family="Cantarell-Regular" font-size="40.0" fill="#D8D8D8" transform="matrix(1.00, 0.00, -0.00, -1.00, 996.4, 1066.0)">i</text><text xml:space="preserve" font-family="Cantarell-Regular" font-size="40.0" fill="#D8D8D8" transform="matrix(1.00, 0.00, -0.00, -1.00, 1006.7, 1066.0)">g</text><text xml:space="preserve" font-family="Cantarell-Regular" font-size="40.0" fill="#D8D8D8" transform="matrix(1.00, 0.00, -0.00, -1.00, 1029.6, 1066.0)"> </text><text xml:space="preserve" font-family="Cantarell-Regular" font-size="40.0" fill="#D8D8D8" transform="matrix(1.00, 0.00, -0.00, -1.00, 1040.6, 1066.0)">i</text><text xml:space="preserve" font-family="Cantarell-Regular" font-size="40.0" fill="#D8D8D8" transform="matrix(1.00, 0.00, -0.00, -1.00, 1050.8, 1066.0)">n</text><text xml:space="preserve" font-family="Cantarell-Regular" font-size="40.0" fill="#D8D8D8" transform="matrix(1.00, 0.00, -0.00, -1.00, 1073.8, 1066.0)">c</text><text xml:space="preserve" font-family="Cantarell-Regular" font-size="40.0" fill="#D8D8D8" transform="matrix(1.00, 0.00, -0.00, -1.00, 1093.3, 1066.0)">l</text><text xml:space="preserve" font-family="Cantarell-Regular" font-size="40.0" fill="#D8D8D8" transform="matrix(1.00, 0.00, -0.00, -1.00, 1104.4, 1066.0)">u</text><text xml:space="preserve" font-family="Cantarell-Regular" font-size="40.0" fill="#D8D8D8" transform="matrix(1.00, 0.00, -0.00, -1.00, 1127.3, 1066.0)">d</text><text xml:space="preserve" font-family="Cantarell-Regular" font-size="40.0" fill="#D8D8D8" transform="matrix(1.00, 0.00, -0.00, -1.00, 1150.5, 1066.0)">e</text><text xml:space="preserve" font-family="Cantarell-Regular" font-size="40.0" fill="#D8D8D8" transform="matrix(1.00, 0.00, -0.00, -1.00, 1172.1, 1066.0)">d</text><text xml:space="preserve" font-family="Cantarell-Regular" font-size="40.0" fill="#D8D8D8" transform="matrix(1.00, 0.00, -0.00, -1.00, 1195.3, 1066.0)"> </text><text xml:space="preserve" font-family="Cantarell-Regular" font-size="40.0" fill="#D8D8D8" transform="matrix(1.00, 0.00, -0.00, -1.00, 1206.2, 1066.0)">i</text><text xml:space="preserve" font-family="Cantarell-Regular" font-size="40.0" fill="#D8D8D8" transform="matrix(1.00, 0.00, -0.00, -1.00, 1216.5, 1066.0)">n</text><text xml:space="preserve" font-family="Cantarell-Regular" font-size="40.0" fill="#D8D8D8" transform="matrix(1.00, 0.00, -0.00, -1.00, 1239.4, 1066.0)"> </text><text xml:space="preserve" font-family="Cantarell-Regular" font-size="40.0" fill="#D8D8D8" transform="matrix(1.00, 0.00, -0.00, -1.00, 1250.4, 1066.0)">t</text><text xml:space="preserve" font-family="Cantarell-Regular" font-size="40.0" fill="#D8D8D8" transform="matrix(1.00, 0.00, -0.00, -1.00, 1265.5, 1066.0)">h</text><text xml:space="preserve" font-family="Cantarell-Regular" font-size="40.0" fill="#D8D8D8" transform="matrix(1.00, 0.00, -0.00, -1.00, 1288.8, 1066.0)">e</text><text xml:space="preserve" font-family="Cantarell-Regular" font-size="40.0" fill="#D8D8D8" transform="matrix(1.00, 0.00, -0.00, -1.00, 1310.3, 1066.0)"> </text><text xml:space="preserve" font-family="Cantarell-Regular" font-size="40.0" fill="#D8D8D8" transform="matrix(1.00, 0.00, -0.00, -1.00, 1321.3, 1066.0)">s</text><text xml:space="preserve" font-family="Cantarell-Regular" font-size="40.0" fill="#D8D8D8" transform="matrix(1.00, 0.00, -0.00, -1.00, 1341.1, 1066.0)">t</text><text xml:space="preserve" font-family="Cantarell-Regular" font-size="40.0" fill="#D8D8D8" transform="matrix(1.00, 0.00, -0.00, -1.00, 1356.3, 1066.0)">a</text><text xml:space="preserve" font-family="Cantarell-Regular" font-size="40.0" fill="#D8D8D8" transform="matrix(1.00, 0.00, -0.00, -1.00, 1377.2, 1066.0)">r</text><text xml:space="preserve" font-family="Cantarell-Regular" font-size="40.0" fill="#D8D8D8" transform="matrix(1.00, 0.00, -0.00, -1.00, 1392.8, 1066.0)">t</text><text xml:space="preserve" font-family="Cantarell-Regular" font-size="40.0" fill="#D8D8D8" transform="matrix(1.00, 0.00, -0.00, -1.00, 1408.0, 1066.0)">e</text><text xml:space="preserve" font-family="Cantarell-Regular" font-size="40.0" fill="#D8D8D8" transform="matrix(1.00, 0.00, -0.00, -1.00, 1429.5, 1066.0)">r</text><text xml:space="preserve" font-family="Cantarell-Regular" font-size="40.0" fill="#D8D8D8" transform="matrix(1.00, 0.00, -0.00, -1.00, 1445.1, 1066.0)"> </text><text xml:space="preserve" font-family="Cantarell-Regular" font-size="40.0" fill="#D8D8D8" transform="matrix(1.00, 0.00, -0.00, -1.00, 1456.1, 1066.0)">r</text><text xml:space="preserve" font-family="Cantarell-Regular" font-size="40.0" fill="#D8D8D8" transform="matrix(1.00, 0.00, -0.00, -1.00, 1471.7, 1066.0)">e</text><text xml:space="preserve" font-family="Cantarell-Regular" font-size="40.0" fill="#D8D8D8" transform="matrix(1.00, 0.00, -0.00, -1.00, 1493.3, 1066.0)">p</text><text xml:space="preserve" font-family="Cantarell-Regular" font-size="40.0" fill="#D8D8D8" transform="matrix(1.00, 0.00, -0.00, -1.00, 1516.2, 1066.0)">o</text></g></svg>