<?xml version="1.0" encoding="UTF-8" standalone="no"?><svg xmlns="http://www.w3.org/2000/svg" xmlns:xlink="http://www.w3.org/1999/xlink" clip-rule="evenodd" stroke-miterlimit="4.00" viewBox="0 0 2048 1536"><desc>SVG generated by Keynote</desc><defs></defs><g transform="matrix(1.00, 0.00, -0.00, -1.00, 0.0, 1536.0)"><g><clipPath id="clip-202"><path d="M 0.0 1536.0 L 2048.0 1536.0 L 2048.0 0.0 L 0.0 0.0 Z M 0.0 1536.0 "></path></clipPath><g clip-path="url(#clip-202)"><image xlink:href="../../D86CBF58-7E78-4651-B102-65535B1DA1EE/assets/EA215432A0DB698A213B0261797CC710.jpeg" width="1024.00" height="768.00" transform="matrix(2.00, 0.00, -0.00, -2.00, 0.0, 1536.0)"></image></g></g><g><clipPath id="clip-203"><path d="M -1.0 220.9 L 929.8 220.9 L 929.8 1282.2 L -1.0 1282.2 Z M -1.0 220.9 "></path></clipPath><g clip-path="url(#clip-203)"><path d="M 399.2 1281.2 C 691.7 1281.2 928.8 1044.1 928.8 751.5 C 928.8 459.0 691.7 221.9 399.2 221.9 C 239.7 221.9 96.7 292.3 0.0 404.1 L 0.0 1099.0 C 96.7 1210.7 239.7 1281.2 399.2 1281.2 Z M 399.2 1281.2 " fill="#01A1D6"></path></g></g><g><clipPath id="clip-204"><path d="M 16.8 542.5 L 873.2 542.5 L 873.2 1034.1 L 16.8 1034.1 Z M 16.8 542.5 "></path></clipPath><g clip-path="url(#clip-204)"><text xml:space="preserve" font-family="Novecentosanswide-Medium" font-size="124.0" fill="#FEFFFF" transform="matrix(1.00, 0.00, -0.00, -1.00, 54.0, 870.0)">Q</text><text xml:space="preserve" font-family="Novecentosanswide-Medium" font-size="124.0" fill="#FEFFFF" transform="matrix(1.00, 0.00, -0.00, -1.00, 153.7, 870.0)">U</text><text xml:space="preserve" font-family="Novecentosanswide-Medium" font-size="124.0" fill="#FEFFFF" transform="matrix(1.00, 0.00, -0.00, -1.00, 240.6, 870.0)">E</text><text xml:space="preserve" font-family="Novecentosanswide-Medium" font-size="124.0" fill="#FEFFFF" transform="matrix(1.00, 0.00, -0.00, -1.00, 315.5, 870.0)">S</text><text xml:space="preserve" font-family="Novecentosanswide-Medium" font-size="124.0" fill="#FEFFFF" transform="matrix(1.00, 0.00, -0.00, -1.00, 388.6, 870.0)">T</text><text xml:space="preserve" font-family="Novecentosanswide-Medium" font-size="124.0" fill="#FEFFFF" transform="matrix(1.00, 0.00, -0.00, -1.00, 468.4, 870.0)">I</text><text xml:space="preserve" font-family="Novecentosanswide-Medium" font-size="124.0" fill="#FEFFFF" transform="matrix(1.00, 0.00, -0.00, -1.00, 499.4, 870.0)">O</text><text xml:space="preserve" font-family="Novecentosanswide-Medium" font-size="124.0" fill="#FEFFFF" transform="matrix(1.00, 0.00, -0.00, -1.00, 598.5, 870.0)">N</text><text xml:space="preserve" font-family="Novecentosanswide-Medium" font-size="124.0" fill="#FEFFFF" transform="matrix(1.00, 0.00, -0.00, -1.00, 689.6, 870.0)">S</text><text xml:space="preserve" font-family="Cantarell-Regular" font-size="50.0" fill="#009ED8" transform="matrix(1.00, 0.00, -0.00, -1.00, 764.5, 870.0)"> </text><text xml:space="preserve" font-family="Novecentosanswide-Medium" font-size="124.0" fill="#FEFFFF" transform="matrix(1.00, 0.00, -0.00, -1.00, 54.0, 736.0)"> </text><text xml:space="preserve" font-family="Novecentosanswide-Medium" font-size="124.0" fill="#FEFFFF" transform="matrix(1.00, 0.00, -0.00, -1.00, 85.0, 736.0)">a</text><text xml:space="preserve" font-family="Novecentosanswide-Medium" font-size="124.0" fill="#FEFFFF" transform="matrix(1.00, 0.00, -0.00, -1.00, 160.0, 736.0)">n</text><text xml:space="preserve" font-family="Novecentosanswide-Medium" font-size="124.0" fill="#FEFFFF" transform="matrix(1.00, 0.00, -0.00, -1.00, 239.3, 736.0)">d</text><text xml:space="preserve" font-family="Cantarell-Regular" font-size="50.0" fill="#009ED8" transform="matrix(1.00, 0.00, -0.00, -1.00, 316.3, 736.0)"> </text><text xml:space="preserve" font-family="Novecentosanswide-Medium" font-size="124.0" fill="#FEFFFF" transform="matrix(1.00, 0.00, -0.00, -1.00, 54.0, 602.0)">A</text><text xml:space="preserve" font-family="Novecentosanswide-Medium" font-size="124.0" fill="#FEFFFF" transform="matrix(1.00, 0.00, -0.00, -1.00, 145.8, 602.0)">N</text><text xml:space="preserve" font-family="Novecentosanswide-Medium" font-size="124.0" fill="#FEFFFF" transform="matrix(1.00, 0.00, -0.00, -1.00, 236.9, 602.0)">S</text><text xml:space="preserve" font-family="Novecentosanswide-Medium" font-size="124.0" fill="#FEFFFF" transform="matrix(1.00, 0.00, -0.00, -1.00, 311.8, 602.0)">W</text><text xml:space="preserve" font-family="Novecentosanswide-Medium" font-size="124.0" fill="#FEFFFF" transform="matrix(1.00, 0.00, -0.00, -1.00, 436.3, 602.0)">E</text><text xml:space="preserve" font-family="Novecentosanswide-Medium" font-size="124.0" fill="#FEFFFF" transform="matrix(1.00, 0.00, -0.00, -1.00, 511.2, 602.0)">R</text><text xml:space="preserve" font-family="Novecentosanswide-Medium" font-size="124.0" fill="#FEFFFF" transform="matrix(1.00, 0.00, -0.00, -1.00, 587.6, 602.0)">S</text></g></g><g><clipPath id="clip-205"><path d="M 260.6 943.3 L 562.4 943.3 L 562.4 1275.1 L 260.6 1275.1 Z M 260.6 943.3 "></path></clipPath><g clip-path="url(#clip-205)"></g></g><path d="M 976.7 770.7 C 1002.4 744.9 1002.4 703.1 976.7 677.3 C 950.9 651.6 909.1 651.6 883.3 677.3 C 857.6 703.1 857.6 744.9 883.3 770.7 C 909.1 796.4 950.9 796.4 976.7 770.7 " fill="#72808A"></path><g><clipPath id="clip-206"><path d="M 860.6 658.0 L 999.4 658.0 L 999.4 790.0 L 860.6 790.0 Z M 860.6 658.0 "></path></clipPath><g clip-path="url(#clip-206)"></g></g><text xml:space="preserve" font-family="Cantarell-Regular" font-size="56.0" fill="#FEFFFF" transform="matrix(1.00, 0.00, -0.00, -1.00, 1044.0, 790.0)">B</text><text xml:space="preserve" font-family="Cantarell-Regular" font-size="56.0" fill="#FEFFFF" transform="matrix(1.00, 0.00, -0.00, -1.00, 1083.0, 790.0)">e</text><text xml:space="preserve" font-family="Cantarell-Regular" font-size="56.0" fill="#FEFFFF" transform="matrix(1.00, 0.00, -0.00, -1.00, 1113.1, 790.0)">n</text><text xml:space="preserve" font-family="Cantarell-Regular" font-size="56.0" fill="#FEFFFF" transform="matrix(1.00, 0.00, -0.00, -1.00, 1145.3, 790.0)"> </text><text xml:space="preserve" font-family="Cantarell-Regular" font-size="56.0" fill="#FEFFFF" transform="matrix(1.00, 0.00, -0.00, -1.00, 1160.6, 790.0)">K</text><text xml:space="preserve" font-family="Cantarell-Regular" font-size="56.0" fill="#FEFFFF" transform="matrix(1.00, 0.00, -0.00, -1.00, 1199.4, 790.0)">u</text><text xml:space="preserve" font-family="Cantarell-Regular" font-size="56.0" fill="#FEFFFF" transform="matrix(1.00, 0.00, -0.00, -1.00, 1231.5, 790.0)">h</text><text xml:space="preserve" font-family="Cantarell-Regular" font-size="56.0" fill="#FEFFFF" transform="matrix(1.00, 0.00, -0.00, -1.00, 1264.0, 790.0)">l</text><text xml:space="preserve" font-family="Cantarell-Regular" font-size="50.0" fill="#009ED8" transform="matrix(1.00, 0.00, -0.00, -1.00, 1044.0, 717.0)">b</text><text xml:space="preserve" font-family="Cantarell-Regular" font-size="50.0" fill="#009ED8" transform="matrix(1.00, 0.00, -0.00, -1.00, 1072.9, 717.0)">e</text><text xml:space="preserve" font-family="Cantarell-Regular" font-size="50.0" fill="#009ED8" transform="matrix(1.00, 0.00, -0.00, -1.00, 1099.8, 717.0)">n</text><text xml:space="preserve" font-family="Cantarell-Regular" font-size="50.0" fill="#009ED8" transform="matrix(1.00, 0.00, -0.00, -1.00, 1128.5, 717.0)">k</text><text xml:space="preserve" font-family="Cantarell-Regular" font-size="50.0" fill="#009ED8" transform="matrix(1.00, 0.00, -0.00, -1.00, 1154.7, 717.0)">u</text><text xml:space="preserve" font-family="Cantarell-Regular" font-size="50.0" fill="#009ED8" transform="matrix(1.00, 0.00, -0.00, -1.00, 1183.4, 717.0)">h</text><text xml:space="preserve" font-family="Cantarell-Regular" font-size="50.0" fill="#009ED8" transform="matrix(1.00, 0.00, -0.00, -1.00, 1212.5, 717.0)">l</text><text xml:space="preserve" font-family="Cantarell-Regular" font-size="50.0" fill="#009ED8" transform="matrix(1.00, 0.00, -0.00, -1.00, 1226.2, 717.0)">@</text><text xml:space="preserve" font-family="Cantarell-Regular" font-size="50.0" fill="#009ED8" transform="matrix(1.00, 0.00, -0.00, -1.00, 1277.5, 717.0)">g</text><text xml:space="preserve" font-family="Cantarell-Regular" font-size="50.0" fill="#009ED8" transform="matrix(1.00, 0.00, -0.00, -1.00, 1306.3, 717.0)">m</text><text xml:space="preserve" font-family="Cantarell-Regular" font-size="50.0" fill="#009ED8" transform="matrix(1.00, 0.00, -0.00, -1.00, 1348.6, 717.0)">a</text><text xml:space="preserve" font-family="Cantarell-Regular" font-size="50.0" fill="#009ED8" transform="matrix(1.00, 0.00, -0.00, -1.00, 1374.7, 717.0)">i</text><text xml:space="preserve" font-family="Cantarell-Regular" font-size="50.0" fill="#009ED8" transform="matrix(1.00, 0.00, -0.00, -1.00, 1387.5, 717.0)">l</text><text xml:space="preserve" font-family="Cantarell-Regular" font-size="50.0" fill="#009ED8" transform="matrix(1.00, 0.00, -0.00, -1.00, 1401.3, 717.0)">.</text><text xml:space="preserve" font-family="Cantarell-Regular" font-size="50.0" fill="#009ED8" transform="matrix(1.00, 0.00, -0.00, -1.00, 1415.2, 717.0)">c</text><text xml:space="preserve" font-family="Cantarell-Regular" font-size="50.0" fill="#009ED8" transform="matrix(1.00, 0.00, -0.00, -1.00, 1439.6, 717.0)">o</text><text xml:space="preserve" font-family="Cantarell-Regular" font-size="50.0" fill="#009ED8" transform="matrix(1.00, 0.00, -0.00, -1.00, 1469.2, 717.0)">m</text><g><clipPath id="clip-207"><path d="M 1043.0 707.5 L 1511.5 707.5 L 1511.5 712.3 L 1043.0 712.3 Z M 1043.0 707.5 "></path></clipPath><g clip-path="url(#clip-207)"><path d="M 3.0 141.4 L 470.5 141.4 " fill="none" stroke="#009ED8" stroke-width="2.83" stroke-miterlimit="0.00" transform="matrix(1.00, 0.00, 0.00, -1.00, 1041.0, 851.3)"></path></g></g><text xml:space="preserve" font-family="Cantarell-Regular" font-size="56.0" fill="#FEFFFF" transform="matrix(1.00, 0.00, -0.00, -1.00, 1044.0, 640.0)">@</text><text xml:space="preserve" font-family="Cantarell-Regular" font-size="56.0" fill="#FEFFFF" transform="matrix(1.00, 0.00, -0.00, -1.00, 1101.4, 640.0)">B</text><text xml:space="preserve" font-family="Cantarell-Regular" font-size="56.0" fill="#FEFFFF" transform="matrix(1.00, 0.00, -0.00, -1.00, 1140.4, 640.0)">K</text><text xml:space="preserve" font-family="Cantarell-Regular" font-size="56.0" fill="#FEFFFF" transform="matrix(1.00, 0.00, -0.00, -1.00, 1179.1, 640.0)">u</text><text xml:space="preserve" font-family="Cantarell-Regular" font-size="56.0" fill="#FEFFFF" transform="matrix(1.00, 0.00, -0.00, -1.00, 1211.3, 640.0)">h</text><text xml:space="preserve" font-family="Cantarell-Regular" font-size="56.0" fill="#FEFFFF" transform="matrix(1.00, 0.00, -0.00, -1.00, 1243.8, 640.0)">l</text><text xml:space="preserve" font-family="Cantarell-Regular" font-size="56.0" fill="#FEFFFF" transform="matrix(1.00, 0.00, -0.00, -1.00, 1259.2, 640.0)">O</text><text xml:space="preserve" font-family="Cantarell-Regular" font-size="56.0" fill="#FEFFFF" transform="matrix(1.00, 0.00, -0.00, -1.00, 1305.4, 640.0)">r</text><text xml:space="preserve" font-family="Cantarell-Regular" font-size="56.0" fill="#FEFFFF" transform="matrix(1.00, 0.00, -0.00, -1.00, 1327.3, 640.0)">E</text><text xml:space="preserve" font-family="Cantarell-Regular" font-size="56.0" fill="#FEFFFF" transform="matrix(1.00, 0.00, -0.00, -1.00, 1362.4, 640.0)">l</text><text xml:space="preserve" font-family="Cantarell-Regular" font-size="56.0" fill="#FEFFFF" transform="matrix(1.00, 0.00, -0.00, -1.00, 1377.8, 640.0)">s</text><text xml:space="preserve" font-family="Cantarell-Regular" font-size="56.0" fill="#FEFFFF" transform="matrix(1.00, 0.00, -0.00, -1.00, 1405.6, 640.0)">e</text><path d="M 922.7 484.6 C 930.9 476.5 930.9 463.3 922.7 455.2 C 914.6 447.0 901.4 447.0 893.3 455.2 C 885.2 463.3 885.2 476.5 893.3 484.6 C 901.4 492.7 914.6 492.7 922.7 484.6 " fill="#01A1D6"></path></g></svg>