<?xml version="1.0" encoding="UTF-8" standalone="no"?><svg xmlns="http://www.w3.org/2000/svg" xmlns:xlink="http://www.w3.org/1999/xlink" clip-rule="evenodd" stroke-miterlimit="4.00" viewBox="0 0 931 1063"><desc>SVG generated by Keynote</desc><defs></defs><g transform="matrix(1.00, 0.00, -0.00, -1.00, 0.0, 1063.0)"><g><clipPath id="clip-197"><path d="M 0.0 0.9 L 930.8 0.9 L 930.8 1062.2 L 0.0 1062.2 Z M 0.0 0.9 "></path></clipPath><g clip-path="url(#clip-197)"><path d="M 400.2 1061.2 C 692.7 1061.2 929.8 824.1 929.8 531.5 C 929.8 239.0 692.7 1.9 400.2 1.9 C 240.7 1.9 97.7 72.3 1.0 184.1 L 1.0 879.0 C 97.7 990.7 240.7 1061.2 400.2 1061.2 Z M 400.2 1061.2 " fill="#01A1D6"></path></g></g><g><clipPath id="clip-198"><path d="M 17.8 322.5 L 874.2 322.5 L 874.2 814.1 L 17.8 814.1 Z M 17.8 322.5 "></path></clipPath><g clip-path="url(#clip-198)"><text xml:space="preserve" font-family="Novecentosanswide-Medium" font-size="124.0" fill="#FEFFFF" transform="matrix(1.00, 0.00, -0.00, -1.00, 55.0, 650.0)">Q</text><text xml:space="preserve" font-family="Novecentosanswide-Medium" font-size="124.0" fill="#FEFFFF" transform="matrix(1.00, 0.00, -0.00, -1.00, 154.7, 650.0)">U</text><text xml:space="preserve" font-family="Novecentosanswide-Medium" font-size="124.0" fill="#FEFFFF" transform="matrix(1.00, 0.00, -0.00, -1.00, 241.6, 650.0)">E</text><text xml:space="preserve" font-family="Novecentosanswide-Medium" font-size="124.0" fill="#FEFFFF" transform="matrix(1.00, 0.00, -0.00, -1.00, 316.5, 650.0)">S</text><text xml:space="preserve" font-family="Novecentosanswide-Medium" font-size="124.0" fill="#FEFFFF" transform="matrix(1.00, 0.00, -0.00, -1.00, 389.6, 650.0)">T</text><text xml:space="preserve" font-family="Novecentosanswide-Medium" font-size="124.0" fill="#FEFFFF" transform="matrix(1.00, 0.00, -0.00, -1.00, 469.4, 650.0)">I</text><text xml:space="preserve" font-family="Novecentosanswide-Medium" font-size="124.0" fill="#FEFFFF" transform="matrix(1.00, 0.00, -0.00, -1.00, 500.4, 650.0)">O</text><text xml:space="preserve" font-family="Novecentosanswide-Medium" font-size="124.0" fill="#FEFFFF" transform="matrix(1.00, 0.00, -0.00, -1.00, 599.5, 650.0)">N</text><text xml:space="preserve" font-family="Novecentosanswide-Medium" font-size="124.0" fill="#FEFFFF" transform="matrix(1.00, 0.00, -0.00, -1.00, 690.6, 650.0)">S</text><text xml:space="preserve" font-family="Cantarell-Regular" font-size="50.0" fill="#009ED8" transform="matrix(1.00, 0.00, -0.00, -1.00, 765.5, 650.0)"> </text><text xml:space="preserve" font-family="Novecentosanswide-Medium" font-size="124.0" fill="#FEFFFF" transform="matrix(1.00, 0.00, -0.00, -1.00, 55.0, 516.0)"> </text><text xml:space="preserve" font-family="Novecentosanswide-Medium" font-size="124.0" fill="#FEFFFF" transform="matrix(1.00, 0.00, -0.00, -1.00, 86.0, 516.0)">a</text><text xml:space="preserve" font-family="Novecentosanswide-Medium" font-size="124.0" fill="#FEFFFF" transform="matrix(1.00, 0.00, -0.00, -1.00, 161.0, 516.0)">n</text><text xml:space="preserve" font-family="Novecentosanswide-Medium" font-size="124.0" fill="#FEFFFF" transform="matrix(1.00, 0.00, -0.00, -1.00, 240.3, 516.0)">d</text><text xml:space="preserve" font-family="Cantarell-Regular" font-size="50.0" fill="#009ED8" transform="matrix(1.00, 0.00, -0.00, -1.00, 317.3, 516.0)"> </text><text xml:space="preserve" font-family="Novecentosanswide-Medium" font-size="124.0" fill="#FEFFFF" transform="matrix(1.00, 0.00, -0.00, -1.00, 55.0, 382.0)">A</text><text xml:space="preserve" font-family="Novecentosanswide-Medium" font-size="124.0" fill="#FEFFFF" transform="matrix(1.00, 0.00, -0.00, -1.00, 146.8, 382.0)">N</text><text xml:space="preserve" font-family="Novecentosanswide-Medium" font-size="124.0" fill="#FEFFFF" transform="matrix(1.00, 0.00, -0.00, -1.00, 237.9, 382.0)">S</text><text xml:space="preserve" font-family="Novecentosanswide-Medium" font-size="124.0" fill="#FEFFFF" transform="matrix(1.00, 0.00, -0.00, -1.00, 312.8, 382.0)">W</text><text xml:space="preserve" font-family="Novecentosanswide-Medium" font-size="124.0" fill="#FEFFFF" transform="matrix(1.00, 0.00, -0.00, -1.00, 437.3, 382.0)">E</text><text xml:space="preserve" font-family="Novecentosanswide-Medium" font-size="124.0" fill="#FEFFFF" transform="matrix(1.00, 0.00, -0.00, -1.00, 512.2, 382.0)">R</text><text xml:space="preserve" font-family="Novecentosanswide-Medium" font-size="124.0" fill="#FEFFFF" transform="matrix(1.00, 0.00, -0.00, -1.00, 588.6, 382.0)">S</text></g></g><g><clipPath id="clip-199"><path d="M 261.6 723.3 L 563.4 723.3 L 563.4 1055.1 L 261.6 1055.1 Z M 261.6 723.3 "></path></clipPath><g clip-path="url(#clip-199)"></g></g></g></svg>