<?xml version="1.0" encoding="UTF-8" standalone="no"?><svg xmlns="http://www.w3.org/2000/svg" xmlns:xlink="http://www.w3.org/1999/xlink" clip-rule="evenodd" stroke-miterlimit="4.00" viewBox="0 0 387 57"><desc>SVG generated by Keynote</desc><defs></defs><g transform="matrix(1.00, 0.00, -0.00, -1.00, 0.0, 57.0)"><text xml:space="preserve" font-family="Cantarell-Regular" font-size="56.0" fill="#FEFFFF" transform="matrix(1.00, 0.00, -0.00, -1.00, -3.0, 13.0)">@</text><text xml:space="preserve" font-family="Cantarell-Regular" font-size="56.0" fill="#FEFFFF" transform="matrix(1.00, 0.00, -0.00, -1.00, 54.4, 13.0)">B</text><text xml:space="preserve" font-family="Cantarell-Regular" font-size="56.0" fill="#FEFFFF" transform="matrix(1.00, 0.00, -0.00, -1.00, 93.4, 13.0)">K</text><text xml:space="preserve" font-family="Cantarell-Regular" font-size="56.0" fill="#FEFFFF" transform="matrix(1.00, 0.00, -0.00, -1.00, 132.1, 13.0)">u</text><text xml:space="preserve" font-family="Cantarell-Regular" font-size="56.0" fill="#FEFFFF" transform="matrix(1.00, 0.00, -0.00, -1.00, 164.3, 13.0)">h</text><text xml:space="preserve" font-family="Cantarell-Regular" font-size="56.0" fill="#FEFFFF" transform="matrix(1.00, 0.00, -0.00, -1.00, 196.8, 13.0)">l</text><text xml:space="preserve" font-family="Cantarell-Regular" font-size="56.0" fill="#FEFFFF" transform="matrix(1.00, 0.00, -0.00, -1.00, 212.2, 13.0)">O</text><text xml:space="preserve" font-family="Cantarell-Regular" font-size="56.0" fill="#FEFFFF" transform="matrix(1.00, 0.00, -0.00, -1.00, 258.4, 13.0)">r</text><text xml:space="preserve" font-family="Cantarell-Regular" font-size="56.0" fill="#FEFFFF" transform="matrix(1.00, 0.00, -0.00, -1.00, 280.3, 13.0)">E</text><text xml:space="preserve" font-family="Cantarell-Regular" font-size="56.0" fill="#FEFFFF" transform="matrix(1.00, 0.00, -0.00, -1.00, 315.4, 13.0)">l</text><text xml:space="preserve" font-family="Cantarell-Regular" font-size="56.0" fill="#FEFFFF" transform="matrix(1.00, 0.00, -0.00, -1.00, 330.8, 13.0)">s</text><text xml:space="preserve" font-family="Cantarell-Regular" font-size="56.0" fill="#FEFFFF" transform="matrix(1.00, 0.00, -0.00, -1.00, 358.6, 13.0)">e</text></g></svg>