<?xml version="1.0" encoding="UTF-8" standalone="no"?><svg xmlns="http://www.w3.org/2000/svg" xmlns:xlink="http://www.w3.org/1999/xlink" clip-rule="evenodd" stroke-miterlimit="4.00" viewBox="0 0 512 68"><desc>SVG generated by Keynote</desc><defs></defs><g transform="matrix(1.00, 0.00, -0.00, -1.00, 0.0, 68.0)"><text xml:space="preserve" font-family="Cantarell-Regular" font-size="50.0" fill="#D8D8D8" transform="matrix(1.00, 0.00, -0.00, -1.00, 0.3, 15.3)">•</text><text xml:space="preserve" font-family="Cantarell-Regular" font-size="50.0" fill="#D8D8D8" transform="matrix(1.00, 0.00, -0.00, -1.00, 18.0, 15.0)"> </text><text xml:space="preserve" font-family="Cantarell-Regular" font-size="50.0" fill="#D8D8D8" transform="matrix(1.00, 0.00, -0.00, -1.00, 31.7, 15.0)">P</text><text xml:space="preserve" font-family="Cantarell-Regular" font-size="50.0" fill="#D8D8D8" transform="matrix(1.00, 0.00, -0.00, -1.00, 64.4, 15.0)">a</text><text xml:space="preserve" font-family="Cantarell-Regular" font-size="50.0" fill="#D8D8D8" transform="matrix(1.00, 0.00, -0.00, -1.00, 90.5, 15.0)">r</text><text xml:space="preserve" font-family="Cantarell-Regular" font-size="50.0" fill="#D8D8D8" transform="matrix(1.00, 0.00, -0.00, -1.00, 110.0, 15.0)">s</text><text xml:space="preserve" font-family="Cantarell-Regular" font-size="50.0" fill="#D8D8D8" transform="matrix(1.00, 0.00, -0.00, -1.00, 134.8, 15.0)">e</text><text xml:space="preserve" font-family="Cantarell-Regular" font-size="50.0" fill="#D8D8D8" transform="matrix(1.00, 0.00, -0.00, -1.00, 161.8, 15.0)">s</text><text xml:space="preserve" font-family="Cantarell-Regular" font-size="50.0" fill="#D8D8D8" transform="matrix(1.00, 0.00, -0.00, -1.00, 186.6, 15.0)"> </text><text xml:space="preserve" font-family="Cantarell-Regular" font-size="50.0" fill="#D8D8D8" transform="matrix(1.00, 0.00, -0.00, -1.00, 200.3, 15.0)">A</text><text xml:space="preserve" font-family="Cantarell-Regular" font-size="50.0" fill="#D8D8D8" transform="matrix(1.00, 0.00, -0.00, -1.00, 234.0, 15.0)">P</text><text xml:space="preserve" font-family="Cantarell-Regular" font-size="50.0" fill="#D8D8D8" transform="matrix(1.00, 0.00, -0.00, -1.00, 266.7, 15.0)">I</text><text xml:space="preserve" font-family="Cantarell-Regular" font-size="50.0" fill="#D8D8D8" transform="matrix(1.00, 0.00, -0.00, -1.00, 284.6, 15.0)"> </text><text xml:space="preserve" font-family="Cantarell-Regular" font-size="50.0" fill="#D8D8D8" transform="matrix(1.00, 0.00, -0.00, -1.00, 298.2, 15.0)">B</text><text xml:space="preserve" font-family="Cantarell-Regular" font-size="50.0" fill="#D8D8D8" transform="matrix(1.00, 0.00, -0.00, -1.00, 333.0, 15.0)">l</text><text xml:space="preserve" font-family="Cantarell-Regular" font-size="50.0" fill="#D8D8D8" transform="matrix(1.00, 0.00, -0.00, -1.00, 346.8, 15.0)">u</text><text xml:space="preserve" font-family="Cantarell-Regular" font-size="50.0" fill="#D8D8D8" transform="matrix(1.00, 0.00, -0.00, -1.00, 375.5, 15.0)">e</text><text xml:space="preserve" font-family="Cantarell-Regular" font-size="50.0" fill="#D8D8D8" transform="matrix(1.00, 0.00, -0.00, -1.00, 402.4, 15.0)">p</text><text xml:space="preserve" font-family="Cantarell-Regular" font-size="50.0" fill="#D8D8D8" transform="matrix(1.00, 0.00, -0.00, -1.00, 431.2, 15.0)">r</text><text xml:space="preserve" font-family="Cantarell-Regular" font-size="50.0" fill="#D8D8D8" transform="matrix(1.00, 0.00, -0.00, -1.00, 450.7, 15.0)">i</text><text xml:space="preserve" font-family="Cantarell-Regular" font-size="50.0" fill="#D8D8D8" transform="matrix(1.00, 0.00, -0.00, -1.00, 463.5, 15.0)">n</text><text xml:space="preserve" font-family="Cantarell-Regular" font-size="50.0" fill="#D8D8D8" transform="matrix(1.00, 0.00, -0.00, -1.00, 492.2, 15.0)">t</text></g></svg>