<?xml version="1.0" encoding="UTF-8" standalone="no"?><svg xmlns="http://www.w3.org/2000/svg" xmlns:xlink="http://www.w3.org/1999/xlink" clip-rule="evenodd" stroke-miterlimit="4.00" viewBox="0 0 2048 1536"><desc>SVG generated by Keynote</desc><defs></defs><g transform="matrix(1.00, 0.00, -0.00, -1.00, 0.0, 1536.0)"><g><clipPath id="clip-186"><path d="M 0.0 1536.0 L 2048.0 1536.0 L 2048.0 0.0 L 0.0 0.0 Z M 0.0 1536.0 "></path></clipPath><g clip-path="url(#clip-186)"><image xlink:href="../../D86CBF58-7E78-4651-B102-65535B1DA1EE/assets/EA215432A0DB698A213B0261797CC710.jpeg" width="1024.00" height="768.00" transform="matrix(2.00, 0.00, -0.00, -2.00, 0.0, 1536.0)"></image></g></g><text xml:space="preserve" font-family="Novecentosanswide-Medium" font-size="112.0" fill="#FEFFFF" transform="matrix(1.00, 0.00, -0.00, -1.00, 490.0, 1350.0)">D</text><text xml:space="preserve" font-family="Novecentosanswide-Medium" font-size="112.0" fill="#FEFFFF" transform="matrix(1.00, 0.00, -0.00, -1.00, 568.2, 1350.0)">E</text><text xml:space="preserve" font-family="Novecentosanswide-Medium" font-size="112.0" fill="#FEFFFF" transform="matrix(1.00, 0.00, -0.00, -1.00, 631.7, 1350.0)">P</text><text xml:space="preserve" font-family="Novecentosanswide-Medium" font-size="112.0" fill="#FEFFFF" transform="matrix(1.00, 0.00, -0.00, -1.00, 693.4, 1350.0)">L</text><text xml:space="preserve" font-family="Novecentosanswide-Medium" font-size="112.0" fill="#FEFFFF" transform="matrix(1.00, 0.00, -0.00, -1.00, 747.6, 1350.0)">O</text><text xml:space="preserve" font-family="Novecentosanswide-Medium" font-size="112.0" fill="#FEFFFF" transform="matrix(1.00, 0.00, -0.00, -1.00, 827.3, 1350.0)">Y</text><text xml:space="preserve" font-family="Novecentosanswide-Medium" font-size="112.0" fill="#FEFFFF" transform="matrix(1.00, 0.00, -0.00, -1.00, 898.8, 1350.0)">I</text><text xml:space="preserve" font-family="Novecentosanswide-Medium" font-size="112.0" fill="#FEFFFF" transform="matrix(1.00, 0.00, -0.00, -1.00, 922.6, 1350.0)">N</text><text xml:space="preserve" font-family="Novecentosanswide-Medium" font-size="112.0" fill="#FEFFFF" transform="matrix(1.00, 0.00, -0.00, -1.00, 1000.7, 1350.0)">G</text><text xml:space="preserve" font-family="Novecentosanswide-Medium" font-size="112.0" fill="#FEFFFF" transform="matrix(1.00, 0.00, -0.00, -1.00, 1084.7, 1350.0)"> </text><text xml:space="preserve" font-family="Novecentosanswide-DemiBold" font-weight="bold" font-size="112.0" fill="#01A1D6" transform="matrix(1.00, 0.00, -0.00, -1.00, 1108.5, 1350.0)">D</text><text xml:space="preserve" font-family="Novecentosanswide-DemiBold" font-weight="bold" font-size="112.0" fill="#01A1D6" transform="matrix(1.00, 0.00, -0.00, -1.00, 1188.2, 1350.0)">O</text><text xml:space="preserve" font-family="Novecentosanswide-DemiBold" font-weight="bold" font-size="112.0" fill="#01A1D6" transform="matrix(1.00, 0.00, -0.00, -1.00, 1273.8, 1350.0)">C</text><text xml:space="preserve" font-family="Novecentosanswide-DemiBold" font-weight="bold" font-size="112.0" fill="#01A1D6" transform="matrix(1.00, 0.00, -0.00, -1.00, 1354.2, 1350.0)">K</text><text xml:space="preserve" font-family="Novecentosanswide-DemiBold" font-weight="bold" font-size="112.0" fill="#01A1D6" transform="matrix(1.00, 0.00, -0.00, -1.00, 1426.9, 1350.0)">E</text><text xml:space="preserve" font-family="Novecentosanswide-DemiBold" font-weight="bold" font-size="112.0" fill="#01A1D6" transform="matrix(1.00, 0.00, -0.00, -1.00, 1490.9, 1350.0)">R</text><image xlink:href="../../D86CBF58-7E78-4651-B102-65535B1DA1EE/assets/7AEFD6CB8CCF5ECCEC00E2DFD088389D.png" width="360.00" height="90.00" transform="matrix(1.00, 0.00, -0.00, -1.00, 48.0, 156.0)"></image><text xml:space="preserve" font-family="Novecentosanswide-Medium" font-size="28.0" fill="#84929B" transform="matrix(1.00, 0.00, -0.00, -1.00, 878.0, 105.0)">g</text><text xml:space="preserve" font-family="Novecentosanswide-Medium" font-size="28.0" fill="#84929B" transform="matrix(1.00, 0.00, -0.00, -1.00, 896.8, 105.0)">i</text><text xml:space="preserve" font-family="Novecentosanswide-Medium" font-size="28.0" fill="#84929B" transform="matrix(1.00, 0.00, -0.00, -1.00, 903.6, 105.0)">t</text><text xml:space="preserve" font-family="Novecentosanswide-Medium" font-size="28.0" fill="#84929B" transform="matrix(1.00, 0.00, -0.00, -1.00, 919.1, 105.0)">h</text><text xml:space="preserve" font-family="Novecentosanswide-Medium" font-size="28.0" fill="#84929B" transform="matrix(1.00, 0.00, -0.00, -1.00, 936.4, 105.0)">u</text><text xml:space="preserve" font-family="Novecentosanswide-Medium" font-size="28.0" fill="#84929B" transform="matrix(1.00, 0.00, -0.00, -1.00, 953.8, 105.0)">b</text><text xml:space="preserve" font-family="Novecentosanswide-Medium" font-size="28.0" fill="#84929B" transform="matrix(1.00, 0.00, -0.00, -1.00, 969.1, 105.0)">.</text><text xml:space="preserve" font-family="Novecentosanswide-Medium" font-size="28.0" fill="#84929B" transform="matrix(1.00, 0.00, -0.00, -1.00, 975.2, 105.0)">c</text><text xml:space="preserve" font-family="Novecentosanswide-Medium" font-size="28.0" fill="#84929B" transform="matrix(1.00, 0.00, -0.00, -1.00, 993.1, 105.0)">o</text><text xml:space="preserve" font-family="Novecentosanswide-Medium" font-size="28.0" fill="#84929B" transform="matrix(1.00, 0.00, -0.00, -1.00, 1011.7, 105.0)">m</text><text xml:space="preserve" font-family="Novecentosanswide-Medium" font-size="28.0" fill="#84929B" transform="matrix(1.00, 0.00, -0.00, -1.00, 1031.5, 105.0)">/</text><text xml:space="preserve" font-family="Novecentosanswide-Medium" font-size="28.0" fill="#84929B" transform="matrix(1.00, 0.00, -0.00, -1.00, 1045.7, 105.0)">r</text><text xml:space="preserve" font-family="Novecentosanswide-Medium" font-size="28.0" fill="#84929B" transform="matrix(1.00, 0.00, -0.00, -1.00, 1061.1, 105.0)">e</text><text xml:space="preserve" font-family="Novecentosanswide-Medium" font-size="28.0" fill="#84929B" transform="matrix(1.00, 0.00, -0.00, -1.00, 1075.9, 105.0)">a</text><text xml:space="preserve" font-family="Novecentosanswide-Medium" font-size="28.0" fill="#84929B" transform="matrix(1.00, 0.00, -0.00, -1.00, 1092.9, 105.0)">l</text><text xml:space="preserve" font-family="Novecentosanswide-Medium" font-size="28.0" fill="#84929B" transform="matrix(1.00, 0.00, -0.00, -1.00, 1106.5, 105.0)">p</text><text xml:space="preserve" font-family="Novecentosanswide-Medium" font-size="28.0" fill="#84929B" transform="matrix(1.00, 0.00, -0.00, -1.00, 1119.4, 105.0)">a</text><text xml:space="preserve" font-family="Novecentosanswide-Medium" font-size="28.0" fill="#84929B" transform="matrix(1.00, 0.00, -0.00, -1.00, 1135.7, 105.0)">g</text><text xml:space="preserve" font-family="Novecentosanswide-Medium" font-size="28.0" fill="#84929B" transform="matrix(1.00, 0.00, -0.00, -1.00, 1154.5, 105.0)">e</text><text xml:space="preserve" font-family="Cantarell-Regular" font-size="28.0" fill="#84929B" transform="matrix(1.00, 0.00, -0.00, -1.00, 1169.4, 105.0)"> </text><image xlink:href="555F5C0903E461716EE5E717A5870FC5.png" width="2089.00" height="1013.00" transform="matrix(1.00, 0.00, -0.00, -1.00, -20.3, 994.3)" opacity="0.70"></image><image xlink:href="021A6166966984B3CF740049C0178CC5.png" width="960.00" height="455.00" transform="matrix(2.13, 0.00, -0.00, -2.14, 0.0, 984.0)"></image><g><clipPath id="clip-187"><path d="M 127.9 1012.3 L 683.2 1012.3 L 683.2 1174.3 L 127.9 1174.3 Z M 127.9 1012.3 "></path></clipPath><g clip-path="url(#clip-187)"><text xml:space="preserve" font-family="Novecentosanswide-DemiBold" font-weight="bold" font-size="90.0" fill="#FEFFFF" transform="matrix(1.00, 0.00, -0.00, -1.00, 226.0, 1055.0)">R</text><text xml:space="preserve" font-family="Novecentosanswide-DemiBold" font-weight="bold" font-size="90.0" fill="#FEFFFF" transform="matrix(1.00, 0.00, -0.00, -1.00, 280.0, 1055.0)">a</text><text xml:space="preserve" font-family="Novecentosanswide-DemiBold" font-weight="bold" font-size="90.0" fill="#FEFFFF" transform="matrix(1.00, 0.00, -0.00, -1.00, 331.9, 1055.0)">n</text><text xml:space="preserve" font-family="Novecentosanswide-DemiBold" font-weight="bold" font-size="90.0" fill="#FEFFFF" transform="matrix(1.00, 0.00, -0.00, -1.00, 386.9, 1055.0)">c</text><text xml:space="preserve" font-family="Novecentosanswide-DemiBold" font-weight="bold" font-size="90.0" fill="#FEFFFF" transform="matrix(1.00, 0.00, -0.00, -1.00, 439.9, 1055.0)">h</text><text xml:space="preserve" font-family="Novecentosanswide-DemiBold" font-weight="bold" font-size="90.0" fill="#FEFFFF" transform="matrix(1.00, 0.00, -0.00, -1.00, 492.4, 1055.0)">e</text><text xml:space="preserve" font-family="Novecentosanswide-DemiBold" font-weight="bold" font-size="90.0" fill="#FEFFFF" transform="matrix(1.00, 0.00, -0.00, -1.00, 537.3, 1055.0)">r</text></g></g><g><clipPath id="clip-188"><path d="M 294.3 1110.6 L 1022.6 1110.6 L 1022.6 1260.1 L 294.3 1260.1 Z M 294.3 1110.6 "></path></clipPath><g clip-path="url(#clip-188)"><image xlink:href="A9D659D5B913032B1F2DD32D0CB54091.png" width="729.00" height="149.00" transform="matrix(1.00, 0.00, -0.00, -1.00, 294.0, 1260.0)"></image></g></g></g></svg>