<?xml version="1.0" encoding="UTF-8" standalone="no"?><svg xmlns="http://www.w3.org/2000/svg" xmlns:xlink="http://www.w3.org/1999/xlink" clip-rule="evenodd" stroke-miterlimit="4.00" viewBox="0 0 692 107"><desc>SVG generated by Keynote</desc><defs></defs><g transform="matrix(1.00, 0.00, -0.00, -1.00, 0.0, 107.0)"><text xml:space="preserve" font-family="Novecentosanswide-Medium" font-size="40.0" fill="#FEFFFF" transform="matrix(1.00, 0.00, -0.00, -1.00, 0.5, 65.8)">•</text><text xml:space="preserve" font-family="Cantarell-Regular" font-size="40.0" fill="#D8D8D8" transform="matrix(1.00, 0.00, -0.00, -1.00, 59.0, 67.0)">5</text><text xml:space="preserve" font-family="Cantarell-Regular" font-size="40.0" fill="#D8D8D8" transform="matrix(1.00, 0.00, -0.00, -1.00, 84.4, 67.0)">+</text><text xml:space="preserve" font-family="Cantarell-Regular" font-size="40.0" fill="#D8D8D8" transform="matrix(1.00, 0.00, -0.00, -1.00, 111.7, 67.0)"> </text><text xml:space="preserve" font-family="Cantarell-Regular" font-size="40.0" fill="#D8D8D8" transform="matrix(1.00, 0.00, -0.00, -1.00, 122.7, 67.0)">t</text><text xml:space="preserve" font-family="Cantarell-Regular" font-size="40.0" fill="#D8D8D8" transform="matrix(1.00, 0.00, -0.00, -1.00, 137.8, 67.0)">h</text><text xml:space="preserve" font-family="Cantarell-Regular" font-size="40.0" fill="#D8D8D8" transform="matrix(1.00, 0.00, -0.00, -1.00, 161.1, 67.0)">e</text><text xml:space="preserve" font-family="Cantarell-Regular" font-size="40.0" fill="#D8D8D8" transform="matrix(1.00, 0.00, -0.00, -1.00, 182.6, 67.0)">m</text><text xml:space="preserve" font-family="Cantarell-Regular" font-size="40.0" fill="#D8D8D8" transform="matrix(1.00, 0.00, -0.00, -1.00, 216.4, 67.0)">e</text><text xml:space="preserve" font-family="Cantarell-Regular" font-size="40.0" fill="#D8D8D8" transform="matrix(1.00, 0.00, -0.00, -1.00, 238.0, 67.0)">s</text><text xml:space="preserve" font-family="Cantarell-Regular" font-size="40.0" fill="#D8D8D8" transform="matrix(1.00, 0.00, -0.00, -1.00, 257.8, 67.0)"> </text><text xml:space="preserve" font-family="Cantarell-Regular" font-size="40.0" fill="#D8D8D8" transform="matrix(1.00, 0.00, -0.00, -1.00, 268.8, 67.0)">w</text><text xml:space="preserve" font-family="Cantarell-Regular" font-size="40.0" fill="#D8D8D8" transform="matrix(1.00, 0.00, -0.00, -1.00, 301.7, 67.0)">i</text><text xml:space="preserve" font-family="Cantarell-Regular" font-size="40.0" fill="#D8D8D8" transform="matrix(1.00, 0.00, -0.00, -1.00, 311.9, 67.0)">t</text><text xml:space="preserve" font-family="Cantarell-Regular" font-size="40.0" fill="#D8D8D8" transform="matrix(1.00, 0.00, -0.00, -1.00, 327.1, 67.0)">h</text><text xml:space="preserve" font-family="Cantarell-Regular" font-size="40.0" fill="#D8D8D8" transform="matrix(1.00, 0.00, -0.00, -1.00, 350.3, 67.0)"> </text><text xml:space="preserve" font-family="Cantarell-Regular" font-size="40.0" fill="#D8D8D8" transform="matrix(1.00, 0.00, -0.00, -1.00, 361.3, 67.0)">v</text><text xml:space="preserve" font-family="Cantarell-Regular" font-size="40.0" fill="#D8D8D8" transform="matrix(1.00, 0.00, -0.00, -1.00, 380.6, 67.0)">a</text><text xml:space="preserve" font-family="Cantarell-Regular" font-size="40.0" fill="#D8D8D8" transform="matrix(1.00, 0.00, -0.00, -1.00, 401.5, 67.0)">r</text><text xml:space="preserve" font-family="Cantarell-Regular" font-size="40.0" fill="#D8D8D8" transform="matrix(1.00, 0.00, -0.00, -1.00, 417.2, 67.0)">i</text><text xml:space="preserve" font-family="Cantarell-Regular" font-size="40.0" fill="#D8D8D8" transform="matrix(1.00, 0.00, -0.00, -1.00, 427.4, 67.0)">o</text><text xml:space="preserve" font-family="Cantarell-Regular" font-size="40.0" fill="#D8D8D8" transform="matrix(1.00, 0.00, -0.00, -1.00, 451.1, 67.0)">u</text><text xml:space="preserve" font-family="Cantarell-Regular" font-size="40.0" fill="#D8D8D8" transform="matrix(1.00, 0.00, -0.00, -1.00, 474.0, 67.0)">s</text><text xml:space="preserve" font-family="Cantarell-Regular" font-size="40.0" fill="#D8D8D8" transform="matrix(1.00, 0.00, -0.00, -1.00, 493.9, 67.0)"> </text><text xml:space="preserve" font-family="Cantarell-Regular" font-size="40.0" fill="#D8D8D8" transform="matrix(1.00, 0.00, -0.00, -1.00, 504.8, 67.0)">l</text><text xml:space="preserve" font-family="Cantarell-Regular" font-size="40.0" fill="#D8D8D8" transform="matrix(1.00, 0.00, -0.00, -1.00, 515.9, 67.0)">a</text><text xml:space="preserve" font-family="Cantarell-Regular" font-size="40.0" fill="#D8D8D8" transform="matrix(1.00, 0.00, -0.00, -1.00, 536.8, 67.0)">y</text><text xml:space="preserve" font-family="Cantarell-Regular" font-size="40.0" fill="#D8D8D8" transform="matrix(1.00, 0.00, -0.00, -1.00, 557.4, 67.0)">o</text><text xml:space="preserve" font-family="Cantarell-Regular" font-size="40.0" fill="#D8D8D8" transform="matrix(1.00, 0.00, -0.00, -1.00, 581.1, 67.0)">u</text><text xml:space="preserve" font-family="Cantarell-Regular" font-size="40.0" fill="#D8D8D8" transform="matrix(1.00, 0.00, -0.00, -1.00, 604.1, 67.0)">t</text><text xml:space="preserve" font-family="Cantarell-Regular" font-size="40.0" fill="#D8D8D8" transform="matrix(1.00, 0.00, -0.00, -1.00, 619.2, 67.0)">s</text><text xml:space="preserve" font-family="Cantarell-Regular" font-size="40.0" fill="#D8D8D8" transform="matrix(1.00, 0.00, -0.00, -1.00, 639.1, 67.0)"> </text><text xml:space="preserve" font-family="Cantarell-Regular" font-size="40.0" fill="#D8D8D8" transform="matrix(1.00, 0.00, -0.00, -1.00, 650.0, 67.0)">(</text><text xml:space="preserve" font-family="Cantarell-Regular" font-size="40.0" fill="#D8D8D8" transform="matrix(1.00, 0.00, -0.00, -1.00, 664.5, 67.0)">2</text><text xml:space="preserve" font-family="Cantarell-Regular" font-size="40.0" fill="#D8D8D8" transform="matrix(1.00, 0.00, -0.00, -1.00, 689.9, 67.0)"> </text><text xml:space="preserve" font-family="Cantarell-Regular" font-size="40.0" fill="#D8D8D8" transform="matrix(1.00, 0.00, -0.00, -1.00, 59.0, 10.0)">c</text><text xml:space="preserve" font-family="Cantarell-Regular" font-size="40.0" fill="#D8D8D8" transform="matrix(1.00, 0.00, -0.00, -1.00, 78.5, 10.0)">o</text><text xml:space="preserve" font-family="Cantarell-Regular" font-size="40.0" fill="#D8D8D8" transform="matrix(1.00, 0.00, -0.00, -1.00, 102.2, 10.0)">l</text><text xml:space="preserve" font-family="Cantarell-Regular" font-size="40.0" fill="#D8D8D8" transform="matrix(1.00, 0.00, -0.00, -1.00, 113.3, 10.0)">u</text><text xml:space="preserve" font-family="Cantarell-Regular" font-size="40.0" fill="#D8D8D8" transform="matrix(1.00, 0.00, -0.00, -1.00, 136.3, 10.0)">m</text><text xml:space="preserve" font-family="Cantarell-Regular" font-size="40.0" fill="#D8D8D8" transform="matrix(1.00, 0.00, -0.00, -1.00, 170.1, 10.0)">n</text><text xml:space="preserve" font-family="Cantarell-Regular" font-size="40.0" fill="#D8D8D8" transform="matrix(1.00, 0.00, -0.00, -1.00, 193.1, 10.0)">,</text><text xml:space="preserve" font-family="Cantarell-Regular" font-size="40.0" fill="#D8D8D8" transform="matrix(1.00, 0.00, -0.00, -1.00, 204.2, 10.0)"> </text><text xml:space="preserve" font-family="Cantarell-Regular" font-size="40.0" fill="#D8D8D8" transform="matrix(1.00, 0.00, -0.00, -1.00, 215.2, 10.0)">3</text><text xml:space="preserve" font-family="Cantarell-Regular" font-size="40.0" fill="#D8D8D8" transform="matrix(1.00, 0.00, -0.00, -1.00, 240.6, 10.0)"> </text><text xml:space="preserve" font-family="Cantarell-Regular" font-size="40.0" fill="#D8D8D8" transform="matrix(1.00, 0.00, -0.00, -1.00, 251.6, 10.0)">c</text><text xml:space="preserve" font-family="Cantarell-Regular" font-size="40.0" fill="#D8D8D8" transform="matrix(1.00, 0.00, -0.00, -1.00, 271.1, 10.0)">o</text><text xml:space="preserve" font-family="Cantarell-Regular" font-size="40.0" fill="#D8D8D8" transform="matrix(1.00, 0.00, -0.00, -1.00, 294.8, 10.0)">l</text><text xml:space="preserve" font-family="Cantarell-Regular" font-size="40.0" fill="#D8D8D8" transform="matrix(1.00, 0.00, -0.00, -1.00, 305.8, 10.0)">u</text><text xml:space="preserve" font-family="Cantarell-Regular" font-size="40.0" fill="#D8D8D8" transform="matrix(1.00, 0.00, -0.00, -1.00, 328.8, 10.0)">m</text><text xml:space="preserve" font-family="Cantarell-Regular" font-size="40.0" fill="#D8D8D8" transform="matrix(1.00, 0.00, -0.00, -1.00, 362.7, 10.0)">n</text><text xml:space="preserve" font-family="Cantarell-Regular" font-size="40.0" fill="#D8D8D8" transform="matrix(1.00, 0.00, -0.00, -1.00, 385.6, 10.0)">,</text><text xml:space="preserve" font-family="Cantarell-Regular" font-size="40.0" fill="#D8D8D8" transform="matrix(1.00, 0.00, -0.00, -1.00, 396.8, 10.0)"> </text><text xml:space="preserve" font-family="Cantarell-Regular" font-size="40.0" fill="#D8D8D8" transform="matrix(1.00, 0.00, -0.00, -1.00, 407.8, 10.0)">e</text><text xml:space="preserve" font-family="Cantarell-Regular" font-size="40.0" fill="#D8D8D8" transform="matrix(1.00, 0.00, -0.00, -1.00, 429.3, 10.0)">t</text><text xml:space="preserve" font-family="Cantarell-Regular" font-size="40.0" fill="#D8D8D8" transform="matrix(1.00, 0.00, -0.00, -1.00, 444.5, 10.0)">c</text><text xml:space="preserve" font-family="Cantarell-Regular" font-size="40.0" fill="#D8D8D8" transform="matrix(1.00, 0.00, -0.00, -1.00, 464.0, 10.0)">.</text><text xml:space="preserve" font-family="Cantarell-Regular" font-size="40.0" fill="#D8D8D8" transform="matrix(1.00, 0.00, -0.00, -1.00, 475.2, 10.0)">)</text></g></svg>