<?xml version="1.0" encoding="UTF-8" standalone="no"?><svg xmlns="http://www.w3.org/2000/svg" xmlns:xlink="http://www.w3.org/1999/xlink" clip-rule="evenodd" stroke-miterlimit="4.00" viewBox="0 0 541 69"><desc>SVG generated by Keynote</desc><defs></defs><g transform="matrix(1.00, 0.00, -0.00, -1.00, 0.0, 69.0)"><text xml:space="preserve" font-family="Cantarell-Regular" font-size="68.0" fill="#01A1D6" transform="matrix(1.00, 0.00, -0.00, -1.00, -3.0, 20.0)">A</text><text xml:space="preserve" font-family="Cantarell-Regular" font-size="68.0" fill="#01A1D6" transform="matrix(1.00, 0.00, -0.00, -1.00, 42.9, 20.0)">c</text><text xml:space="preserve" font-family="Cantarell-Regular" font-size="68.0" fill="#01A1D6" transform="matrix(1.00, 0.00, -0.00, -1.00, 76.2, 20.0)">c</text><text xml:space="preserve" font-family="Cantarell-Regular" font-size="68.0" fill="#01A1D6" transform="matrix(1.00, 0.00, -0.00, -1.00, 109.4, 20.0)">e</text><text xml:space="preserve" font-family="Cantarell-Regular" font-size="68.0" fill="#01A1D6" transform="matrix(1.00, 0.00, -0.00, -1.00, 146.0, 20.0)">p</text><text xml:space="preserve" font-family="Cantarell-Regular" font-size="68.0" fill="#01A1D6" transform="matrix(1.00, 0.00, -0.00, -1.00, 185.0, 20.0)">t</text><text xml:space="preserve" font-family="Cantarell-Regular" font-size="68.0" fill="#01A1D6" transform="matrix(1.00, 0.00, -0.00, -1.00, 210.8, 20.0)">a</text><text xml:space="preserve" font-family="Cantarell-Regular" font-size="68.0" fill="#01A1D6" transform="matrix(1.00, 0.00, -0.00, -1.00, 246.3, 20.0)">n</text><text xml:space="preserve" font-family="Cantarell-Regular" font-size="68.0" fill="#01A1D6" transform="matrix(1.00, 0.00, -0.00, -1.00, 285.4, 20.0)">c</text><text xml:space="preserve" font-family="Cantarell-Regular" font-size="68.0" fill="#01A1D6" transform="matrix(1.00, 0.00, -0.00, -1.00, 318.6, 20.0)">e</text><text xml:space="preserve" font-family="Cantarell-Regular" font-size="68.0" fill="#01A1D6" transform="matrix(1.00, 0.00, -0.00, -1.00, 355.2, 20.0)"> </text><text xml:space="preserve" font-family="Cantarell-Regular" font-size="68.0" fill="#01A1D6" transform="matrix(1.00, 0.00, -0.00, -1.00, 373.8, 20.0)">T</text><text xml:space="preserve" font-family="Cantarell-Regular" font-size="68.0" fill="#01A1D6" transform="matrix(1.00, 0.00, -0.00, -1.00, 414.0, 20.0)">e</text><text xml:space="preserve" font-family="Cantarell-Regular" font-size="68.0" fill="#01A1D6" transform="matrix(1.00, 0.00, -0.00, -1.00, 450.6, 20.0)">s</text><text xml:space="preserve" font-family="Cantarell-Regular" font-size="68.0" fill="#01A1D6" transform="matrix(1.00, 0.00, -0.00, -1.00, 484.3, 20.0)">t</text><text xml:space="preserve" font-family="Cantarell-Regular" font-size="68.0" fill="#01A1D6" transform="matrix(1.00, 0.00, -0.00, -1.00, 510.1, 20.0)">s</text></g></svg>