<?xml version="1.0" encoding="UTF-8" standalone="no"?><svg xmlns="http://www.w3.org/2000/svg" xmlns:xlink="http://www.w3.org/1999/xlink" clip-rule="evenodd" stroke-miterlimit="4.00" viewBox="0 0 2048 1536"><desc>SVG generated by Keynote</desc><defs></defs><g transform="matrix(1.00, 0.00, -0.00, -1.00, 0.0, 1536.0)"><g><clipPath id="clip-144"><path d="M 0.0 1536.0 L 2048.0 1536.0 L 2048.0 0.0 L 0.0 0.0 Z M 0.0 1536.0 "></path></clipPath><g clip-path="url(#clip-144)"><image xlink:href="../../D86CBF58-7E78-4651-B102-65535B1DA1EE/assets/EA215432A0DB698A213B0261797CC710.jpeg" width="1024.00" height="768.00" transform="matrix(2.00, 0.00, -0.00, -2.00, 0.0, 1536.0)"></image></g></g><g opacity="0.03"><g><clipPath id="clip-145"><path d="M 298.0 57.0 L 1680.0 57.0 L 1680.0 1291.0 L 298.0 1291.0 Z M 298.0 57.0 "></path></clipPath><g clip-path="url(#clip-145)"><image xlink:href="../../CE804A6D-391A-4A7D-8DC3-80A60C87D957/assets/2D49A7D5A4DC1FD776D088901E71E439.png" width="500.00" height="446.00" transform="matrix(2.76, 0.00, -0.00, -2.76, 299.0, 1289.0)"></image></g></g></g><text xml:space="preserve" font-family="Novecentosanswide-Medium" font-size="112.0" fill="#FEFFFF" transform="matrix(1.00, 0.00, -0.00, -1.00, 455.0, 1350.0)">A</text><text xml:space="preserve" font-family="Novecentosanswide-Medium" font-size="112.0" fill="#FEFFFF" transform="matrix(1.00, 0.00, -0.00, -1.00, 529.2, 1350.0)">U</text><text xml:space="preserve" font-family="Novecentosanswide-Medium" font-size="112.0" fill="#FEFFFF" transform="matrix(1.00, 0.00, -0.00, -1.00, 603.5, 1350.0)">T</text><text xml:space="preserve" font-family="Novecentosanswide-Medium" font-size="112.0" fill="#FEFFFF" transform="matrix(1.00, 0.00, -0.00, -1.00, 667.5, 1350.0)">O</text><text xml:space="preserve" font-family="Novecentosanswide-Medium" font-size="112.0" fill="#FEFFFF" transform="matrix(1.00, 0.00, -0.00, -1.00, 752.8, 1350.0)">M</text><text xml:space="preserve" font-family="Novecentosanswide-Medium" font-size="112.0" fill="#FEFFFF" transform="matrix(1.00, 0.00, -0.00, -1.00, 839.0, 1350.0)">A</text><text xml:space="preserve" font-family="Novecentosanswide-Medium" font-size="112.0" fill="#FEFFFF" transform="matrix(1.00, 0.00, -0.00, -1.00, 905.4, 1350.0)">T</text><text xml:space="preserve" font-family="Novecentosanswide-Medium" font-size="112.0" fill="#FEFFFF" transform="matrix(1.00, 0.00, -0.00, -1.00, 973.3, 1350.0)">E</text><text xml:space="preserve" font-family="Novecentosanswide-Medium" font-size="112.0" fill="#FEFFFF" transform="matrix(1.00, 0.00, -0.00, -1.00, 1036.7, 1350.0)">D</text><text xml:space="preserve" font-family="Novecentosanswide-Medium" font-size="112.0" fill="#FEFFFF" transform="matrix(1.00, 0.00, -0.00, -1.00, 1115.0, 1350.0)"> </text><text xml:space="preserve" font-family="Novecentosanswide-DemiBold" font-weight="bold" font-size="112.0" fill="#01A1D6" transform="matrix(1.00, 0.00, -0.00, -1.00, 1138.8, 1350.0)">T</text><text xml:space="preserve" font-family="Novecentosanswide-DemiBold" font-weight="bold" font-size="112.0" fill="#01A1D6" transform="matrix(1.00, 0.00, -0.00, -1.00, 1207.5, 1350.0)">E</text><text xml:space="preserve" font-family="Novecentosanswide-DemiBold" font-weight="bold" font-size="112.0" fill="#01A1D6" transform="matrix(1.00, 0.00, -0.00, -1.00, 1271.5, 1350.0)">S</text><text xml:space="preserve" font-family="Novecentosanswide-DemiBold" font-weight="bold" font-size="112.0" fill="#01A1D6" transform="matrix(1.00, 0.00, -0.00, -1.00, 1335.0, 1350.0)">T</text><text xml:space="preserve" font-family="Novecentosanswide-DemiBold" font-weight="bold" font-size="112.0" fill="#01A1D6" transform="matrix(1.00, 0.00, -0.00, -1.00, 1403.8, 1350.0)">I</text><text xml:space="preserve" font-family="Novecentosanswide-DemiBold" font-weight="bold" font-size="112.0" fill="#01A1D6" transform="matrix(1.00, 0.00, -0.00, -1.00, 1429.2, 1350.0)">N</text><text xml:space="preserve" font-family="Novecentosanswide-DemiBold" font-weight="bold" font-size="112.0" fill="#01A1D6" transform="matrix(1.00, 0.00, -0.00, -1.00, 1508.1, 1350.0)">G</text><text xml:space="preserve" font-family="Cantarell-Regular" font-size="68.0" fill="#01A1D6" transform="matrix(1.00, 0.00, -0.00, -1.00, 862.0, 1255.0)">U</text><text xml:space="preserve" font-family="Cantarell-Regular" font-size="68.0" fill="#01A1D6" transform="matrix(1.00, 0.00, -0.00, -1.00, 914.6, 1255.0)">n</text><text xml:space="preserve" font-family="Cantarell-Regular" font-size="68.0" fill="#01A1D6" transform="matrix(1.00, 0.00, -0.00, -1.00, 953.6, 1255.0)">i</text><text xml:space="preserve" font-family="Cantarell-Regular" font-size="68.0" fill="#01A1D6" transform="matrix(1.00, 0.00, -0.00, -1.00, 971.0, 1255.0)">t</text><text xml:space="preserve" font-family="Cantarell-Regular" font-size="68.0" fill="#01A1D6" transform="matrix(1.00, 0.00, -0.00, -1.00, 996.8, 1255.0)"> </text><text xml:space="preserve" font-family="Cantarell-Regular" font-size="68.0" fill="#01A1D6" transform="matrix(1.00, 0.00, -0.00, -1.00, 1015.4, 1255.0)">T</text><text xml:space="preserve" font-family="Cantarell-Regular" font-size="68.0" fill="#01A1D6" transform="matrix(1.00, 0.00, -0.00, -1.00, 1055.5, 1255.0)">e</text><text xml:space="preserve" font-family="Cantarell-Regular" font-size="68.0" fill="#01A1D6" transform="matrix(1.00, 0.00, -0.00, -1.00, 1092.2, 1255.0)">s</text><text xml:space="preserve" font-family="Cantarell-Regular" font-size="68.0" fill="#01A1D6" transform="matrix(1.00, 0.00, -0.00, -1.00, 1125.9, 1255.0)">t</text><text xml:space="preserve" font-family="Cantarell-Regular" font-size="68.0" fill="#01A1D6" transform="matrix(1.00, 0.00, -0.00, -1.00, 1151.7, 1255.0)">s</text><image xlink:href="../../D86CBF58-7E78-4651-B102-65535B1DA1EE/assets/7AEFD6CB8CCF5ECCEC00E2DFD088389D.png" width="360.00" height="90.00" transform="matrix(1.00, 0.00, -0.00, -1.00, 48.0, 156.0)"></image><text xml:space="preserve" font-family="Novecentosanswide-Medium" font-size="28.0" fill="#84929B" transform="matrix(1.00, 0.00, -0.00, -1.00, 878.0, 105.0)">g</text><text xml:space="preserve" font-family="Novecentosanswide-Medium" font-size="28.0" fill="#84929B" transform="matrix(1.00, 0.00, -0.00, -1.00, 896.8, 105.0)">i</text><text xml:space="preserve" font-family="Novecentosanswide-Medium" font-size="28.0" fill="#84929B" transform="matrix(1.00, 0.00, -0.00, -1.00, 903.6, 105.0)">t</text><text xml:space="preserve" font-family="Novecentosanswide-Medium" font-size="28.0" fill="#84929B" transform="matrix(1.00, 0.00, -0.00, -1.00, 919.1, 105.0)">h</text><text xml:space="preserve" font-family="Novecentosanswide-Medium" font-size="28.0" fill="#84929B" transform="matrix(1.00, 0.00, -0.00, -1.00, 936.4, 105.0)">u</text><text xml:space="preserve" font-family="Novecentosanswide-Medium" font-size="28.0" fill="#84929B" transform="matrix(1.00, 0.00, -0.00, -1.00, 953.8, 105.0)">b</text><text xml:space="preserve" font-family="Novecentosanswide-Medium" font-size="28.0" fill="#84929B" transform="matrix(1.00, 0.00, -0.00, -1.00, 969.1, 105.0)">.</text><text xml:space="preserve" font-family="Novecentosanswide-Medium" font-size="28.0" fill="#84929B" transform="matrix(1.00, 0.00, -0.00, -1.00, 975.2, 105.0)">c</text><text xml:space="preserve" font-family="Novecentosanswide-Medium" font-size="28.0" fill="#84929B" transform="matrix(1.00, 0.00, -0.00, -1.00, 993.1, 105.0)">o</text><text xml:space="preserve" font-family="Novecentosanswide-Medium" font-size="28.0" fill="#84929B" transform="matrix(1.00, 0.00, -0.00, -1.00, 1011.7, 105.0)">m</text><text xml:space="preserve" font-family="Novecentosanswide-Medium" font-size="28.0" fill="#84929B" transform="matrix(1.00, 0.00, -0.00, -1.00, 1031.5, 105.0)">/</text><text xml:space="preserve" font-family="Novecentosanswide-Medium" font-size="28.0" fill="#84929B" transform="matrix(1.00, 0.00, -0.00, -1.00, 1045.7, 105.0)">r</text><text xml:space="preserve" font-family="Novecentosanswide-Medium" font-size="28.0" fill="#84929B" transform="matrix(1.00, 0.00, -0.00, -1.00, 1061.1, 105.0)">e</text><text xml:space="preserve" font-family="Novecentosanswide-Medium" font-size="28.0" fill="#84929B" transform="matrix(1.00, 0.00, -0.00, -1.00, 1075.9, 105.0)">a</text><text xml:space="preserve" font-family="Novecentosanswide-Medium" font-size="28.0" fill="#84929B" transform="matrix(1.00, 0.00, -0.00, -1.00, 1092.9, 105.0)">l</text><text xml:space="preserve" font-family="Novecentosanswide-Medium" font-size="28.0" fill="#84929B" transform="matrix(1.00, 0.00, -0.00, -1.00, 1106.5, 105.0)">p</text><text xml:space="preserve" font-family="Novecentosanswide-Medium" font-size="28.0" fill="#84929B" transform="matrix(1.00, 0.00, -0.00, -1.00, 1119.4, 105.0)">a</text><text xml:space="preserve" font-family="Novecentosanswide-Medium" font-size="28.0" fill="#84929B" transform="matrix(1.00, 0.00, -0.00, -1.00, 1135.7, 105.0)">g</text><text xml:space="preserve" font-family="Novecentosanswide-Medium" font-size="28.0" fill="#84929B" transform="matrix(1.00, 0.00, -0.00, -1.00, 1154.5, 105.0)">e</text><text xml:space="preserve" font-family="Cantarell-Regular" font-size="28.0" fill="#84929B" transform="matrix(1.00, 0.00, -0.00, -1.00, 1169.4, 105.0)"> </text><text xml:space="preserve" font-family="Cantarell-Regular" font-size="50.0" fill="#D8D8D8" transform="matrix(1.00, 0.00, -0.00, -1.00, 102.0, 1002.3)">•</text><text xml:space="preserve" font-family="Cantarell-Regular" font-size="50.0" fill="#D8D8D8" transform="matrix(1.00, 0.00, -0.00, -1.00, 120.0, 1002.0)"> </text><text xml:space="preserve" font-family="Cantarell-Regular" font-size="50.0" fill="#D8D8D8" transform="matrix(1.00, 0.00, -0.00, -1.00, 133.7, 1002.0)">S</text><text xml:space="preserve" font-family="Cantarell-Regular" font-size="50.0" fill="#D8D8D8" transform="matrix(1.00, 0.00, -0.00, -1.00, 166.9, 1002.0)">t</text><text xml:space="preserve" font-family="Cantarell-Regular" font-size="50.0" fill="#D8D8D8" transform="matrix(1.00, 0.00, -0.00, -1.00, 185.8, 1002.0)">a</text><text xml:space="preserve" font-family="Cantarell-Regular" font-size="50.0" fill="#D8D8D8" transform="matrix(1.00, 0.00, -0.00, -1.00, 211.9, 1002.0)">n</text><text xml:space="preserve" font-family="Cantarell-Regular" font-size="50.0" fill="#D8D8D8" transform="matrix(1.00, 0.00, -0.00, -1.00, 240.7, 1002.0)">d</text><text xml:space="preserve" font-family="Cantarell-Regular" font-size="50.0" fill="#D8D8D8" transform="matrix(1.00, 0.00, -0.00, -1.00, 269.7, 1002.0)">a</text><text xml:space="preserve" font-family="Cantarell-Regular" font-size="50.0" fill="#D8D8D8" transform="matrix(1.00, 0.00, -0.00, -1.00, 295.8, 1002.0)">r</text><text xml:space="preserve" font-family="Cantarell-Regular" font-size="50.0" fill="#D8D8D8" transform="matrix(1.00, 0.00, -0.00, -1.00, 315.3, 1002.0)">d</text><text xml:space="preserve" font-family="Cantarell-Regular" font-size="50.0" fill="#D8D8D8" transform="matrix(1.00, 0.00, -0.00, -1.00, 344.3, 1002.0)"> </text><text xml:space="preserve" font-family="Cantarell-Regular" font-size="50.0" fill="#D8D8D8" transform="matrix(1.00, 0.00, -0.00, -1.00, 358.0, 1002.0)">i</text><text xml:space="preserve" font-family="Cantarell-Regular" font-size="50.0" fill="#D8D8D8" transform="matrix(1.00, 0.00, -0.00, -1.00, 370.8, 1002.0)">n</text><text xml:space="preserve" font-family="Cantarell-Regular" font-size="50.0" fill="#D8D8D8" transform="matrix(1.00, 0.00, -0.00, -1.00, 399.5, 1002.0)">p</text><text xml:space="preserve" font-family="Cantarell-Regular" font-size="50.0" fill="#D8D8D8" transform="matrix(1.00, 0.00, -0.00, -1.00, 428.3, 1002.0)">u</text><text xml:space="preserve" font-family="Cantarell-Regular" font-size="50.0" fill="#D8D8D8" transform="matrix(1.00, 0.00, -0.00, -1.00, 457.0, 1002.0)">t</text><text xml:space="preserve" font-family="Cantarell-Regular" font-size="50.0" fill="#D8D8D8" transform="matrix(1.00, 0.00, -0.00, -1.00, 475.9, 1002.0)">/</text><text xml:space="preserve" font-family="Cantarell-Regular" font-size="50.0" fill="#D8D8D8" transform="matrix(1.00, 0.00, -0.00, -1.00, 493.7, 1002.0)">o</text><text xml:space="preserve" font-family="Cantarell-Regular" font-size="50.0" fill="#D8D8D8" transform="matrix(1.00, 0.00, -0.00, -1.00, 523.2, 1002.0)">u</text><text xml:space="preserve" font-family="Cantarell-Regular" font-size="50.0" fill="#D8D8D8" transform="matrix(1.00, 0.00, -0.00, -1.00, 552.0, 1002.0)">t</text><text xml:space="preserve" font-family="Cantarell-Regular" font-size="50.0" fill="#D8D8D8" transform="matrix(1.00, 0.00, -0.00, -1.00, 570.9, 1002.0)">p</text><text xml:space="preserve" font-family="Cantarell-Regular" font-size="50.0" fill="#D8D8D8" transform="matrix(1.00, 0.00, -0.00, -1.00, 599.6, 1002.0)">u</text><text xml:space="preserve" font-family="Cantarell-Regular" font-size="50.0" fill="#D8D8D8" transform="matrix(1.00, 0.00, -0.00, -1.00, 628.4, 1002.0)">t</text><text xml:space="preserve" font-family="Cantarell-Regular" font-size="50.0" fill="#D8D8D8" transform="matrix(1.00, 0.00, -0.00, -1.00, 647.3, 1002.0)"> </text><text xml:space="preserve" font-family="Cantarell-Regular" font-size="50.0" fill="#D8D8D8" transform="matrix(1.00, 0.00, -0.00, -1.00, 120.0, 931.0)">t</text><text xml:space="preserve" font-family="Cantarell-Regular" font-size="50.0" fill="#D8D8D8" transform="matrix(1.00, 0.00, -0.00, -1.00, 138.9, 931.0)">e</text><text xml:space="preserve" font-family="Cantarell-Regular" font-size="50.0" fill="#D8D8D8" transform="matrix(1.00, 0.00, -0.00, -1.00, 165.9, 931.0)">s</text><text xml:space="preserve" font-family="Cantarell-Regular" font-size="50.0" fill="#D8D8D8" transform="matrix(1.00, 0.00, -0.00, -1.00, 190.7, 931.0)">t</text><text xml:space="preserve" font-family="Cantarell-Regular" font-size="50.0" fill="#D8D8D8" transform="matrix(1.00, 0.00, -0.00, -1.00, 209.6, 931.0)">i</text><text xml:space="preserve" font-family="Cantarell-Regular" font-size="50.0" fill="#D8D8D8" transform="matrix(1.00, 0.00, -0.00, -1.00, 222.4, 931.0)">n</text><text xml:space="preserve" font-family="Cantarell-Regular" font-size="50.0" fill="#D8D8D8" transform="matrix(1.00, 0.00, -0.00, -1.00, 251.1, 931.0)">g</text><text xml:space="preserve" font-family="Cantarell-Regular" font-size="50.0" fill="#D8D8D8" transform="matrix(1.00, 0.00, -0.00, -1.00, 102.0, 810.3)">•</text><text xml:space="preserve" font-family="Cantarell-Regular" font-size="50.0" fill="#D8D8D8" transform="matrix(1.00, 0.00, -0.00, -1.00, 120.0, 810.0)"> </text><text xml:space="preserve" font-family="Cantarell-Regular" font-size="50.0" fill="#D8D8D8" transform="matrix(1.00, 0.00, -0.00, -1.00, 133.7, 810.0)">U</text><text xml:space="preserve" font-family="Cantarell-Regular" font-size="50.0" fill="#D8D8D8" transform="matrix(1.00, 0.00, -0.00, -1.00, 172.3, 810.0)">s</text><text xml:space="preserve" font-family="Cantarell-Regular" font-size="50.0" fill="#D8D8D8" transform="matrix(1.00, 0.00, -0.00, -1.00, 197.2, 810.0)">e</text><text xml:space="preserve" font-family="Cantarell-Regular" font-size="50.0" fill="#D8D8D8" transform="matrix(1.00, 0.00, -0.00, -1.00, 224.1, 810.0)"> </text><text xml:space="preserve" font-family="Cantarell-Regular" font-size="50.0" fill="#D8D8D8" transform="matrix(1.00, 0.00, -0.00, -1.00, 237.8, 810.0)">M</text><text xml:space="preserve" font-family="Cantarell-Regular" font-size="50.0" fill="#D8D8D8" transform="matrix(1.00, 0.00, -0.00, -1.00, 283.7, 810.0)">o</text><text xml:space="preserve" font-family="Cantarell-Regular" font-size="50.0" fill="#D8D8D8" transform="matrix(1.00, 0.00, -0.00, -1.00, 313.3, 810.0)">c</text><text xml:space="preserve" font-family="Cantarell-Regular" font-size="50.0" fill="#D8D8D8" transform="matrix(1.00, 0.00, -0.00, -1.00, 337.7, 810.0)">k</text><text xml:space="preserve" font-family="Cantarell-Regular" font-size="50.0" fill="#D8D8D8" transform="matrix(1.00, 0.00, -0.00, -1.00, 363.9, 810.0)">e</text><text xml:space="preserve" font-family="Cantarell-Regular" font-size="50.0" fill="#D8D8D8" transform="matrix(1.00, 0.00, -0.00, -1.00, 390.8, 810.0)">r</text><text xml:space="preserve" font-family="Cantarell-Regular" font-size="50.0" fill="#D8D8D8" transform="matrix(1.00, 0.00, -0.00, -1.00, 410.4, 810.0)">y</text><text xml:space="preserve" font-family="Cantarell-Regular" font-size="50.0" fill="#D8D8D8" transform="matrix(1.00, 0.00, -0.00, -1.00, 436.3, 810.0)"> </text><text xml:space="preserve" font-family="Cantarell-Regular" font-size="50.0" fill="#D8D8D8" transform="matrix(1.00, 0.00, -0.00, -1.00, 449.9, 810.0)">t</text><text xml:space="preserve" font-family="Cantarell-Regular" font-size="50.0" fill="#D8D8D8" transform="matrix(1.00, 0.00, -0.00, -1.00, 468.9, 810.0)">o</text><text xml:space="preserve" font-family="Cantarell-Regular" font-size="50.0" fill="#D8D8D8" transform="matrix(1.00, 0.00, -0.00, -1.00, 498.5, 810.0)"> </text><text xml:space="preserve" font-family="Cantarell-Regular" font-size="50.0" fill="#D8D8D8" transform="matrix(1.00, 0.00, -0.00, -1.00, 512.2, 810.0)">m</text><text xml:space="preserve" font-family="Cantarell-Regular" font-size="50.0" fill="#D8D8D8" transform="matrix(1.00, 0.00, -0.00, -1.00, 554.5, 810.0)">o</text><text xml:space="preserve" font-family="Cantarell-Regular" font-size="50.0" fill="#D8D8D8" transform="matrix(1.00, 0.00, -0.00, -1.00, 584.1, 810.0)">c</text><text xml:space="preserve" font-family="Cantarell-Regular" font-size="50.0" fill="#D8D8D8" transform="matrix(1.00, 0.00, -0.00, -1.00, 608.5, 810.0)">k</text><text xml:space="preserve" font-family="Cantarell-Regular" font-size="50.0" fill="#D8D8D8" transform="matrix(1.00, 0.00, -0.00, -1.00, 634.6, 810.0)"> </text><text xml:space="preserve" font-family="Cantarell-Regular" font-size="50.0" fill="#D8D8D8" transform="matrix(1.00, 0.00, -0.00, -1.00, 120.0, 739.0)">o</text><text xml:space="preserve" font-family="Cantarell-Regular" font-size="50.0" fill="#D8D8D8" transform="matrix(1.00, 0.00, -0.00, -1.00, 149.6, 739.0)">b</text><text xml:space="preserve" font-family="Cantarell-Regular" font-size="50.0" fill="#D8D8D8" transform="matrix(1.00, 0.00, -0.00, -1.00, 178.4, 739.0)">j</text><text xml:space="preserve" font-family="Cantarell-Regular" font-size="50.0" fill="#D8D8D8" transform="matrix(1.00, 0.00, -0.00, -1.00, 191.2, 739.0)">e</text><text xml:space="preserve" font-family="Cantarell-Regular" font-size="50.0" fill="#D8D8D8" transform="matrix(1.00, 0.00, -0.00, -1.00, 218.2, 739.0)">c</text><text xml:space="preserve" font-family="Cantarell-Regular" font-size="50.0" fill="#D8D8D8" transform="matrix(1.00, 0.00, -0.00, -1.00, 242.6, 739.0)">t</text><text xml:space="preserve" font-family="Cantarell-Regular" font-size="50.0" fill="#D8D8D8" transform="matrix(1.00, 0.00, -0.00, -1.00, 261.5, 739.0)">s</text><text xml:space="preserve" font-family="Cantarell-Regular" font-size="50.0" fill="#D8D8D8" transform="matrix(1.00, 0.00, -0.00, -1.00, 102.0, 618.3)">•</text><text xml:space="preserve" font-family="Cantarell-Regular" font-size="50.0" fill="#D8D8D8" transform="matrix(1.00, 0.00, -0.00, -1.00, 120.0, 618.0)"> </text><text xml:space="preserve" font-family="Cantarell-Regular" font-size="50.0" fill="#D8D8D8" transform="matrix(1.00, 0.00, -0.00, -1.00, 133.7, 618.0)">H</text><text xml:space="preserve" font-family="Cantarell-Regular" font-size="50.0" fill="#D8D8D8" transform="matrix(1.00, 0.00, -0.00, -1.00, 172.8, 618.0)">a</text><text xml:space="preserve" font-family="Cantarell-Regular" font-size="50.0" fill="#D8D8D8" transform="matrix(1.00, 0.00, -0.00, -1.00, 198.9, 618.0)">s</text><text xml:space="preserve" font-family="Cantarell-Regular" font-size="50.0" fill="#D8D8D8" transform="matrix(1.00, 0.00, -0.00, -1.00, 223.7, 618.0)"> </text><text xml:space="preserve" font-family="Cantarell-Regular" font-size="50.0" fill="#D8D8D8" transform="matrix(1.00, 0.00, -0.00, -1.00, 237.4, 618.0)">a</text><text xml:space="preserve" font-family="Cantarell-Regular" font-size="50.0" fill="#D8D8D8" transform="matrix(1.00, 0.00, -0.00, -1.00, 263.5, 618.0)">b</text><text xml:space="preserve" font-family="Cantarell-Regular" font-size="50.0" fill="#D8D8D8" transform="matrix(1.00, 0.00, -0.00, -1.00, 292.3, 618.0)">o</text><text xml:space="preserve" font-family="Cantarell-Regular" font-size="50.0" fill="#D8D8D8" transform="matrix(1.00, 0.00, -0.00, -1.00, 321.9, 618.0)">u</text><text xml:space="preserve" font-family="Cantarell-Regular" font-size="50.0" fill="#D8D8D8" transform="matrix(1.00, 0.00, -0.00, -1.00, 350.6, 618.0)">t</text><text xml:space="preserve" font-family="Cantarell-Regular" font-size="50.0" fill="#D8D8D8" transform="matrix(1.00, 0.00, -0.00, -1.00, 369.6, 618.0)"> </text><text xml:space="preserve" font-family="Cantarell-Regular" font-size="50.0" fill="#D8D8D8" transform="matrix(1.00, 0.00, -0.00, -1.00, 383.3, 618.0)">5</text><text xml:space="preserve" font-family="Cantarell-Regular" font-size="50.0" fill="#D8D8D8" transform="matrix(1.00, 0.00, -0.00, -1.00, 415.0, 618.0)">0</text><text xml:space="preserve" font-family="Cantarell-Regular" font-size="50.0" fill="#D8D8D8" transform="matrix(1.00, 0.00, -0.00, -1.00, 446.7, 618.0)"> </text><text xml:space="preserve" font-family="Cantarell-Regular" font-size="50.0" fill="#D8D8D8" transform="matrix(1.00, 0.00, -0.00, -1.00, 460.4, 618.0)">a</text><text xml:space="preserve" font-family="Cantarell-Regular" font-size="50.0" fill="#D8D8D8" transform="matrix(1.00, 0.00, -0.00, -1.00, 486.5, 618.0)">s</text><text xml:space="preserve" font-family="Cantarell-Regular" font-size="50.0" fill="#D8D8D8" transform="matrix(1.00, 0.00, -0.00, -1.00, 511.3, 618.0)">s</text><text xml:space="preserve" font-family="Cantarell-Regular" font-size="50.0" fill="#D8D8D8" transform="matrix(1.00, 0.00, -0.00, -1.00, 536.1, 618.0)">e</text><text xml:space="preserve" font-family="Cantarell-Regular" font-size="50.0" fill="#D8D8D8" transform="matrix(1.00, 0.00, -0.00, -1.00, 563.0, 618.0)">r</text><text xml:space="preserve" font-family="Cantarell-Regular" font-size="50.0" fill="#D8D8D8" transform="matrix(1.00, 0.00, -0.00, -1.00, 582.6, 618.0)">t</text><text xml:space="preserve" font-family="Cantarell-Regular" font-size="50.0" fill="#D8D8D8" transform="matrix(1.00, 0.00, -0.00, -1.00, 601.5, 618.0)">i</text><text xml:space="preserve" font-family="Cantarell-Regular" font-size="50.0" fill="#D8D8D8" transform="matrix(1.00, 0.00, -0.00, -1.00, 614.3, 618.0)">o</text><text xml:space="preserve" font-family="Cantarell-Regular" font-size="50.0" fill="#D8D8D8" transform="matrix(1.00, 0.00, -0.00, -1.00, 643.9, 618.0)">n</text><text xml:space="preserve" font-family="Cantarell-Regular" font-size="50.0" fill="#D8D8D8" transform="matrix(1.00, 0.00, -0.00, -1.00, 672.6, 618.0)"> </text><text xml:space="preserve" font-family="Cantarell-Regular" font-size="50.0" fill="#D8D8D8" transform="matrix(1.00, 0.00, -0.00, -1.00, 120.0, 547.0)">m</text><text xml:space="preserve" font-family="Cantarell-Regular" font-size="50.0" fill="#D8D8D8" transform="matrix(1.00, 0.00, -0.00, -1.00, 162.3, 547.0)">e</text><text xml:space="preserve" font-family="Cantarell-Regular" font-size="50.0" fill="#D8D8D8" transform="matrix(1.00, 0.00, -0.00, -1.00, 189.2, 547.0)">t</text><text xml:space="preserve" font-family="Cantarell-Regular" font-size="50.0" fill="#D8D8D8" transform="matrix(1.00, 0.00, -0.00, -1.00, 208.2, 547.0)">h</text><text xml:space="preserve" font-family="Cantarell-Regular" font-size="50.0" fill="#D8D8D8" transform="matrix(1.00, 0.00, -0.00, -1.00, 237.2, 547.0)">o</text><text xml:space="preserve" font-family="Cantarell-Regular" font-size="50.0" fill="#D8D8D8" transform="matrix(1.00, 0.00, -0.00, -1.00, 266.8, 547.0)">d</text><text xml:space="preserve" font-family="Cantarell-Regular" font-size="50.0" fill="#D8D8D8" transform="matrix(1.00, 0.00, -0.00, -1.00, 295.8, 547.0)">s</text><text xml:space="preserve" font-family="Cantarell-Regular" font-size="50.0" fill="#D8D8D8" transform="matrix(1.00, 0.00, -0.00, -1.00, 320.6, 547.0)">:</text><text xml:space="preserve" font-family="Cantarell-Regular" font-size="50.0" fill="#D8D8D8" transform="matrix(1.00, 0.00, -0.00, -1.00, 334.6, 547.0)"> </text><text xml:space="preserve" font-family="Cantarell-Regular" font-size="50.0" fill="#D8D8D8" transform="matrix(1.00, 0.00, -0.00, -1.00, 120.0, 476.0)">a</text><text xml:space="preserve" font-family="Cantarell-Regular" font-size="50.0" fill="#D8D8D8" transform="matrix(1.00, 0.00, -0.00, -1.00, 146.1, 476.0)">s</text><text xml:space="preserve" font-family="Cantarell-Regular" font-size="50.0" fill="#D8D8D8" transform="matrix(1.00, 0.00, -0.00, -1.00, 170.9, 476.0)">s</text><text xml:space="preserve" font-family="Cantarell-Regular" font-size="50.0" fill="#D8D8D8" transform="matrix(1.00, 0.00, -0.00, -1.00, 195.7, 476.0)">e</text><text xml:space="preserve" font-family="Cantarell-Regular" font-size="50.0" fill="#D8D8D8" transform="matrix(1.00, 0.00, -0.00, -1.00, 222.6, 476.0)">r</text><text xml:space="preserve" font-family="Cantarell-Regular" font-size="50.0" fill="#D8D8D8" transform="matrix(1.00, 0.00, -0.00, -1.00, 242.2, 476.0)">t</text><text xml:space="preserve" font-family="Cantarell-Regular" font-size="50.0" fill="#D8D8D8" transform="matrix(1.00, 0.00, -0.00, -1.00, 261.1, 476.0)">I</text><text xml:space="preserve" font-family="Cantarell-Regular" font-size="50.0" fill="#D8D8D8" transform="matrix(1.00, 0.00, -0.00, -1.00, 279.0, 476.0)">n</text><text xml:space="preserve" font-family="Cantarell-Regular" font-size="50.0" fill="#D8D8D8" transform="matrix(1.00, 0.00, -0.00, -1.00, 307.7, 476.0)">s</text><text xml:space="preserve" font-family="Cantarell-Regular" font-size="50.0" fill="#D8D8D8" transform="matrix(1.00, 0.00, -0.00, -1.00, 332.5, 476.0)">t</text><text xml:space="preserve" font-family="Cantarell-Regular" font-size="50.0" fill="#D8D8D8" transform="matrix(1.00, 0.00, -0.00, -1.00, 351.4, 476.0)">a</text><text xml:space="preserve" font-family="Cantarell-Regular" font-size="50.0" fill="#D8D8D8" transform="matrix(1.00, 0.00, -0.00, -1.00, 377.5, 476.0)">n</text><text xml:space="preserve" font-family="Cantarell-Regular" font-size="50.0" fill="#D8D8D8" transform="matrix(1.00, 0.00, -0.00, -1.00, 406.3, 476.0)">c</text><text xml:space="preserve" font-family="Cantarell-Regular" font-size="50.0" fill="#D8D8D8" transform="matrix(1.00, 0.00, -0.00, -1.00, 430.7, 476.0)">e</text><text xml:space="preserve" font-family="Cantarell-Regular" font-size="50.0" fill="#D8D8D8" transform="matrix(1.00, 0.00, -0.00, -1.00, 457.6, 476.0)">O</text><text xml:space="preserve" font-family="Cantarell-Regular" font-size="50.0" fill="#D8D8D8" transform="matrix(1.00, 0.00, -0.00, -1.00, 498.8, 476.0)">f</text><text xml:space="preserve" font-family="Cantarell-Regular" font-size="50.0" fill="#D8D8D8" transform="matrix(1.00, 0.00, -0.00, -1.00, 518.8, 476.0)">(</text><text xml:space="preserve" font-family="Cantarell-Regular" font-size="50.0" fill="#D8D8D8" transform="matrix(1.00, 0.00, -0.00, -1.00, 536.9, 476.0)">)</text><text xml:space="preserve" font-family="Cantarell-Regular" font-size="50.0" fill="#D8D8D8" transform="matrix(1.00, 0.00, -0.00, -1.00, 555.1, 476.0)">,</text><text xml:space="preserve" font-family="Cantarell-Regular" font-size="50.0" fill="#D8D8D8" transform="matrix(1.00, 0.00, -0.00, -1.00, 569.0, 476.0)"> </text><text xml:space="preserve" font-family="Cantarell-Regular" font-size="50.0" fill="#D8D8D8" transform="matrix(1.00, 0.00, -0.00, -1.00, 120.0, 405.0)">a</text><text xml:space="preserve" font-family="Cantarell-Regular" font-size="50.0" fill="#D8D8D8" transform="matrix(1.00, 0.00, -0.00, -1.00, 146.1, 405.0)">s</text><text xml:space="preserve" font-family="Cantarell-Regular" font-size="50.0" fill="#D8D8D8" transform="matrix(1.00, 0.00, -0.00, -1.00, 170.9, 405.0)">s</text><text xml:space="preserve" font-family="Cantarell-Regular" font-size="50.0" fill="#D8D8D8" transform="matrix(1.00, 0.00, -0.00, -1.00, 195.7, 405.0)">e</text><text xml:space="preserve" font-family="Cantarell-Regular" font-size="50.0" fill="#D8D8D8" transform="matrix(1.00, 0.00, -0.00, -1.00, 222.6, 405.0)">r</text><text xml:space="preserve" font-family="Cantarell-Regular" font-size="50.0" fill="#D8D8D8" transform="matrix(1.00, 0.00, -0.00, -1.00, 242.2, 405.0)">t</text><text xml:space="preserve" font-family="Cantarell-Regular" font-size="50.0" fill="#D8D8D8" transform="matrix(1.00, 0.00, -0.00, -1.00, 261.1, 405.0)">A</text><text xml:space="preserve" font-family="Cantarell-Regular" font-size="50.0" fill="#D8D8D8" transform="matrix(1.00, 0.00, -0.00, -1.00, 294.9, 405.0)">r</text><text xml:space="preserve" font-family="Cantarell-Regular" font-size="50.0" fill="#D8D8D8" transform="matrix(1.00, 0.00, -0.00, -1.00, 314.5, 405.0)">r</text><text xml:space="preserve" font-family="Cantarell-Regular" font-size="50.0" fill="#D8D8D8" transform="matrix(1.00, 0.00, -0.00, -1.00, 334.0, 405.0)">a</text><text xml:space="preserve" font-family="Cantarell-Regular" font-size="50.0" fill="#D8D8D8" transform="matrix(1.00, 0.00, -0.00, -1.00, 360.1, 405.0)">y</text><text xml:space="preserve" font-family="Cantarell-Regular" font-size="50.0" fill="#D8D8D8" transform="matrix(1.00, 0.00, -0.00, -1.00, 386.0, 405.0)">H</text><text xml:space="preserve" font-family="Cantarell-Regular" font-size="50.0" fill="#D8D8D8" transform="matrix(1.00, 0.00, -0.00, -1.00, 425.1, 405.0)">a</text><text xml:space="preserve" font-family="Cantarell-Regular" font-size="50.0" fill="#D8D8D8" transform="matrix(1.00, 0.00, -0.00, -1.00, 451.2, 405.0)">s</text><text xml:space="preserve" font-family="Cantarell-Regular" font-size="50.0" fill="#D8D8D8" transform="matrix(1.00, 0.00, -0.00, -1.00, 476.0, 405.0)">K</text><text xml:space="preserve" font-family="Cantarell-Regular" font-size="50.0" fill="#D8D8D8" transform="matrix(1.00, 0.00, -0.00, -1.00, 510.6, 405.0)">e</text><text xml:space="preserve" font-family="Cantarell-Regular" font-size="50.0" fill="#D8D8D8" transform="matrix(1.00, 0.00, -0.00, -1.00, 537.5, 405.0)">y</text><text xml:space="preserve" font-family="Cantarell-Regular" font-size="50.0" fill="#D8D8D8" transform="matrix(1.00, 0.00, -0.00, -1.00, 563.3, 405.0)">(</text><text xml:space="preserve" font-family="Cantarell-Regular" font-size="50.0" fill="#D8D8D8" transform="matrix(1.00, 0.00, -0.00, -1.00, 581.5, 405.0)">)</text><text xml:space="preserve" font-family="Cantarell-Regular" font-size="50.0" fill="#D8D8D8" transform="matrix(1.00, 0.00, -0.00, -1.00, 599.6, 405.0)">,</text><text xml:space="preserve" font-family="Cantarell-Regular" font-size="50.0" fill="#D8D8D8" transform="matrix(1.00, 0.00, -0.00, -1.00, 613.5, 405.0)"> </text><text xml:space="preserve" font-family="Cantarell-Regular" font-size="50.0" fill="#D8D8D8" transform="matrix(1.00, 0.00, -0.00, -1.00, 627.2, 405.0)">e</text><text xml:space="preserve" font-family="Cantarell-Regular" font-size="50.0" fill="#D8D8D8" transform="matrix(1.00, 0.00, -0.00, -1.00, 654.1, 405.0)">t</text><text xml:space="preserve" font-family="Cantarell-Regular" font-size="50.0" fill="#D8D8D8" transform="matrix(1.00, 0.00, -0.00, -1.00, 673.1, 405.0)">c</text><text xml:space="preserve" font-family="Cantarell-Regular" font-size="50.0" fill="#D8D8D8" transform="matrix(1.00, 0.00, -0.00, -1.00, 697.5, 405.0)">.</text><image xlink:href="../../CC3FECA9-25D6-4038-B3DA-7A78E0F077AF/assets/A47E9D2699C5B980D7E59DD108EC59D8.png" width="1221.00" height="570.00" transform="matrix(1.00, 0.00, -0.00, -1.00, 764.5, 1043.0)" opacity="0.70"></image><image xlink:href="../../CC3FECA9-25D6-4038-B3DA-7A78E0F077AF/assets/48B6CEF9E766998ABE939E2E8E160A8A.png" width="780.00" height="350.00" transform="matrix(1.51, 0.00, -0.00, -1.51, 785.0, 1033.0)"></image></g></svg>