<?xml version="1.0" encoding="UTF-8" standalone="no"?><svg xmlns="http://www.w3.org/2000/svg" xmlns:xlink="http://www.w3.org/1999/xlink" clip-rule="evenodd" stroke-miterlimit="4.00" viewBox="0 0 2048 1536"><desc>SVG generated by Keynote</desc><defs></defs><g transform="matrix(1.00, 0.00, -0.00, -1.00, 0.0, 1536.0)"><g><clipPath id="clip-146"><path d="M 0.0 1536.0 L 2048.0 1536.0 L 2048.0 0.0 L 0.0 0.0 Z M 0.0 1536.0 "></path></clipPath><g clip-path="url(#clip-146)"><image xlink:href="../../D86CBF58-7E78-4651-B102-65535B1DA1EE/assets/EA215432A0DB698A213B0261797CC710.jpeg" width="1024.00" height="768.00" transform="matrix(2.00, 0.00, -0.00, -2.00, 0.0, 1536.0)"></image></g></g><g opacity="0.03"><g><clipPath id="clip-147"><path d="M 298.0 57.0 L 1680.0 57.0 L 1680.0 1291.0 L 298.0 1291.0 Z M 298.0 57.0 "></path></clipPath><g clip-path="url(#clip-147)"><image xlink:href="../../CE804A6D-391A-4A7D-8DC3-80A60C87D957/assets/2D49A7D5A4DC1FD776D088901E71E439.png" width="500.00" height="446.00" transform="matrix(2.76, 0.00, -0.00, -2.76, 299.0, 1289.0)"></image></g></g></g><text xml:space="preserve" font-family="Novecentosanswide-Medium" font-size="112.0" fill="#FEFFFF" transform="matrix(1.00, 0.00, -0.00, -1.00, 455.0, 1350.0)">A</text><text xml:space="preserve" font-family="Novecentosanswide-Medium" font-size="112.0" fill="#FEFFFF" transform="matrix(1.00, 0.00, -0.00, -1.00, 529.2, 1350.0)">U</text><text xml:space="preserve" font-family="Novecentosanswide-Medium" font-size="112.0" fill="#FEFFFF" transform="matrix(1.00, 0.00, -0.00, -1.00, 603.5, 1350.0)">T</text><text xml:space="preserve" font-family="Novecentosanswide-Medium" font-size="112.0" fill="#FEFFFF" transform="matrix(1.00, 0.00, -0.00, -1.00, 667.5, 1350.0)">O</text><text xml:space="preserve" font-family="Novecentosanswide-Medium" font-size="112.0" fill="#FEFFFF" transform="matrix(1.00, 0.00, -0.00, -1.00, 752.8, 1350.0)">M</text><text xml:space="preserve" font-family="Novecentosanswide-Medium" font-size="112.0" fill="#FEFFFF" transform="matrix(1.00, 0.00, -0.00, -1.00, 839.0, 1350.0)">A</text><text xml:space="preserve" font-family="Novecentosanswide-Medium" font-size="112.0" fill="#FEFFFF" transform="matrix(1.00, 0.00, -0.00, -1.00, 905.4, 1350.0)">T</text><text xml:space="preserve" font-family="Novecentosanswide-Medium" font-size="112.0" fill="#FEFFFF" transform="matrix(1.00, 0.00, -0.00, -1.00, 973.3, 1350.0)">E</text><text xml:space="preserve" font-family="Novecentosanswide-Medium" font-size="112.0" fill="#FEFFFF" transform="matrix(1.00, 0.00, -0.00, -1.00, 1036.7, 1350.0)">D</text><text xml:space="preserve" font-family="Novecentosanswide-Medium" font-size="112.0" fill="#FEFFFF" transform="matrix(1.00, 0.00, -0.00, -1.00, 1115.0, 1350.0)"> </text><text xml:space="preserve" font-family="Novecentosanswide-DemiBold" font-weight="bold" font-size="112.0" fill="#01A1D6" transform="matrix(1.00, 0.00, -0.00, -1.00, 1138.8, 1350.0)">T</text><text xml:space="preserve" font-family="Novecentosanswide-DemiBold" font-weight="bold" font-size="112.0" fill="#01A1D6" transform="matrix(1.00, 0.00, -0.00, -1.00, 1207.5, 1350.0)">E</text><text xml:space="preserve" font-family="Novecentosanswide-DemiBold" font-weight="bold" font-size="112.0" fill="#01A1D6" transform="matrix(1.00, 0.00, -0.00, -1.00, 1271.5, 1350.0)">S</text><text xml:space="preserve" font-family="Novecentosanswide-DemiBold" font-weight="bold" font-size="112.0" fill="#01A1D6" transform="matrix(1.00, 0.00, -0.00, -1.00, 1335.0, 1350.0)">T</text><text xml:space="preserve" font-family="Novecentosanswide-DemiBold" font-weight="bold" font-size="112.0" fill="#01A1D6" transform="matrix(1.00, 0.00, -0.00, -1.00, 1403.8, 1350.0)">I</text><text xml:space="preserve" font-family="Novecentosanswide-DemiBold" font-weight="bold" font-size="112.0" fill="#01A1D6" transform="matrix(1.00, 0.00, -0.00, -1.00, 1429.2, 1350.0)">N</text><text xml:space="preserve" font-family="Novecentosanswide-DemiBold" font-weight="bold" font-size="112.0" fill="#01A1D6" transform="matrix(1.00, 0.00, -0.00, -1.00, 1508.1, 1350.0)">G</text><text xml:space="preserve" font-family="Cantarell-Regular" font-size="68.0" fill="#01A1D6" transform="matrix(1.00, 0.00, -0.00, -1.00, 750.0, 1255.0)">A</text><text xml:space="preserve" font-family="Cantarell-Regular" font-size="68.0" fill="#01A1D6" transform="matrix(1.00, 0.00, -0.00, -1.00, 795.9, 1255.0)">c</text><text xml:space="preserve" font-family="Cantarell-Regular" font-size="68.0" fill="#01A1D6" transform="matrix(1.00, 0.00, -0.00, -1.00, 829.2, 1255.0)">c</text><text xml:space="preserve" font-family="Cantarell-Regular" font-size="68.0" fill="#01A1D6" transform="matrix(1.00, 0.00, -0.00, -1.00, 862.4, 1255.0)">e</text><text xml:space="preserve" font-family="Cantarell-Regular" font-size="68.0" fill="#01A1D6" transform="matrix(1.00, 0.00, -0.00, -1.00, 899.0, 1255.0)">p</text><text xml:space="preserve" font-family="Cantarell-Regular" font-size="68.0" fill="#01A1D6" transform="matrix(1.00, 0.00, -0.00, -1.00, 938.0, 1255.0)">t</text><text xml:space="preserve" font-family="Cantarell-Regular" font-size="68.0" fill="#01A1D6" transform="matrix(1.00, 0.00, -0.00, -1.00, 963.8, 1255.0)">a</text><text xml:space="preserve" font-family="Cantarell-Regular" font-size="68.0" fill="#01A1D6" transform="matrix(1.00, 0.00, -0.00, -1.00, 999.3, 1255.0)">n</text><text xml:space="preserve" font-family="Cantarell-Regular" font-size="68.0" fill="#01A1D6" transform="matrix(1.00, 0.00, -0.00, -1.00, 1038.4, 1255.0)">c</text><text xml:space="preserve" font-family="Cantarell-Regular" font-size="68.0" fill="#01A1D6" transform="matrix(1.00, 0.00, -0.00, -1.00, 1071.6, 1255.0)">e</text><text xml:space="preserve" font-family="Cantarell-Regular" font-size="68.0" fill="#01A1D6" transform="matrix(1.00, 0.00, -0.00, -1.00, 1108.2, 1255.0)"> </text><text xml:space="preserve" font-family="Cantarell-Regular" font-size="68.0" fill="#01A1D6" transform="matrix(1.00, 0.00, -0.00, -1.00, 1126.8, 1255.0)">T</text><text xml:space="preserve" font-family="Cantarell-Regular" font-size="68.0" fill="#01A1D6" transform="matrix(1.00, 0.00, -0.00, -1.00, 1167.0, 1255.0)">e</text><text xml:space="preserve" font-family="Cantarell-Regular" font-size="68.0" fill="#01A1D6" transform="matrix(1.00, 0.00, -0.00, -1.00, 1203.6, 1255.0)">s</text><text xml:space="preserve" font-family="Cantarell-Regular" font-size="68.0" fill="#01A1D6" transform="matrix(1.00, 0.00, -0.00, -1.00, 1237.3, 1255.0)">t</text><text xml:space="preserve" font-family="Cantarell-Regular" font-size="68.0" fill="#01A1D6" transform="matrix(1.00, 0.00, -0.00, -1.00, 1263.1, 1255.0)">s</text><image xlink:href="../../D86CBF58-7E78-4651-B102-65535B1DA1EE/assets/7AEFD6CB8CCF5ECCEC00E2DFD088389D.png" width="360.00" height="90.00" transform="matrix(1.00, 0.00, -0.00, -1.00, 48.0, 156.0)"></image><text xml:space="preserve" font-family="Novecentosanswide-Medium" font-size="28.0" fill="#84929B" transform="matrix(1.00, 0.00, -0.00, -1.00, 878.0, 105.0)">g</text><text xml:space="preserve" font-family="Novecentosanswide-Medium" font-size="28.0" fill="#84929B" transform="matrix(1.00, 0.00, -0.00, -1.00, 896.8, 105.0)">i</text><text xml:space="preserve" font-family="Novecentosanswide-Medium" font-size="28.0" fill="#84929B" transform="matrix(1.00, 0.00, -0.00, -1.00, 903.6, 105.0)">t</text><text xml:space="preserve" font-family="Novecentosanswide-Medium" font-size="28.0" fill="#84929B" transform="matrix(1.00, 0.00, -0.00, -1.00, 919.1, 105.0)">h</text><text xml:space="preserve" font-family="Novecentosanswide-Medium" font-size="28.0" fill="#84929B" transform="matrix(1.00, 0.00, -0.00, -1.00, 936.4, 105.0)">u</text><text xml:space="preserve" font-family="Novecentosanswide-Medium" font-size="28.0" fill="#84929B" transform="matrix(1.00, 0.00, -0.00, -1.00, 953.8, 105.0)">b</text><text xml:space="preserve" font-family="Novecentosanswide-Medium" font-size="28.0" fill="#84929B" transform="matrix(1.00, 0.00, -0.00, -1.00, 969.1, 105.0)">.</text><text xml:space="preserve" font-family="Novecentosanswide-Medium" font-size="28.0" fill="#84929B" transform="matrix(1.00, 0.00, -0.00, -1.00, 975.2, 105.0)">c</text><text xml:space="preserve" font-family="Novecentosanswide-Medium" font-size="28.0" fill="#84929B" transform="matrix(1.00, 0.00, -0.00, -1.00, 993.1, 105.0)">o</text><text xml:space="preserve" font-family="Novecentosanswide-Medium" font-size="28.0" fill="#84929B" transform="matrix(1.00, 0.00, -0.00, -1.00, 1011.7, 105.0)">m</text><text xml:space="preserve" font-family="Novecentosanswide-Medium" font-size="28.0" fill="#84929B" transform="matrix(1.00, 0.00, -0.00, -1.00, 1031.5, 105.0)">/</text><text xml:space="preserve" font-family="Novecentosanswide-Medium" font-size="28.0" fill="#84929B" transform="matrix(1.00, 0.00, -0.00, -1.00, 1045.7, 105.0)">r</text><text xml:space="preserve" font-family="Novecentosanswide-Medium" font-size="28.0" fill="#84929B" transform="matrix(1.00, 0.00, -0.00, -1.00, 1061.1, 105.0)">e</text><text xml:space="preserve" font-family="Novecentosanswide-Medium" font-size="28.0" fill="#84929B" transform="matrix(1.00, 0.00, -0.00, -1.00, 1075.9, 105.0)">a</text><text xml:space="preserve" font-family="Novecentosanswide-Medium" font-size="28.0" fill="#84929B" transform="matrix(1.00, 0.00, -0.00, -1.00, 1092.9, 105.0)">l</text><text xml:space="preserve" font-family="Novecentosanswide-Medium" font-size="28.0" fill="#84929B" transform="matrix(1.00, 0.00, -0.00, -1.00, 1106.5, 105.0)">p</text><text xml:space="preserve" font-family="Novecentosanswide-Medium" font-size="28.0" fill="#84929B" transform="matrix(1.00, 0.00, -0.00, -1.00, 1119.4, 105.0)">a</text><text xml:space="preserve" font-family="Novecentosanswide-Medium" font-size="28.0" fill="#84929B" transform="matrix(1.00, 0.00, -0.00, -1.00, 1135.7, 105.0)">g</text><text xml:space="preserve" font-family="Novecentosanswide-Medium" font-size="28.0" fill="#84929B" transform="matrix(1.00, 0.00, -0.00, -1.00, 1154.5, 105.0)">e</text><text xml:space="preserve" font-family="Cantarell-Regular" font-size="28.0" fill="#84929B" transform="matrix(1.00, 0.00, -0.00, -1.00, 1169.4, 105.0)"> </text></g></svg>