<?xml version="1.0" encoding="UTF-8" standalone="no"?><svg xmlns="http://www.w3.org/2000/svg" xmlns:xlink="http://www.w3.org/1999/xlink" clip-rule="evenodd" stroke-miterlimit="4.00" viewBox="0 0 313 52"><desc>SVG generated by Keynote</desc><defs></defs><g transform="matrix(1.00, 0.00, -0.00, -1.00, 0.0, 52.0)"><text xml:space="preserve" font-family="Cantarell-Regular" font-size="68.0" fill="#01A1D6" transform="matrix(1.00, 0.00, -0.00, -1.00, -8.0, 3.0)">U</text><text xml:space="preserve" font-family="Cantarell-Regular" font-size="68.0" fill="#01A1D6" transform="matrix(1.00, 0.00, -0.00, -1.00, 44.6, 3.0)">n</text><text xml:space="preserve" font-family="Cantarell-Regular" font-size="68.0" fill="#01A1D6" transform="matrix(1.00, 0.00, -0.00, -1.00, 83.6, 3.0)">i</text><text xml:space="preserve" font-family="Cantarell-Regular" font-size="68.0" fill="#01A1D6" transform="matrix(1.00, 0.00, -0.00, -1.00, 101.0, 3.0)">t</text><text xml:space="preserve" font-family="Cantarell-Regular" font-size="68.0" fill="#01A1D6" transform="matrix(1.00, 0.00, -0.00, -1.00, 126.8, 3.0)"> </text><text xml:space="preserve" font-family="Cantarell-Regular" font-size="68.0" fill="#01A1D6" transform="matrix(1.00, 0.00, -0.00, -1.00, 145.4, 3.0)">T</text><text xml:space="preserve" font-family="Cantarell-Regular" font-size="68.0" fill="#01A1D6" transform="matrix(1.00, 0.00, -0.00, -1.00, 185.5, 3.0)">e</text><text xml:space="preserve" font-family="Cantarell-Regular" font-size="68.0" fill="#01A1D6" transform="matrix(1.00, 0.00, -0.00, -1.00, 222.2, 3.0)">s</text><text xml:space="preserve" font-family="Cantarell-Regular" font-size="68.0" fill="#01A1D6" transform="matrix(1.00, 0.00, -0.00, -1.00, 255.9, 3.0)">t</text><text xml:space="preserve" font-family="Cantarell-Regular" font-size="68.0" fill="#01A1D6" transform="matrix(1.00, 0.00, -0.00, -1.00, 281.7, 3.0)">s</text></g></svg>