<?xml version="1.0" encoding="UTF-8" standalone="no"?><svg xmlns="http://www.w3.org/2000/svg" xmlns:xlink="http://www.w3.org/1999/xlink" clip-rule="evenodd" stroke-miterlimit="4.00" viewBox="0 0 346 39"><desc>SVG generated by Keynote</desc><defs></defs><g transform="matrix(1.00, 0.00, -0.00, -1.00, 0.0, 39.0)"><text xml:space="preserve" font-family="Novecentosanswide-Medium" font-size="50.0" fill="#FFFFFF" transform="matrix(1.00, 0.00, -0.00, -1.00, 1.0, 3.0)">W</text><text xml:space="preserve" font-family="Novecentosanswide-Medium" font-size="50.0" fill="#FFFFFF" transform="matrix(1.00, 0.00, -0.00, -1.00, 50.2, 3.0)">h</text><text xml:space="preserve" font-family="Novecentosanswide-Medium" font-size="50.0" fill="#FFFFFF" transform="matrix(1.00, 0.00, -0.00, -1.00, 81.1, 3.0)">a</text><text xml:space="preserve" font-family="Novecentosanswide-Medium" font-size="50.0" fill="#FFFFFF" transform="matrix(1.00, 0.00, -0.00, -1.00, 106.7, 3.0)">t</text><text xml:space="preserve" font-family="Novecentosanswide-Medium" font-size="50.0" fill="#FFFFFF" transform="matrix(1.00, 0.00, -0.00, -1.00, 134.4, 3.0)"> </text><text xml:space="preserve" font-family="Novecentosanswide-Medium" font-size="50.0" fill="#FFFFFF" transform="matrix(1.00, 0.00, -0.00, -1.00, 146.9, 3.0)">w</text><text xml:space="preserve" font-family="Novecentosanswide-Medium" font-size="50.0" fill="#FFFFFF" transform="matrix(1.00, 0.00, -0.00, -1.00, 188.8, 3.0)">e</text><text xml:space="preserve" font-family="Novecentosanswide-Medium" font-size="50.0" fill="#FFFFFF" transform="matrix(1.00, 0.00, -0.00, -1.00, 215.4, 3.0)"> </text><text xml:space="preserve" font-family="Novecentosanswide-Medium" font-size="50.0" fill="#FFFFFF" transform="matrix(1.00, 0.00, -0.00, -1.00, 227.9, 3.0)">n</text><text xml:space="preserve" font-family="Novecentosanswide-Medium" font-size="50.0" fill="#FFFFFF" transform="matrix(1.00, 0.00, -0.00, -1.00, 259.8, 3.0)">e</text><text xml:space="preserve" font-family="Novecentosanswide-Medium" font-size="50.0" fill="#FFFFFF" transform="matrix(1.00, 0.00, -0.00, -1.00, 286.4, 3.0)">e</text><text xml:space="preserve" font-family="Novecentosanswide-Medium" font-size="50.0" fill="#FFFFFF" transform="matrix(1.00, 0.00, -0.00, -1.00, 312.9, 3.0)">d</text></g></svg>