<?xml version="1.0" encoding="UTF-8" standalone="no"?><svg xmlns="http://www.w3.org/2000/svg" xmlns:xlink="http://www.w3.org/1999/xlink" clip-rule="evenodd" stroke-miterlimit="4.00" viewBox="0 0 412 49"><desc>SVG generated by Keynote</desc><defs></defs><g transform="matrix(1.00, 0.00, -0.00, -1.00, 0.0, 49.0)"><text xml:space="preserve" font-family="Novecentosanswide-Medium" font-size="40.0" fill="#FEFFFF" transform="matrix(1.00, 0.00, -0.00, -1.00, 0.5, 7.7)">•</text><text xml:space="preserve" font-family="Cantarell-Regular" font-size="40.0" fill="#D8D8D8" transform="matrix(1.00, 0.00, -0.00, -1.00, 59.0, 9.0)">A</text><text xml:space="preserve" font-family="Cantarell-Regular" font-size="40.0" fill="#D8D8D8" transform="matrix(1.00, 0.00, -0.00, -1.00, 86.0, 9.0)">P</text><text xml:space="preserve" font-family="Cantarell-Regular" font-size="40.0" fill="#D8D8D8" transform="matrix(1.00, 0.00, -0.00, -1.00, 112.2, 9.0)">I</text><text xml:space="preserve" font-family="Cantarell-Regular" font-size="40.0" fill="#D8D8D8" transform="matrix(1.00, 0.00, -0.00, -1.00, 126.4, 9.0)"> </text><text xml:space="preserve" font-family="Cantarell-Regular" font-size="40.0" fill="#D8D8D8" transform="matrix(1.00, 0.00, -0.00, -1.00, 137.4, 9.0)">d</text><text xml:space="preserve" font-family="Cantarell-Regular" font-size="40.0" fill="#D8D8D8" transform="matrix(1.00, 0.00, -0.00, -1.00, 160.6, 9.0)">o</text><text xml:space="preserve" font-family="Cantarell-Regular" font-size="40.0" fill="#D8D8D8" transform="matrix(1.00, 0.00, -0.00, -1.00, 184.3, 9.0)">c</text><text xml:space="preserve" font-family="Cantarell-Regular" font-size="40.0" fill="#D8D8D8" transform="matrix(1.00, 0.00, -0.00, -1.00, 203.8, 9.0)">u</text><text xml:space="preserve" font-family="Cantarell-Regular" font-size="40.0" fill="#D8D8D8" transform="matrix(1.00, 0.00, -0.00, -1.00, 226.8, 9.0)">m</text><text xml:space="preserve" font-family="Cantarell-Regular" font-size="40.0" fill="#D8D8D8" transform="matrix(1.00, 0.00, -0.00, -1.00, 260.6, 9.0)">e</text><text xml:space="preserve" font-family="Cantarell-Regular" font-size="40.0" fill="#D8D8D8" transform="matrix(1.00, 0.00, -0.00, -1.00, 282.2, 9.0)">n</text><text xml:space="preserve" font-family="Cantarell-Regular" font-size="40.0" fill="#D8D8D8" transform="matrix(1.00, 0.00, -0.00, -1.00, 305.1, 9.0)">t</text><text xml:space="preserve" font-family="Cantarell-Regular" font-size="40.0" fill="#D8D8D8" transform="matrix(1.00, 0.00, -0.00, -1.00, 320.3, 9.0)">a</text><text xml:space="preserve" font-family="Cantarell-Regular" font-size="40.0" fill="#D8D8D8" transform="matrix(1.00, 0.00, -0.00, -1.00, 341.2, 9.0)">t</text><text xml:space="preserve" font-family="Cantarell-Regular" font-size="40.0" fill="#D8D8D8" transform="matrix(1.00, 0.00, -0.00, -1.00, 356.3, 9.0)">i</text><text xml:space="preserve" font-family="Cantarell-Regular" font-size="40.0" fill="#D8D8D8" transform="matrix(1.00, 0.00, -0.00, -1.00, 366.6, 9.0)">o</text><text xml:space="preserve" font-family="Cantarell-Regular" font-size="40.0" fill="#D8D8D8" transform="matrix(1.00, 0.00, -0.00, -1.00, 390.2, 9.0)">n</text></g></svg>