<?xml version="1.0" encoding="UTF-8" standalone="no"?><svg xmlns="http://www.w3.org/2000/svg" xmlns:xlink="http://www.w3.org/1999/xlink" clip-rule="evenodd" stroke-miterlimit="4.00" viewBox="0 0 2048 1536"><desc>SVG generated by Keynote</desc><defs></defs><g transform="matrix(1.00, 0.00, -0.00, -1.00, 0.0, 1536.0)"><g><clipPath id="clip-37"><path d="M 0.0 1536.0 L 2048.0 1536.0 L 2048.0 0.0 L 0.0 0.0 Z M 0.0 1536.0 "></path></clipPath><g clip-path="url(#clip-37)"><image xlink:href="../../D86CBF58-7E78-4651-B102-65535B1DA1EE/assets/EA215432A0DB698A213B0261797CC710.jpeg" width="1024.00" height="768.00" transform="matrix(2.00, 0.00, -0.00, -2.00, 0.0, 1536.0)"></image></g></g><text xml:space="preserve" font-family="Novecentosanswide-Medium" font-size="112.0" fill="#FEFFFF" transform="matrix(1.00, 0.00, -0.00, -1.00, 661.0, 1350.0)">T</text><text xml:space="preserve" font-family="Novecentosanswide-Medium" font-size="112.0" fill="#FEFFFF" transform="matrix(1.00, 0.00, -0.00, -1.00, 725.0, 1350.0)">O</text><text xml:space="preserve" font-family="Novecentosanswide-Medium" font-size="112.0" fill="#FEFFFF" transform="matrix(1.00, 0.00, -0.00, -1.00, 810.3, 1350.0)"> </text><text xml:space="preserve" font-family="Novecentosanswide-Medium" font-size="112.0" fill="#FEFFFF" transform="matrix(1.00, 0.00, -0.00, -1.00, 834.1, 1350.0)">T</text><text xml:space="preserve" font-family="Novecentosanswide-Medium" font-size="112.0" fill="#FEFFFF" transform="matrix(1.00, 0.00, -0.00, -1.00, 902.0, 1350.0)">H</text><text xml:space="preserve" font-family="Novecentosanswide-Medium" font-size="112.0" fill="#FEFFFF" transform="matrix(1.00, 0.00, -0.00, -1.00, 977.0, 1350.0)">E</text><text xml:space="preserve" font-family="Novecentosanswide-Medium" font-size="112.0" fill="#FEFFFF" transform="matrix(1.00, 0.00, -0.00, -1.00, 1040.5, 1350.0)"> </text><text xml:space="preserve" font-family="Novecentosanswide-DemiBold" font-weight="bold" font-size="112.0" fill="#01A1D6" transform="matrix(1.00, 0.00, -0.00, -1.00, 1064.3, 1350.0)">P</text><text xml:space="preserve" font-family="Novecentosanswide-DemiBold" font-weight="bold" font-size="112.0" fill="#01A1D6" transform="matrix(1.00, 0.00, -0.00, -1.00, 1128.6, 1350.0)">O</text><text xml:space="preserve" font-family="Novecentosanswide-DemiBold" font-weight="bold" font-size="112.0" fill="#01A1D6" transform="matrix(1.00, 0.00, -0.00, -1.00, 1213.7, 1350.0)">I</text><text xml:space="preserve" font-family="Novecentosanswide-DemiBold" font-weight="bold" font-size="112.0" fill="#01A1D6" transform="matrix(1.00, 0.00, -0.00, -1.00, 1239.1, 1350.0)">N</text><text xml:space="preserve" font-family="Novecentosanswide-DemiBold" font-weight="bold" font-size="112.0" fill="#01A1D6" transform="matrix(1.00, 0.00, -0.00, -1.00, 1318.0, 1350.0)">T</text><image xlink:href="../../D86CBF58-7E78-4651-B102-65535B1DA1EE/assets/7AEFD6CB8CCF5ECCEC00E2DFD088389D.png" width="360.00" height="90.00" transform="matrix(1.00, 0.00, -0.00, -1.00, 48.0, 156.0)"></image><text xml:space="preserve" font-family="Novecentosanswide-Medium" font-size="28.0" fill="#84929B" transform="matrix(1.00, 0.00, -0.00, -1.00, 878.0, 105.0)">g</text><text xml:space="preserve" font-family="Novecentosanswide-Medium" font-size="28.0" fill="#84929B" transform="matrix(1.00, 0.00, -0.00, -1.00, 896.8, 105.0)">i</text><text xml:space="preserve" font-family="Novecentosanswide-Medium" font-size="28.0" fill="#84929B" transform="matrix(1.00, 0.00, -0.00, -1.00, 903.6, 105.0)">t</text><text xml:space="preserve" font-family="Novecentosanswide-Medium" font-size="28.0" fill="#84929B" transform="matrix(1.00, 0.00, -0.00, -1.00, 919.1, 105.0)">h</text><text xml:space="preserve" font-family="Novecentosanswide-Medium" font-size="28.0" fill="#84929B" transform="matrix(1.00, 0.00, -0.00, -1.00, 936.4, 105.0)">u</text><text xml:space="preserve" font-family="Novecentosanswide-Medium" font-size="28.0" fill="#84929B" transform="matrix(1.00, 0.00, -0.00, -1.00, 953.8, 105.0)">b</text><text xml:space="preserve" font-family="Novecentosanswide-Medium" font-size="28.0" fill="#84929B" transform="matrix(1.00, 0.00, -0.00, -1.00, 969.1, 105.0)">.</text><text xml:space="preserve" font-family="Novecentosanswide-Medium" font-size="28.0" fill="#84929B" transform="matrix(1.00, 0.00, -0.00, -1.00, 975.2, 105.0)">c</text><text xml:space="preserve" font-family="Novecentosanswide-Medium" font-size="28.0" fill="#84929B" transform="matrix(1.00, 0.00, -0.00, -1.00, 993.1, 105.0)">o</text><text xml:space="preserve" font-family="Novecentosanswide-Medium" font-size="28.0" fill="#84929B" transform="matrix(1.00, 0.00, -0.00, -1.00, 1011.7, 105.0)">m</text><text xml:space="preserve" font-family="Novecentosanswide-Medium" font-size="28.0" fill="#84929B" transform="matrix(1.00, 0.00, -0.00, -1.00, 1031.5, 105.0)">/</text><text xml:space="preserve" font-family="Novecentosanswide-Medium" font-size="28.0" fill="#84929B" transform="matrix(1.00, 0.00, -0.00, -1.00, 1045.7, 105.0)">r</text><text xml:space="preserve" font-family="Novecentosanswide-Medium" font-size="28.0" fill="#84929B" transform="matrix(1.00, 0.00, -0.00, -1.00, 1061.1, 105.0)">e</text><text xml:space="preserve" font-family="Novecentosanswide-Medium" font-size="28.0" fill="#84929B" transform="matrix(1.00, 0.00, -0.00, -1.00, 1075.9, 105.0)">a</text><text xml:space="preserve" font-family="Novecentosanswide-Medium" font-size="28.0" fill="#84929B" transform="matrix(1.00, 0.00, -0.00, -1.00, 1092.9, 105.0)">l</text><text xml:space="preserve" font-family="Novecentosanswide-Medium" font-size="28.0" fill="#84929B" transform="matrix(1.00, 0.00, -0.00, -1.00, 1106.5, 105.0)">p</text><text xml:space="preserve" font-family="Novecentosanswide-Medium" font-size="28.0" fill="#84929B" transform="matrix(1.00, 0.00, -0.00, -1.00, 1119.4, 105.0)">a</text><text xml:space="preserve" font-family="Novecentosanswide-Medium" font-size="28.0" fill="#84929B" transform="matrix(1.00, 0.00, -0.00, -1.00, 1135.7, 105.0)">g</text><text xml:space="preserve" font-family="Novecentosanswide-Medium" font-size="28.0" fill="#84929B" transform="matrix(1.00, 0.00, -0.00, -1.00, 1154.5, 105.0)">e</text><text xml:space="preserve" font-family="Cantarell-Regular" font-size="28.0" fill="#84929B" transform="matrix(1.00, 0.00, -0.00, -1.00, 1169.4, 105.0)"> </text><image xlink:href="../../91A6998A-5887-4750-BA34-B25BA9D0DD36/assets/191A6D72AE228B58108C13E44063A3D8.png" width="1221.00" height="996.00" transform="matrix(1.00, 0.00, -0.00, -1.00, 33.4, 1229.0)" opacity="0.70"></image><image xlink:href="../../91A6998A-5887-4750-BA34-B25BA9D0DD36/assets/F84F2ED67CC5DA668B138F2E4908F748.png" width="667.00" height="540.00" transform="matrix(1.77, 0.00, -0.00, -1.77, 53.0, 1219.0)"></image><text xml:space="preserve" font-family="Novecentosanswide-Medium" font-size="50.0" fill="#FFFFFF" transform="matrix(1.00, 0.00, -0.00, -1.00, 1301.0, 1138.0)">W</text><text xml:space="preserve" font-family="Novecentosanswide-Medium" font-size="50.0" fill="#FFFFFF" transform="matrix(1.00, 0.00, -0.00, -1.00, 1350.2, 1138.0)">h</text><text xml:space="preserve" font-family="Novecentosanswide-Medium" font-size="50.0" fill="#FFFFFF" transform="matrix(1.00, 0.00, -0.00, -1.00, 1381.1, 1138.0)">a</text><text xml:space="preserve" font-family="Novecentosanswide-Medium" font-size="50.0" fill="#FFFFFF" transform="matrix(1.00, 0.00, -0.00, -1.00, 1406.7, 1138.0)">t</text><text xml:space="preserve" font-family="Novecentosanswide-Medium" font-size="50.0" fill="#FFFFFF" transform="matrix(1.00, 0.00, -0.00, -1.00, 1434.3, 1138.0)"> </text><text xml:space="preserve" font-family="Novecentosanswide-Medium" font-size="50.0" fill="#FFFFFF" transform="matrix(1.00, 0.00, -0.00, -1.00, 1446.8, 1138.0)">w</text><text xml:space="preserve" font-family="Novecentosanswide-Medium" font-size="50.0" fill="#FFFFFF" transform="matrix(1.00, 0.00, -0.00, -1.00, 1488.8, 1138.0)">e</text><text xml:space="preserve" font-family="Novecentosanswide-Medium" font-size="50.0" fill="#FFFFFF" transform="matrix(1.00, 0.00, -0.00, -1.00, 1515.3, 1138.0)"> </text><text xml:space="preserve" font-family="Novecentosanswide-Medium" font-size="50.0" fill="#FFFFFF" transform="matrix(1.00, 0.00, -0.00, -1.00, 1527.8, 1138.0)">n</text><text xml:space="preserve" font-family="Novecentosanswide-Medium" font-size="50.0" fill="#FFFFFF" transform="matrix(1.00, 0.00, -0.00, -1.00, 1559.8, 1138.0)">e</text><text xml:space="preserve" font-family="Novecentosanswide-Medium" font-size="50.0" fill="#FFFFFF" transform="matrix(1.00, 0.00, -0.00, -1.00, 1586.3, 1138.0)">e</text><text xml:space="preserve" font-family="Novecentosanswide-Medium" font-size="50.0" fill="#FFFFFF" transform="matrix(1.00, 0.00, -0.00, -1.00, 1612.9, 1138.0)">d</text><text xml:space="preserve" font-family="Novecentosanswide-Medium" font-size="40.0" fill="#FEFFFF" transform="matrix(1.00, 0.00, -0.00, -1.00, 1318.5, 1057.7)">•</text><text xml:space="preserve" font-family="Cantarell-Regular" font-size="40.0" fill="#D8D8D8" transform="matrix(1.00, 0.00, -0.00, -1.00, 1377.0, 1059.0)">S</text><text xml:space="preserve" font-family="Cantarell-Regular" font-size="40.0" fill="#D8D8D8" transform="matrix(1.00, 0.00, -0.00, -1.00, 1403.6, 1059.0)">t</text><text xml:space="preserve" font-family="Cantarell-Regular" font-size="40.0" fill="#D8D8D8" transform="matrix(1.00, 0.00, -0.00, -1.00, 1418.7, 1059.0)">a</text><text xml:space="preserve" font-family="Cantarell-Regular" font-size="40.0" fill="#D8D8D8" transform="matrix(1.00, 0.00, -0.00, -1.00, 1439.6, 1059.0)">n</text><text xml:space="preserve" font-family="Cantarell-Regular" font-size="40.0" fill="#D8D8D8" transform="matrix(1.00, 0.00, -0.00, -1.00, 1462.6, 1059.0)">d</text><text xml:space="preserve" font-family="Cantarell-Regular" font-size="40.0" fill="#D8D8D8" transform="matrix(1.00, 0.00, -0.00, -1.00, 1485.8, 1059.0)">a</text><text xml:space="preserve" font-family="Cantarell-Regular" font-size="40.0" fill="#D8D8D8" transform="matrix(1.00, 0.00, -0.00, -1.00, 1506.7, 1059.0)">r</text><text xml:space="preserve" font-family="Cantarell-Regular" font-size="40.0" fill="#D8D8D8" transform="matrix(1.00, 0.00, -0.00, -1.00, 1522.3, 1059.0)">d</text><text xml:space="preserve" font-family="Cantarell-Regular" font-size="40.0" fill="#D8D8D8" transform="matrix(1.00, 0.00, -0.00, -1.00, 1545.5, 1059.0)">s</text><text xml:space="preserve" font-family="Cantarell-Regular" font-size="40.0" fill="#D8D8D8" transform="matrix(1.00, 0.00, -0.00, -1.00, 1565.4, 1059.0)"> </text><text xml:space="preserve" font-family="Cantarell-Regular" font-size="40.0" fill="#D8D8D8" transform="matrix(1.00, 0.00, -0.00, -1.00, 1576.3, 1059.0)">(</text><text xml:space="preserve" font-family="Cantarell-Regular" font-size="40.0" fill="#D8D8D8" transform="matrix(1.00, 0.00, -0.00, -1.00, 1590.8, 1059.0)">P</text><text xml:space="preserve" font-family="Cantarell-Regular" font-size="40.0" fill="#D8D8D8" transform="matrix(1.00, 0.00, -0.00, -1.00, 1617.0, 1059.0)">S</text><text xml:space="preserve" font-family="Cantarell-Regular" font-size="40.0" fill="#D8D8D8" transform="matrix(1.00, 0.00, -0.00, -1.00, 1643.5, 1059.0)">R</text><text xml:space="preserve" font-family="Cantarell-Regular" font-size="40.0" fill="#D8D8D8" transform="matrix(1.00, 0.00, -0.00, -1.00, 1671.6, 1059.0)">-</text><text xml:space="preserve" font-family="Cantarell-Regular" font-size="40.0" fill="#D8D8D8" transform="matrix(1.00, 0.00, -0.00, -1.00, 1695.2, 1059.0)">2</text><text xml:space="preserve" font-family="Cantarell-Regular" font-size="40.0" fill="#D8D8D8" transform="matrix(1.00, 0.00, -0.00, -1.00, 1720.6, 1059.0)">,</text><text xml:space="preserve" font-family="Cantarell-Regular" font-size="40.0" fill="#D8D8D8" transform="matrix(1.00, 0.00, -0.00, -1.00, 1731.8, 1059.0)"> </text><text xml:space="preserve" font-family="Cantarell-Regular" font-size="40.0" fill="#D8D8D8" transform="matrix(1.00, 0.00, -0.00, -1.00, 1742.7, 1059.0)">j</text><text xml:space="preserve" font-family="Cantarell-Regular" font-size="40.0" fill="#D8D8D8" transform="matrix(1.00, 0.00, -0.00, -1.00, 1753.0, 1059.0)">s</text><text xml:space="preserve" font-family="Cantarell-Regular" font-size="40.0" fill="#D8D8D8" transform="matrix(1.00, 0.00, -0.00, -1.00, 1772.8, 1059.0)">o</text><text xml:space="preserve" font-family="Cantarell-Regular" font-size="40.0" fill="#D8D8D8" transform="matrix(1.00, 0.00, -0.00, -1.00, 1796.5, 1059.0)">n</text><text xml:space="preserve" font-family="Cantarell-Regular" font-size="40.0" fill="#D8D8D8" transform="matrix(1.00, 0.00, -0.00, -1.00, 1819.4, 1059.0)">-</text><text xml:space="preserve" font-family="Cantarell-Regular" font-size="40.0" fill="#D8D8D8" transform="matrix(1.00, 0.00, -0.00, -1.00, 1843.1, 1059.0)">a</text><text xml:space="preserve" font-family="Cantarell-Regular" font-size="40.0" fill="#D8D8D8" transform="matrix(1.00, 0.00, -0.00, -1.00, 1864.0, 1059.0)">p</text><text xml:space="preserve" font-family="Cantarell-Regular" font-size="40.0" fill="#D8D8D8" transform="matrix(1.00, 0.00, -0.00, -1.00, 1886.9, 1059.0)">i</text><text xml:space="preserve" font-family="Cantarell-Regular" font-size="40.0" fill="#D8D8D8" transform="matrix(1.00, 0.00, -0.00, -1.00, 1897.2, 1059.0)">,</text><text xml:space="preserve" font-family="Cantarell-Regular" font-size="40.0" fill="#D8D8D8" transform="matrix(1.00, 0.00, -0.00, -1.00, 1908.3, 1059.0)"> </text><text xml:space="preserve" font-family="Cantarell-Regular" font-size="40.0" fill="#D8D8D8" transform="matrix(1.00, 0.00, -0.00, -1.00, 1919.3, 1059.0)">e</text><text xml:space="preserve" font-family="Cantarell-Regular" font-size="40.0" fill="#D8D8D8" transform="matrix(1.00, 0.00, -0.00, -1.00, 1940.8, 1059.0)">t</text><text xml:space="preserve" font-family="Cantarell-Regular" font-size="40.0" fill="#D8D8D8" transform="matrix(1.00, 0.00, -0.00, -1.00, 1955.9, 1059.0)">c</text><text xml:space="preserve" font-family="Cantarell-Regular" font-size="40.0" fill="#D8D8D8" transform="matrix(1.00, 0.00, -0.00, -1.00, 1975.5, 1059.0)">.</text><text xml:space="preserve" font-family="Cantarell-Regular" font-size="40.0" fill="#D8D8D8" transform="matrix(1.00, 0.00, -0.00, -1.00, 1986.6, 1059.0)">)</text><text xml:space="preserve" font-family="Novecentosanswide-Medium" font-size="40.0" fill="#FEFFFF" transform="matrix(1.00, 0.00, -0.00, -1.00, 1318.5, 984.7)">•</text><text xml:space="preserve" font-family="Cantarell-Regular" font-size="40.0" fill="#D8D8D8" transform="matrix(1.00, 0.00, -0.00, -1.00, 1377.0, 986.0)">A</text><text xml:space="preserve" font-family="Cantarell-Regular" font-size="40.0" fill="#D8D8D8" transform="matrix(1.00, 0.00, -0.00, -1.00, 1404.0, 986.0)">u</text><text xml:space="preserve" font-family="Cantarell-Regular" font-size="40.0" fill="#D8D8D8" transform="matrix(1.00, 0.00, -0.00, -1.00, 1427.0, 986.0)">t</text><text xml:space="preserve" font-family="Cantarell-Regular" font-size="40.0" fill="#D8D8D8" transform="matrix(1.00, 0.00, -0.00, -1.00, 1442.2, 986.0)">o</text><text xml:space="preserve" font-family="Cantarell-Regular" font-size="40.0" fill="#D8D8D8" transform="matrix(1.00, 0.00, -0.00, -1.00, 1465.8, 986.0)">m</text><text xml:space="preserve" font-family="Cantarell-Regular" font-size="40.0" fill="#D8D8D8" transform="matrix(1.00, 0.00, -0.00, -1.00, 1499.7, 986.0)">a</text><text xml:space="preserve" font-family="Cantarell-Regular" font-size="40.0" fill="#D8D8D8" transform="matrix(1.00, 0.00, -0.00, -1.00, 1520.6, 986.0)">t</text><text xml:space="preserve" font-family="Cantarell-Regular" font-size="40.0" fill="#D8D8D8" transform="matrix(1.00, 0.00, -0.00, -1.00, 1535.7, 986.0)">e</text><text xml:space="preserve" font-family="Cantarell-Regular" font-size="40.0" fill="#D8D8D8" transform="matrix(1.00, 0.00, -0.00, -1.00, 1557.2, 986.0)">d</text><text xml:space="preserve" font-family="Cantarell-Regular" font-size="40.0" fill="#D8D8D8" transform="matrix(1.00, 0.00, -0.00, -1.00, 1580.4, 986.0)"> </text><text xml:space="preserve" font-family="Cantarell-Regular" font-size="40.0" fill="#D8D8D8" transform="matrix(1.00, 0.00, -0.00, -1.00, 1591.4, 986.0)">t</text><text xml:space="preserve" font-family="Cantarell-Regular" font-size="40.0" fill="#D8D8D8" transform="matrix(1.00, 0.00, -0.00, -1.00, 1606.5, 986.0)">e</text><text xml:space="preserve" font-family="Cantarell-Regular" font-size="40.0" fill="#D8D8D8" transform="matrix(1.00, 0.00, -0.00, -1.00, 1628.1, 986.0)">s</text><text xml:space="preserve" font-family="Cantarell-Regular" font-size="40.0" fill="#D8D8D8" transform="matrix(1.00, 0.00, -0.00, -1.00, 1647.9, 986.0)">t</text><text xml:space="preserve" font-family="Cantarell-Regular" font-size="40.0" fill="#D8D8D8" transform="matrix(1.00, 0.00, -0.00, -1.00, 1663.1, 986.0)">i</text><text xml:space="preserve" font-family="Cantarell-Regular" font-size="40.0" fill="#D8D8D8" transform="matrix(1.00, 0.00, -0.00, -1.00, 1673.3, 986.0)">n</text><text xml:space="preserve" font-family="Cantarell-Regular" font-size="40.0" fill="#D8D8D8" transform="matrix(1.00, 0.00, -0.00, -1.00, 1696.3, 986.0)">g</text><text xml:space="preserve" font-family="Novecentosanswide-Medium" font-size="40.0" fill="#FEFFFF" transform="matrix(1.00, 0.00, -0.00, -1.00, 1318.5, 911.7)">•</text><text xml:space="preserve" font-family="Cantarell-Regular" font-size="40.0" fill="#D8D8D8" transform="matrix(1.00, 0.00, -0.00, -1.00, 1377.0, 913.0)">A</text><text xml:space="preserve" font-family="Cantarell-Regular" font-size="40.0" fill="#D8D8D8" transform="matrix(1.00, 0.00, -0.00, -1.00, 1404.0, 913.0)">P</text><text xml:space="preserve" font-family="Cantarell-Regular" font-size="40.0" fill="#D8D8D8" transform="matrix(1.00, 0.00, -0.00, -1.00, 1430.2, 913.0)">I</text><text xml:space="preserve" font-family="Cantarell-Regular" font-size="40.0" fill="#D8D8D8" transform="matrix(1.00, 0.00, -0.00, -1.00, 1444.4, 913.0)"> </text><text xml:space="preserve" font-family="Cantarell-Regular" font-size="40.0" fill="#D8D8D8" transform="matrix(1.00, 0.00, -0.00, -1.00, 1455.4, 913.0)">d</text><text xml:space="preserve" font-family="Cantarell-Regular" font-size="40.0" fill="#D8D8D8" transform="matrix(1.00, 0.00, -0.00, -1.00, 1478.6, 913.0)">o</text><text xml:space="preserve" font-family="Cantarell-Regular" font-size="40.0" fill="#D8D8D8" transform="matrix(1.00, 0.00, -0.00, -1.00, 1502.3, 913.0)">c</text><text xml:space="preserve" font-family="Cantarell-Regular" font-size="40.0" fill="#D8D8D8" transform="matrix(1.00, 0.00, -0.00, -1.00, 1521.8, 913.0)">u</text><text xml:space="preserve" font-family="Cantarell-Regular" font-size="40.0" fill="#D8D8D8" transform="matrix(1.00, 0.00, -0.00, -1.00, 1544.8, 913.0)">m</text><text xml:space="preserve" font-family="Cantarell-Regular" font-size="40.0" fill="#D8D8D8" transform="matrix(1.00, 0.00, -0.00, -1.00, 1578.6, 913.0)">e</text><text xml:space="preserve" font-family="Cantarell-Regular" font-size="40.0" fill="#D8D8D8" transform="matrix(1.00, 0.00, -0.00, -1.00, 1600.2, 913.0)">n</text><text xml:space="preserve" font-family="Cantarell-Regular" font-size="40.0" fill="#D8D8D8" transform="matrix(1.00, 0.00, -0.00, -1.00, 1623.1, 913.0)">t</text><text xml:space="preserve" font-family="Cantarell-Regular" font-size="40.0" fill="#D8D8D8" transform="matrix(1.00, 0.00, -0.00, -1.00, 1638.3, 913.0)">a</text><text xml:space="preserve" font-family="Cantarell-Regular" font-size="40.0" fill="#D8D8D8" transform="matrix(1.00, 0.00, -0.00, -1.00, 1659.2, 913.0)">t</text><text xml:space="preserve" font-family="Cantarell-Regular" font-size="40.0" fill="#D8D8D8" transform="matrix(1.00, 0.00, -0.00, -1.00, 1674.3, 913.0)">i</text><text xml:space="preserve" font-family="Cantarell-Regular" font-size="40.0" fill="#D8D8D8" transform="matrix(1.00, 0.00, -0.00, -1.00, 1684.6, 913.0)">o</text><text xml:space="preserve" font-family="Cantarell-Regular" font-size="40.0" fill="#D8D8D8" transform="matrix(1.00, 0.00, -0.00, -1.00, 1708.2, 913.0)">n</text><text xml:space="preserve" font-family="Novecentosanswide-Medium" font-size="40.0" fill="#FEFFFF" transform="matrix(1.00, 0.00, -0.00, -1.00, 1318.5, 838.7)">•</text><text xml:space="preserve" font-family="Cantarell-Regular" font-size="40.0" fill="#D8D8D8" transform="matrix(1.00, 0.00, -0.00, -1.00, 1377.0, 840.0)">C</text><text xml:space="preserve" font-family="Cantarell-Regular" font-size="40.0" fill="#D8D8D8" transform="matrix(1.00, 0.00, -0.00, -1.00, 1405.4, 840.0)">o</text><text xml:space="preserve" font-family="Cantarell-Regular" font-size="40.0" fill="#D8D8D8" transform="matrix(1.00, 0.00, -0.00, -1.00, 1429.0, 840.0)">n</text><text xml:space="preserve" font-family="Cantarell-Regular" font-size="40.0" fill="#D8D8D8" transform="matrix(1.00, 0.00, -0.00, -1.00, 1452.0, 840.0)">t</text><text xml:space="preserve" font-family="Cantarell-Regular" font-size="40.0" fill="#D8D8D8" transform="matrix(1.00, 0.00, -0.00, -1.00, 1467.2, 840.0)">i</text><text xml:space="preserve" font-family="Cantarell-Regular" font-size="40.0" fill="#D8D8D8" transform="matrix(1.00, 0.00, -0.00, -1.00, 1477.4, 840.0)">n</text><text xml:space="preserve" font-family="Cantarell-Regular" font-size="40.0" fill="#D8D8D8" transform="matrix(1.00, 0.00, -0.00, -1.00, 1500.4, 840.0)">u</text><text xml:space="preserve" font-family="Cantarell-Regular" font-size="40.0" fill="#D8D8D8" transform="matrix(1.00, 0.00, -0.00, -1.00, 1523.3, 840.0)">o</text><text xml:space="preserve" font-family="Cantarell-Regular" font-size="40.0" fill="#D8D8D8" transform="matrix(1.00, 0.00, -0.00, -1.00, 1547.0, 840.0)">u</text><text xml:space="preserve" font-family="Cantarell-Regular" font-size="40.0" fill="#D8D8D8" transform="matrix(1.00, 0.00, -0.00, -1.00, 1570.0, 840.0)">s</text><text xml:space="preserve" font-family="Cantarell-Regular" font-size="40.0" fill="#D8D8D8" transform="matrix(1.00, 0.00, -0.00, -1.00, 1589.8, 840.0)"> </text><text xml:space="preserve" font-family="Cantarell-Regular" font-size="40.0" fill="#D8D8D8" transform="matrix(1.00, 0.00, -0.00, -1.00, 1600.8, 840.0)">i</text><text xml:space="preserve" font-family="Cantarell-Regular" font-size="40.0" fill="#D8D8D8" transform="matrix(1.00, 0.00, -0.00, -1.00, 1611.0, 840.0)">n</text><text xml:space="preserve" font-family="Cantarell-Regular" font-size="40.0" fill="#D8D8D8" transform="matrix(1.00, 0.00, -0.00, -1.00, 1634.0, 840.0)">t</text><text xml:space="preserve" font-family="Cantarell-Regular" font-size="40.0" fill="#D8D8D8" transform="matrix(1.00, 0.00, -0.00, -1.00, 1649.1, 840.0)">e</text><text xml:space="preserve" font-family="Cantarell-Regular" font-size="40.0" fill="#D8D8D8" transform="matrix(1.00, 0.00, -0.00, -1.00, 1670.7, 840.0)">g</text><text xml:space="preserve" font-family="Cantarell-Regular" font-size="40.0" fill="#D8D8D8" transform="matrix(1.00, 0.00, -0.00, -1.00, 1693.6, 840.0)">r</text><text xml:space="preserve" font-family="Cantarell-Regular" font-size="40.0" fill="#D8D8D8" transform="matrix(1.00, 0.00, -0.00, -1.00, 1709.3, 840.0)">a</text><text xml:space="preserve" font-family="Cantarell-Regular" font-size="40.0" fill="#D8D8D8" transform="matrix(1.00, 0.00, -0.00, -1.00, 1730.2, 840.0)">t</text><text xml:space="preserve" font-family="Cantarell-Regular" font-size="40.0" fill="#D8D8D8" transform="matrix(1.00, 0.00, -0.00, -1.00, 1745.3, 840.0)">i</text><text xml:space="preserve" font-family="Cantarell-Regular" font-size="40.0" fill="#D8D8D8" transform="matrix(1.00, 0.00, -0.00, -1.00, 1755.6, 840.0)">o</text><text xml:space="preserve" font-family="Cantarell-Regular" font-size="40.0" fill="#D8D8D8" transform="matrix(1.00, 0.00, -0.00, -1.00, 1779.2, 840.0)">n</text><text xml:space="preserve" font-family="Novecentosanswide-Medium" font-size="40.0" fill="#FEFFFF" transform="matrix(1.00, 0.00, -0.00, -1.00, 1318.5, 765.7)">•</text><text xml:space="preserve" font-family="Cantarell-Regular" font-size="40.0" fill="#D8D8D8" transform="matrix(1.00, 0.00, -0.00, -1.00, 1377.0, 767.0)">D</text><text xml:space="preserve" font-family="Cantarell-Regular" font-size="40.0" fill="#D8D8D8" transform="matrix(1.00, 0.00, -0.00, -1.00, 1408.4, 767.0)">e</text><text xml:space="preserve" font-family="Cantarell-Regular" font-size="40.0" fill="#D8D8D8" transform="matrix(1.00, 0.00, -0.00, -1.00, 1429.9, 767.0)">p</text><text xml:space="preserve" font-family="Cantarell-Regular" font-size="40.0" fill="#D8D8D8" transform="matrix(1.00, 0.00, -0.00, -1.00, 1452.9, 767.0)">l</text><text xml:space="preserve" font-family="Cantarell-Regular" font-size="40.0" fill="#D8D8D8" transform="matrix(1.00, 0.00, -0.00, -1.00, 1463.9, 767.0)">o</text><text xml:space="preserve" font-family="Cantarell-Regular" font-size="40.0" fill="#D8D8D8" transform="matrix(1.00, 0.00, -0.00, -1.00, 1487.5, 767.0)">y</text><text xml:space="preserve" font-family="Cantarell-Regular" font-size="40.0" fill="#D8D8D8" transform="matrix(1.00, 0.00, -0.00, -1.00, 1508.2, 767.0)">m</text><text xml:space="preserve" font-family="Cantarell-Regular" font-size="40.0" fill="#D8D8D8" transform="matrix(1.00, 0.00, -0.00, -1.00, 1542.1, 767.0)">e</text><text xml:space="preserve" font-family="Cantarell-Regular" font-size="40.0" fill="#D8D8D8" transform="matrix(1.00, 0.00, -0.00, -1.00, 1563.6, 767.0)">n</text><text xml:space="preserve" font-family="Cantarell-Regular" font-size="40.0" fill="#D8D8D8" transform="matrix(1.00, 0.00, -0.00, -1.00, 1586.6, 767.0)">t</text><text xml:space="preserve" font-family="Cantarell-Regular" font-size="40.0" fill="#D8D8D8" transform="matrix(1.00, 0.00, -0.00, -1.00, 1601.7, 767.0)"> </text><text xml:space="preserve" font-family="Cantarell-Regular" font-size="40.0" fill="#D8D8D8" transform="matrix(1.00, 0.00, -0.00, -1.00, 1612.7, 767.0)">w</text><text xml:space="preserve" font-family="Cantarell-Regular" font-size="40.0" fill="#D8D8D8" transform="matrix(1.00, 0.00, -0.00, -1.00, 1645.6, 767.0)">o</text><text xml:space="preserve" font-family="Cantarell-Regular" font-size="40.0" fill="#D8D8D8" transform="matrix(1.00, 0.00, -0.00, -1.00, 1669.2, 767.0)">r</text><text xml:space="preserve" font-family="Cantarell-Regular" font-size="40.0" fill="#D8D8D8" transform="matrix(1.00, 0.00, -0.00, -1.00, 1684.9, 767.0)">k</text><text xml:space="preserve" font-family="Cantarell-Regular" font-size="40.0" fill="#D8D8D8" transform="matrix(1.00, 0.00, -0.00, -1.00, 1705.8, 767.0)">f</text><text xml:space="preserve" font-family="Cantarell-Regular" font-size="40.0" fill="#D8D8D8" transform="matrix(1.00, 0.00, -0.00, -1.00, 1721.9, 767.0)">l</text><text xml:space="preserve" font-family="Cantarell-Regular" font-size="40.0" fill="#D8D8D8" transform="matrix(1.00, 0.00, -0.00, -1.00, 1732.9, 767.0)">o</text><text xml:space="preserve" font-family="Cantarell-Regular" font-size="40.0" fill="#D8D8D8" transform="matrix(1.00, 0.00, -0.00, -1.00, 1756.6, 767.0)">w</text><text xml:space="preserve" font-family="Novecentosanswide-Medium" font-size="40.0" fill="#FEFFFF" transform="matrix(1.00, 0.00, -0.00, -1.00, 1318.5, 692.7)">•</text><text xml:space="preserve" font-family="Cantarell-Regular" font-size="40.0" fill="#D8D8D8" transform="matrix(1.00, 0.00, -0.00, -1.00, 1377.0, 694.0)">…</text><text xml:space="preserve" font-family="Cantarell-Regular" font-size="40.0" fill="#D8D8D8" transform="matrix(1.00, 0.00, -0.00, -1.00, 1410.6, 694.0)"> </text><text xml:space="preserve" font-family="Cantarell-Regular" font-size="40.0" fill="#D8D8D8" transform="matrix(1.00, 0.00, -0.00, -1.00, 1421.6, 694.0)">t</text><text xml:space="preserve" font-family="Cantarell-Regular" font-size="40.0" fill="#D8D8D8" transform="matrix(1.00, 0.00, -0.00, -1.00, 1436.7, 694.0)">h</text><text xml:space="preserve" font-family="Cantarell-Regular" font-size="40.0" fill="#D8D8D8" transform="matrix(1.00, 0.00, -0.00, -1.00, 1460.0, 694.0)">e</text><text xml:space="preserve" font-family="Cantarell-Regular" font-size="40.0" fill="#D8D8D8" transform="matrix(1.00, 0.00, -0.00, -1.00, 1481.5, 694.0)"> </text><text xml:space="preserve" font-family="Cantarell-Regular" font-size="40.0" fill="#D8D8D8" transform="matrix(1.00, 0.00, -0.00, -1.00, 1492.5, 694.0)">l</text><text xml:space="preserve" font-family="Cantarell-Regular" font-size="40.0" fill="#D8D8D8" transform="matrix(1.00, 0.00, -0.00, -1.00, 1503.5, 694.0)">i</text><text xml:space="preserve" font-family="Cantarell-Regular" font-size="40.0" fill="#D8D8D8" transform="matrix(1.00, 0.00, -0.00, -1.00, 1513.7, 694.0)">s</text><text xml:space="preserve" font-family="Cantarell-Regular" font-size="40.0" fill="#D8D8D8" transform="matrix(1.00, 0.00, -0.00, -1.00, 1533.6, 694.0)">t</text><text xml:space="preserve" font-family="Cantarell-Regular" font-size="40.0" fill="#D8D8D8" transform="matrix(1.00, 0.00, -0.00, -1.00, 1548.7, 694.0)"> </text><text xml:space="preserve" font-family="Cantarell-Regular" font-size="40.0" fill="#D8D8D8" transform="matrix(1.00, 0.00, -0.00, -1.00, 1559.7, 694.0)">g</text><text xml:space="preserve" font-family="Cantarell-Regular" font-size="40.0" fill="#D8D8D8" transform="matrix(1.00, 0.00, -0.00, -1.00, 1582.7, 694.0)">o</text><text xml:space="preserve" font-family="Cantarell-Regular" font-size="40.0" fill="#D8D8D8" transform="matrix(1.00, 0.00, -0.00, -1.00, 1606.4, 694.0)">e</text><text xml:space="preserve" font-family="Cantarell-Regular" font-size="40.0" fill="#D8D8D8" transform="matrix(1.00, 0.00, -0.00, -1.00, 1627.9, 694.0)">s</text><text xml:space="preserve" font-family="Cantarell-Regular" font-size="40.0" fill="#D8D8D8" transform="matrix(1.00, 0.00, -0.00, -1.00, 1647.7, 694.0)"> </text><text xml:space="preserve" font-family="Cantarell-Regular" font-size="40.0" fill="#D8D8D8" transform="matrix(1.00, 0.00, -0.00, -1.00, 1658.7, 694.0)">o</text><text xml:space="preserve" font-family="Cantarell-Regular" font-size="40.0" fill="#D8D8D8" transform="matrix(1.00, 0.00, -0.00, -1.00, 1682.4, 694.0)">n</text><text xml:space="preserve" font-family="Cantarell-Regular" font-size="40.0" fill="#D8D8D8" transform="matrix(1.00, 0.00, -0.00, -1.00, 1705.3, 694.0)"> </text><text xml:space="preserve" font-family="Cantarell-Regular" font-size="40.0" fill="#D8D8D8" transform="matrix(1.00, 0.00, -0.00, -1.00, 1716.3, 694.0)">…</text></g></svg>